<?xml version="1.0" encoding="UTF-8"?>
<svg stroke="white" width="700pt" height="700pt" version="1.1" viewBox="0 0 700 700" xmlns="http://www.w3.org/2000/svg" xmlns:xlink="http://www.w3.org/1999/xlink">
 <g>
  <path fill="white" d="m349.15 330.5c-80.57 0-117.91-104.36-118.68-178.73-0.054688-5.207 4.1172-9.4766 9.3281-9.5234 0.03125-0.003907 0.066406-0.003907 0.097656-0.003907 5.1641 0 9.3711 4.1562 9.4258 9.332 0.55078 52.336 25.691 160.07 99.82 160.07h0.62891c74.988-0.60547 100.37-108.11 100.92-160.07 0.054688-5.1758 4.2617-9.332 9.4258-9.332 0.03125 0 0.066407 0 0.097657 0.003907 5.207 0.050781 9.3828 4.3164 9.3281 9.5234-0.71484 68.734-33.828 178.04-119.62 178.72-0.25781 0-0.51953 0.011719-0.77344 0.011719z"/>
  <path fill="white" d="m570.38 559.99c-5.207 0-9.4258-4.2188-9.4258-9.4258 0-60.496-15.48-115.25-42.461-150.22-11.629-15.129-29.215-17.531-49.598-20.316-19.172-2.6211-40.918-5.582-57.492-21.473-15.703-15.285-14.062-39.574-12.477-63.062 0.33984-5.1992 4.8672-9.2617 10.043-8.7656 5.1992 0.35156 9.1172 4.8438 8.7656 10.043-1.5859 23.598-1.9805 39.707 6.7617 48.23 12.102 11.586 29.039 13.898 46.953 16.34 21.395 2.9297 45.652 6.2422 61.984 27.496 29.469 38.188 46.371 97.145 46.371 161.73 0 5.2109-4.2148 9.4258-9.4258 9.4258z"/>
  <path fill="white" d="m129.62 559.99c-5.207 0-9.4258-4.2188-9.4258-9.4258 0-64.582 16.902-123.54 46.379-161.74 16.32-21.23 40.535-24.555 61.895-27.473 17.859-2.4453 34.719-4.7578 46.723-16.375 8.9844-8.5117 8.5547-25.82 7.0703-47.57-0.36328-5.1875 3.5664-9.6914 8.7656-10.043 4.8906-0.48438 9.6914 3.5664 10.043 8.7656 1.5195 22.145 3.2383 47.238-12.828 62.469-16.363 15.844-38.066 18.809-57.215 21.438-20.34 2.7734-37.902 5.1875-49.508 20.293-26.988 34.984-42.473 89.734-42.473 150.23 0 5.2148-4.2148 9.4297-9.4258 9.4297z"/>
  <path fill="white" d="m570.38 559.99h-440.76c-5.207 0-9.4258-4.2188-9.4258-9.4258s4.2188-9.4258 9.4258-9.4258h440.76c5.207 0 9.4258 4.2188 9.4258 9.4258 0 5.2109-4.2148 9.4258-9.4258 9.4258z"/>
  <path fill="white" d="m350.01 169.32c-46.129 0-92.254-4.1797-137.09-12.535-5.1211-0.95703-8.4883-5.8789-7.543-11 0.95703-5.1211 5.8672-8.4727 11-7.543 87.41 16.297 179.85 16.297 267.26 0 5.0859-0.91797 10.043 2.4219 11 7.543 0.94531 5.1211-2.4219 10.043-7.543 11-44.84 8.3594-90.969 12.535-137.08 12.535z"/>
  <path fill="white" d="m368.38 78.312h-36.766c-5.6836 0-10.637-1.9531-14.324-5.6445-4.2617-4.2617-5.9141-10.379-4.3164-15.965l11.109-43.535c2.1602-7.9336 9.668-13.168 18.719-13.168h14.391c9.0508 0 16.562 5.2344 18.676 13.027l11.23 43.93c1.5195 5.3359-0.13281 11.453-4.3945 15.715-3.6836 3.6875-8.6406 5.6406-14.324 5.6406zm-36.621-18.973 36.516 0.10938-10.352-40.516c-0.1875-0.039063-0.42969-0.070313-0.72656-0.070313h-14.391c-0.29688 0-0.53906 0.03125-0.72656 0.070313z"/>
  <path fill="white" d="m293.27 56.895c-0.76172 0-1.5312-0.09375-2.3008-0.28516-5.0547-1.2617-8.1172-6.3828-6.8594-11.434l6.3984-25.57c2.1914-8.043 9.8789-13.531 18.742-13.531h23.973c5.207 0 9.4258 4.2227 9.4258 9.4297 0 5.207-4.2188 9.4297-9.4258 9.4297h-23.973l-6.8398 24.82c-1.0781 4.2852-4.9219 7.1406-9.1406 7.1406z"/>
  <path fill="white" d="m233.81 153.74c-5.207 0-9.4258-4.2227-9.4258-9.4297 0-65.023 23.5-106.41 69.867-122.99 4.8984-1.75 10.297 0.80469 12.047 5.7031 1.7617 4.9062-0.79297 10.301-5.7031 12.059-38.594 13.805-57.359 48.227-57.359 105.23 0 5.207-4.2188 9.4297-9.4258 9.4297z"/>
  <path fill="white" d="m406.73 56.895c-4.2188 0-8.0586-2.8594-9.1406-7.1406l-6.3984-25.566-24.414 0.75c-5.207 0-9.4258-4.2227-9.4258-9.4297 0-5.207 4.2188-9.4297 9.4258-9.4297h23.973c8.8633 0 16.551 5.4883 18.688 13.348l6.4531 25.758c1.2539 5.0547-1.8047 10.176-6.8594 11.434-0.76953 0.18359-1.5391 0.27734-2.3008 0.27734z"/>
  <path fill="white" d="m466.19 153.74c-5.207 0-9.4258-4.2227-9.4258-9.4297 0-57.027-18.863-91.445-57.668-105.22-4.8984-1.7461-7.4648-7.1367-5.7266-12.043 1.75-4.9062 7.125-7.4648 12.047-5.7305 46.578 16.543 70.199 57.926 70.199 122.99 0 5.207-4.2148 9.4297-9.4258 9.4297z"/>
  <path fill="white" d="m221.35 560c-0.88281 0-1.7734-0.13281-2.6641-0.39453-5-1.4648-7.8516-6.7188-6.375-11.707l33.562-113.79c1.1797-4.0078 4.8555-6.7617 9.0391-6.7617h190.18c5.207 0 9.4258 4.2188 9.4258 9.4258s-4.2188 9.4258-9.4258 9.4258h-183.13l-31.57 107.03c-1.2109 4.1094-4.9648 6.7734-9.0391 6.7734z"/>
  <path fill="white" d="m478.65 560c-4.0742 0-7.8281-2.6641-9.0391-6.7734l-33.562-113.79c-1.4766-4.9883 1.375-10.242 6.375-11.707 5.0117-1.4766 10.23 1.375 11.707 6.375l33.562 113.79c1.4766 4.9883-1.375 10.242-6.375 11.707-0.89453 0.26563-1.7852 0.39844-2.668 0.39844z"/>
  <path fill="white" d="m445.09 446.21c-1.2461 0-2.5117-0.25391-3.7227-0.76953-4.7773-2.0586-6.9922-7.5977-4.9453-12.387l28.125-65.52c2.0469-4.7773 7.6211-6.9609 12.387-4.9453 4.7773 2.0586 6.9922 7.5977 4.9453 12.387l-28.125 65.52c-1.5273 3.5703-5.0078 5.7148-8.6641 5.7148z"/>
  <path fill="white" d="m254.91 446.21c-3.6562 0-7.1367-2.1484-8.668-5.7148l-28.125-65.52c-2.0469-4.7891 0.16406-10.328 4.9453-12.387 4.7578-2.0273 10.34 0.16406 12.387 4.9453l28.129 65.52c2.0469 4.7891-0.16406 10.328-4.9453 12.387-1.2109 0.51562-2.4766 0.76953-3.7227 0.76953z"/>
  <path fill="white" d="m404.82 499.26h-109.96c-5.207 0-9.4258-4.2188-9.4258-9.4258 0-5.207 4.2188-9.4258 9.4258-9.4258h109.96c5.207 0 9.4258 4.2188 9.4258 9.4258 0 5.207-4.2148 9.4258-9.4258 9.4258z"/>
  <path fill="white" d="m530.11 367.27c-1.0352 0-2.082-0.17578-3.1172-0.53906-4.9102-1.7188-7.5-7.1016-5.7812-12.012l38.773-110.68-58.008-20.555-40.645 115.11c-1.7305 4.9219-7.1367 7.5312-12.023 5.7461-4.9102-1.7305-7.4883-7.1133-5.75-12.023l43.781-124.02c0.82422-2.3633 2.5664-4.293 4.8242-5.3672 2.2695-1.0898 4.8555-1.2109 7.2109-0.37891l75.758 26.848c4.8984 1.7344 7.4648 7.1016 5.7461 12.004l-41.875 119.55c-1.3516 3.8828-4.9961 6.3047-8.8945 6.3164z"/>
  <path fill="white" d="m559.84 404.34c-1.0352 0-2.0938-0.17578-3.1172-0.53906-4.9219-1.7188-7.5117-7.1016-5.7812-12.012l57.613-164.37-58.141-20.52c-2.1602 3.6992-6.6172 5.5781-10.902 4.2852-4.9883-1.5156-7.7969-6.7773-6.2773-11.762l2.2344-7.3516c0.75-2.4609 2.4648-4.5078 4.7695-5.6719 2.3008-1.1602 4.9453-1.3281 7.3906-0.48047l76.078 26.848c4.8984 1.7305 7.4766 7.1016 5.7578 12.012l-60.73 173.23c-1.3633 3.8906-5 6.3242-8.8945 6.3242z"/>
  <path fill="white" d="m177.55 365.65c-1.3008 0-2.6211-0.26563-3.8867-0.83594l-7.0352-3.1914c-3.25-1.4766-5.3828-4.6562-5.5273-8.2148l-0.40625-10.461-10.328-4.6484c-3.3242-1.4961-5.4961-4.7695-5.5625-8.4141l-0.19922-10.297-16.891-7.4766c-3.3164-1.4648-5.4961-4.7148-5.6055-8.3359-0.10938-3.6328 1.8711-6.9922 5.0977-8.668l84.699-43.781c2.2031-1.1445 4.7891-1.3672 7.1914-0.60938 2.3789 0.76172 4.3594 2.4336 5.5156 4.6562l39.312 76.074c2.3906 4.625 0.57422 10.316-4.0508 12.707-4.6367 2.3906-10.316 0.58203-12.707-4.0508l-34.984-67.699-58.844 30.426 4.3945 1.9492c3.3477 1.4883 5.5391 4.7773 5.6055 8.4336l0.21094 10.328 10.207 4.5898c3.2578 1.4648 5.418 4.6562 5.5625 8.2266l0.40625 10.492 1.7383 0.78125c4.7461 2.1602 6.8398 7.7422 4.6914 12.488-1.5898 3.4805-5.0156 5.5312-8.6055 5.5312z"/>
  <path fill="white" d="m204.42 304.28c-3.4023 0-6.6953-1.8398-8.3672-5.0664l-11.828-22.695c-2.4102-4.625-0.61719-10.316 3.9961-12.723 4.6484-2.3906 10.316-0.60938 12.719 4.0078l11.828 22.688c2.4102 4.625 0.61719 10.316-3.9961 12.719-1.3984 0.72656-2.8867 1.0703-4.3516 1.0703z"/>
  <path fill="white" d="m174.05 305.56c-3.3906 0-6.6602-1.8281-8.3477-5.0312l-6.0664-11.508c-2.4336-4.6016-0.67188-10.309 3.9414-12.73 4.6133-2.4648 10.316-0.66016 12.73 3.9414l6.0664 11.508c2.4336 4.6016 0.67188 10.309-3.9414 12.73-1.3984 0.74609-2.9102 1.0898-4.3828 1.0898z"/>
  <path fill="white" d="m122.91 317.38c-0.95703 0-1.9258-0.14453-2.8633-0.44141-2.3789-0.76172-4.3711-2.4336-5.5156-4.6562l-34.844-67.438c-2.3906-4.625-0.57422-10.312 4.0508-12.703l101.96-52.734c2.2031-1.1445 4.8008-1.3672 7.1914-0.60938 2.3789 0.76172 4.3711 2.4336 5.5156 4.6562l34.84 67.441c2.3906 4.625 0.57422 10.312-4.0508 12.703l-101.96 52.738c-1.3398 0.69141-2.8281 1.043-4.3242 1.043zm-22.133-72.816 26.184 50.688 85.207-44.074-26.184-50.688z"/>
  <path fill="white" d="m137.3 267.21c-3.4141 0-6.7188-1.8594-8.3906-5.1055-2.3906-4.625-0.57422-10.312 4.0508-12.707l38.352-19.816c4.6562-2.3789 10.316-0.57422 12.707 4.0508s0.57422 10.312-4.0508 12.707l-38.352 19.816c-1.3867 0.71094-2.8633 1.0547-4.3164 1.0547z"/>
  <path fill="white" d="m88.074 249.95c-3.4141 0-6.6953-1.8516-8.3789-5.082l-8.6328-16.617c-2.4023-4.625-0.59375-10.316 4.0195-12.719 4.625-2.3945 10.316-0.60156 12.719 4.0195l8.6328 16.617c2.4023 4.625 0.59375 10.316-4.0195 12.719-1.3867 0.72266-2.875 1.0625-4.3398 1.0625z"/>
  <path fill="white" d="m190.04 197.21c-3.4141 0-6.6953-1.8516-8.3789-5.0859l-8.6328-16.621c-2.4023-4.6211-0.59375-10.312 4.0195-12.711 4.625-2.3945 10.309-0.60156 12.719 4.0234l8.6328 16.621c2.4023 4.6211 0.59375 10.312-4.0195 12.711-1.3906 0.72266-2.875 1.0625-4.3398 1.0625z"/>
  
 </g>
</svg>
