<?xml version="1.0" encoding="UTF-8"?>
<svg width="700pt" height="700pt" version="1.1" viewBox="0 0 700 700" xmlns="http://www.w3.org/2000/svg" xmlns:xlink="http://www.w3.org/1999/xlink">

 <g fill="white" >
  <path d="m387.02 11.383h152.54v227.67h-140.21c0.41016 3.6992 0.76172 7.5078 1.0781 11.383h150.52l-0.003906-250.44h-175.31v158.29c4.3359 7.1211 8.1289 15.133 11.383 24.074z"/>
  <path d="m398.4 104.73h27.32v-54.641h-27.32zm6.8281-15.938h13.66v9.1055h-13.66z"/>
  <path d="m471.25 50.09h56.918v136.61h-56.918z"/>
  <path d="m432.55 104.73h27.32l0.003906-54.641h-27.32zm6.832-15.938h13.66v9.1055h-13.66z"/>
  <path d="m398.4 166.2h27.32v-54.645h-27.32zm6.8281-15.938h13.66v9.1055h-13.66z"/>
  <path d="m432.55 166.2h27.32l0.003906-54.645h-27.32zm6.832-15.938h13.66v9.1055h-13.66z"/>
  <path d="m398.4 227.67h27.32v-54.641h-27.32zm6.8281-15.934h13.66v9.1055h-13.66z"/>
  <path d="m432.55 227.67h27.32l0.003906-54.641h-27.32zm6.832-15.934h13.66v9.1055h-13.66z"/>
  <path d="m471.25 193.52h9.1055v34.152h-9.1055z"/>
  <path d="m487.19 193.52h9.1055v34.152h-9.1055z"/>
  <path d="m503.13 193.52h9.1055v34.152h-9.1055z"/>
  <path d="m519.07 193.52h9.1055v34.152h-9.1055z"/>
  <path d="m398.4 22.766h129.77v18.215h-129.77z"/>
  <path d="m349.78 388.21h241.38v12.949h-241.38z"/>
  <path d="m212.96 531.85c0 15.551 12.605 28.148 28.148 28.148 15.547 0 28.152-12.598 28.152-28.148v-161.5h10.551v161.5c0 15.551 12.605 28.148 28.148 28.148 15.547 0 28.152-12.598 28.152-28.148v-230.3c-9.2812 3.8633-18.488 6.3672-27.051 8.0156v17.332c0 3.7734-3.0586 6.8281-6.832 6.8281h-55.398c-3.7734 0-6.832-3.0547-6.832-6.8281v-17.098c-8.5234-1.5703-17.734-4.0117-27.039-7.7695z"/>
  <path d="m282.9 121.76c22.078-3.625 39.391-21.355 42.395-43.637-4.6211-0.23828-9.4922-0.73438-14.504-1.5117-26.23-4.0781-46.449-14.355-45.867-23.156 3.4688 7.8789 23.773 13.934 48.375 13.934 18.566 0 34.715-3.4453 43.016-8.5234 3.7852-2.3164 5.9414-4.9727 5.9414-7.7969 0-9.0117-21.918-16.316-48.953-16.316-0.92578 0-1.8281 0.03125-2.7383 0.046875-9.25-9.1523-21.969-14.805-36.012-14.805-28.289 0-51.227 22.938-51.227 51.227 0 25.449 18.555 46.547 42.871 50.535 2.7188 0.44531 5.5078 0.69141 8.3555 0.69141 2.8359 0 5.625-0.24219 8.3477-0.6875z"/>
  <path d="m164.67 362.11 9.9414-9.8555c1.7656 0.57422 3.6445 0.89453 5.5898 0.89453 0.35547 0 0.71875-0.007813 1.082-0.03125 10.047-0.58984 17.707-9.2109 17.113-19.246-0.10156-1.6875-0.17188-3.293-0.25391-4.9492l11.395-11.297-12.277-12.383c-0.089843-4.4062-0.14844-8.7227-0.14844-12.855-0.074219-55.137 7.9609-86.105 15.859-102.27v102.02c9.1719 4.0625 18.41 6.6953 27.039 8.3867v-6.2578c0-3.7773 3.0586-6.832 6.832-6.832h55.398c3.7734 0 6.832 3.0586 6.832 6.832v6.0234c8.6641-1.7734 17.91-4.5117 27.051-8.6953v-25.988l-0.003906-75.395c1.3477 2.7695 2.707 5.9414 4.0508 9.6484 6.4219 17.789 11.82 46.973 11.797 92.527 0 12.551-0.40625 26.344-1.2891 41.488-0.58203 10.043 7.082 18.656 17.125 19.242 0.35938 0.019531 0.71875 0.03125 1.0781 0.03125 9.5742 0 17.605-7.4727 18.168-17.152 0.92578-15.785 1.3516-30.281 1.3516-43.609-0.09375-68.715-11.066-106.75-26.035-129.62-7.4727-11.352-16.227-18.633-24.312-22.668-8.082-4.0742-15.168-4.8789-19.207-4.8672-1.4531 0-2.543 0.09375-3.2227 0.17578-0.011719 0.003906-0.03125 0.007813-0.046875 0.007813l-33.152 0.007812-5.0391 29.262h-5.6914l-5.0391-29.262h-33.16c-0.011719-0.003906-0.027344-0.003906-0.035157-0.007812-0.68359-0.082031-1.7734-0.18359-3.2188-0.18359-4.0469-0.007813-11.137 0.79688-19.207 4.875-12.246 6.0664-25.449 19.352-34.688 42.891-9.3477 23.633-15.625 57.801-15.656 109.39 0 13.328 0.42969 27.828 1.3555 43.617 0.054687 0.91797 0.19531 1.8125 0.37891 2.6875l-10.574 10.48 3.207 3.2344-0.87109 0.86328-35.637 35.336 6.4102 6.4688 35.477-35.18 1.0352-1.0234zm125.81-160.24h31.875v6.832h-31.875zm-63.75 0h31.875v6.832h-31.875z"/>
  <path d="m108.86 398.25 7.543-7.4805 6.4141 6.4688-7.543 7.4805z"/>
  <path d="m244.55 326.9c0.003906 1.2539 1.0234 2.2695 2.2812 2.2773h55.398c1.2578-0.007813 2.2734-1.0195 2.2773-2.2773v-32.633c-0.003907-1.2617-1.0195-2.2773-2.2773-2.2773h-55.398c-1.2578 0-2.2773 1.0195-2.2812 2.2773z"/>
  <path d="m523.59 487.22h-37.758v-17.457h6.5469v-6.832h-80.254v6.832h6.543v17.457h-37.754v71.336h142.68zm-98.098-14.043h53.508v14.043h-53.508z"/>
 
 </g>
</svg>
