<?xml version="1.0" encoding="UTF-8"?>
<svg width="700pt" height="700pt" version="1.1" viewBox="0 0 700 700" xmlns="http://www.w3.org/2000/svg" xmlns:xlink="http://www.w3.org/1999/xlink">
 
 <g fill="white" >
  <path d="m596.4 22.398h-492.8c-6.1758 0-11.199 5.0234-11.199 11.199v492.8c0 6.1758 5.0234 11.199 11.199 11.199h492.8c6.1758 0 11.199-5.0273 11.199-11.199v-492.8c0-6.1758-5.0234-11.199-11.199-11.199zm0 319.58c-0.36719-0.31641-0.82813-0.52344-1.3516-0.52344h-5c-1.1602 0-2.1016 0.94141-2.1016 2.1016s0.94141 2.1016 2.1016 2.1016h5c0.52344 0 0.98438-0.21094 1.3516-0.52344v181.27l-492.8-0.007812v-419.02h2.9023c1.1602 0 2.1016-0.94141 2.1016-2.1016s-0.94141-2.1016-2.1016-2.1016l-2.9023 0.003906v-69.59h492.8zm-298.82-271.65c0-1.1602 0.94141-2.1016 2.1016-2.1016h6.8125c1.1602 0 2.1016 0.94141 2.1016 2.1016s-0.94141 2.1016-2.1016 2.1016h-6.8125c-1.1641-0.003907-2.1016-0.94531-2.1016-2.1016zm31.832 34.555c0-1.1602 0.94141-2.1016 2.1016-2.1016h2.9805c1.1602 0 2.1016 0.94141 2.1016 2.1016 0 1.1602-0.94141 2.1016-2.1016 2.1016h-2.9805c-1.1602-0.003906-2.1016-0.94531-2.1016-2.1016zm6.7656-48.785c0-1.1602 0.94141-2.1016 2.1016-2.1016h2.9766c1.1602 0 2.1016 0.94141 2.1016 2.1016s-0.94141 2.1016-2.1016 2.1016h-2.9766c-1.1602-0.003907-2.1016-0.94141-2.1016-2.1016zm26.934 17.445c0-1.1602 0.94141-2.1016 2.1016-2.1016h6.8125c1.1602 0 2.1016 0.94141 2.1016 2.1016 0 1.1602-0.94141 2.1016-2.1016 2.1016h-6.8125c-1.1602-0.003906-2.1016-0.94141-2.1016-2.1016zm31.836 22.68c0-1.1602 0.94141-2.1016 2.1016-2.1016h2.9805c1.1602 0 2.1016 0.94141 2.1016 2.1016s-0.94141 2.1016-2.1016 2.1016h-2.9805c-1.1602 0-2.1016-0.94141-2.1016-2.1016zm6.7578-32.02c0-1.1602 0.94141-2.1016 2.1016-2.1016h2.9805c1.1602 0 2.1016 0.94141 2.1016 2.1016s-0.94141 2.1016-2.1016 2.1016h-2.9805c-1.1602 0-2.1016-0.94141-2.1016-2.1016zm-246.91 7.3438c0-1.1602 0.94141-2.1016 2.1016-2.1016h6.8125c1.1602 0 2.1016 0.94141 2.1016 2.1016s-0.94141 2.1016-2.1016 2.1016h-6.8125c-1.1602-0.003907-2.1016-0.94141-2.1016-2.1016zm31.832 29.141c0-1.1602 0.94141-2.1016 2.1016-2.1016h2.9805c1.1602 0 2.1016 0.94141 2.1016 2.1016s-0.94141 2.1016-2.1016 2.1016h-2.9805c-1.1641 0-2.1016-0.94141-2.1016-2.1016zm6.7617-41.141c0-1.1602 0.94141-2.1016 2.1016-2.1016h2.9805c1.1602 0 2.1016 0.94141 2.1016 2.1016s-0.94141 2.1016-2.1016 2.1016h-2.9805c-1.1602 0-2.1016-0.94141-2.1016-2.1016zm61.617 42.961c0-1.1602 0.94141-2.1016 2.1016-2.1016h6.8086c1.1602 0 2.1016 0.94141 2.1016 2.1016 0 1.1602-0.94141 2.1016-2.1016 2.1016h-6.8086c-1.1602 0-2.1016-0.94141-2.1016-2.1016zm-88.605 42.832c0 1.1602-0.94141 2.1016-2.1016 2.1016h-6.8125c-1.1602 0-2.1016-0.94141-2.1016-2.1016s0.94141-2.1016 2.1016-2.1016h6.8125c1.1641 0.003907 2.1016 0.94531 2.1016 2.1016zm-39.008-29.141c0-1.1602 0.94141-2.1016 2.1016-2.1016h2.9805c1.1602 0 2.1016 0.94141 2.1016 2.1016 0 1.1602-0.94141 2.1016-2.1016 2.1016h-2.9805c-1.1641-0.003906-2.1016-0.94141-2.1016-2.1016zm-6.7656 41.141c0-1.1602 0.94141-2.1016 2.1016-2.1016h2.9805c1.1602 0 2.1016 0.94141 2.1016 2.1016s-0.94141 2.1016-2.1016 2.1016h-2.9844c-1.1562 0-2.0977-0.94141-2.0977-2.1016zm15.566-61.391c0-1.1602 0.94141-2.1016 2.1016-2.1016h6.8125c1.1602 0 2.1016 0.94141 2.1016 2.1016 0 1.1602-0.94141 2.1016-2.1016 2.1016h-6.8125c-1.1602-0.003906-2.1016-0.94531-2.1016-2.1016zm-28-22.68c0-1.1602 0.94141-2.1016 2.1016-2.1016h2.9805c1.1602 0 2.1016 0.94141 2.1016 2.1016 0 1.1602-0.94141 2.1016-2.1016 2.1016l-2.9844-0.003906c-1.1562 0-2.0977-0.9375-2.0977-2.0977zm195.99 27.801h6.8125c1.1602 0 2.1016 0.94141 2.1016 2.1016s-0.94141 2.1016-2.1016 2.1016l-6.8125-0.003907c-1.1602 0-2.1016-0.94141-2.1016-2.1016 0-1.1562 0.94141-2.0977 2.1016-2.0977zm-30.102-20.582c0-1.1602 0.94141-2.1016 2.1016-2.1016h2.9805c1.1602 0 2.1016 0.94141 2.1016 2.1016 0 1.1602-0.94141 2.1016-2.1016 2.1016l-2.9805-0.003906c-1.1602 0-2.1016-0.9375-2.1016-2.0977zm-43.492 29.352c0-1.1602 0.94141-2.1016 2.1016-2.1016h6.8125c1.1602 0 2.1016 0.94141 2.1016 2.1016s-0.94141 2.1016-2.1016 2.1016h-6.8125c-1.1602 0-2.1016-0.94141-2.1016-2.1016zm244.75-60.875c0-1.1602 0.94141-2.1016 2.1016-2.1016h6.8125c1.1602 0 2.1016 0.94141 2.1016 2.1016s-0.94141 2.1016-2.1016 2.1016h-6.8125c-1.1602-0.003906-2.1016-0.94531-2.1016-2.1016zm-34.766 14.227c0-1.1602 0.94141-2.1016 2.1016-2.1016h2.9805c1.1602 0 2.1016 0.94141 2.1016 2.1016s-0.94141 2.1016-2.1016 2.1016h-2.9805c-1.1602 0-2.1016-0.94141-2.1016-2.1016zm-30.766-17.445c0-1.1602 0.94141-2.1016 2.1016-2.1016h6.8125c1.1602 0 2.1016 0.94141 2.1016 2.1016s-0.94141 2.1016-2.1016 2.1016h-6.8125c-1.1602-0.003906-2.1016-0.94531-2.1016-2.1016zm-34.766 9.3398c0-1.1602 0.94141-2.1016 2.1016-2.1016h2.9805c1.1602 0 2.1016 0.94141 2.1016 2.1016 0 1.1602-0.94141 2.1016-2.1016 2.1016h-2.9805c-1.1602-0.003906-2.1016-0.94141-2.1016-2.1016zm127.62-16.285c0-1.1602 0.94141-2.1016 2.1016-2.1016h2.9805c1.1602 0 2.1016 0.94141 2.1016 2.1016 0 1.1602-0.94141 2.1016-2.1016 2.1016h-2.9805c-1.1602-0.003906-2.1016-0.94531-2.1016-2.1016zm84.461 467.19h6.8086c1.1602 0 2.1016 0.94141 2.1016 2.1016s-0.94141 2.1016-2.1016 2.1016h-6.8086c-1.1602 0-2.1016-0.94141-2.1016-2.1016 0-1.1641 0.94141-2.1016 2.1016-2.1016zm-29.688 16.328c0 1.1602-0.94141 2.1016-2.1016 2.1016h-2.9766c-1.1602 0-2.1016-0.94141-2.1016-2.1016s0.94141-2.1016 2.1016-2.1016h2.9805c1.1602 0 2.0977 0.94141 2.0977 2.1016zm-26.938-17.445c0 1.1602-0.94141 2.1016-2.1016 2.1016h-6.8086c-1.1602 0-2.1016-0.94141-2.1016-2.1016s0.94141-2.1016 2.1016-2.1016h6.8086c1.1602 0 2.1016 0.94141 2.1016 2.1016zm-40.691 7.2422c1.1602 0 2.1016 0.94141 2.1016 2.1016s-0.94141 2.1016-2.1016 2.1016h-2.9805c-1.1602 0-2.1016-0.94141-2.1016-2.1016s0.94141-2.1016 2.1016-2.1016zm79.695-209.89h2.1875c1.1602 0 2.1016 0.94141 2.1016 2.1016 0 1.1602-0.94141 2.1016-2.1016 2.1016h-2.1875c-1.1602 0-2.1016-0.94141-2.1016-2.1016 0-1.1602 0.94141-2.1016 2.1016-2.1016zm-0.67969 57.484c0 1.1602-0.94141 2.1016-2.1016 2.1016h-2.1875c-1.1602 0-2.1016-0.94141-2.1016-2.1016 0-1.1602 0.94141-2.1016 2.1016-2.1016h2.1875c1.1602 0.003906 2.1016 0.94531 2.1016 2.1016zm-28.961-19.805c0-1.1602 0.94141-2.1016 2.1016-2.1016h5c1.1602 0 2.1016 0.94141 2.1016 2.1016s-0.94141 2.1016-2.1016 2.1016h-5c-1.1602-0.003906-2.1016-0.94531-2.1016-2.1016zm-20.551-25.75c0-1.1602 0.94141-2.1016 2.1016-2.1016h2.1875c1.1602 0 2.1016 0.94141 2.1016 2.1016s-0.94141 2.1016-2.1016 2.1016h-2.1875c-1.1641 0-2.1016-0.94141-2.1016-2.1016zm-4.9609 36.352c0-1.1602 0.94141-2.1016 2.1016-2.1016h2.1875c1.1602 0 2.1016 0.94141 2.1016 2.1016s-0.94141 2.1016-2.1016 2.1016h-2.1875c-1.1602 0-2.1016-0.94141-2.1016-2.1016zm72.391-46.336h5c1.1602 0 2.1016 0.94141 2.1016 2.1016 0 1.1602-0.94141 2.1016-2.1016 2.1016h-5c-1.1602 0-2.1016-0.94141-2.1016-2.1016 0-1.1602 0.94141-2.1016 2.1016-2.1016zm-436.16 159.29c0 1.1602-0.94141 2.1016-2.1016 2.1016h-5c-1.1602 0-2.1016-0.94141-2.1016-2.1016 0-1.1602 0.94141-2.1016 2.1016-2.1016h5c1.1641 0 2.1016 0.94141 2.1016 2.1016zm-23.359-39.234c0 1.1602-0.94141 2.1016-2.1016 2.1016h-2.1836c-1.1602 0-2.1016-0.94141-2.1016-2.1016s0.94141-2.1016 2.1016-2.1016h2.1836c1.1602 0.003906 2.1016 0.94141 2.1016 2.1016zm-4.9609 55.383c0 1.1602-0.94141 2.1016-2.1016 2.1016h-2.1875c-1.1602 0-2.1016-0.94141-2.1016-2.1016 0-1.1602 0.94141-2.1016 2.1016-2.1016h2.1875c1.1602 0 2.1016 0.94141 2.1016 2.1016zm22.914-51.34h-5c-1.1602 0-2.1016-0.94141-2.1016-2.1016 0-1.1602 0.94141-2.1016 2.1016-2.1016h5c1.1602 0 2.1016 0.94141 2.1016 2.1016 0 1.1602-0.94141 2.1016-2.1016 2.1016zm22.652 23.652c0 1.1602-0.94141 2.1016-2.1016 2.1016h-2.1875c-1.1602 0-2.1016-0.94141-2.1016-2.1016 0-1.1602 0.94141-2.1016 2.1016-2.1016h2.1875c1.1602 0 2.1016 0.94141 2.1016 2.1016zm201.58-276.49h-2.8047c-1.1602 0-2.1016-0.94141-2.1016-2.1016s0.94141-2.1016 2.1016-2.1016h2.8047c1.1602 0 2.1016 0.94141 2.1016 2.1016s-0.94141 2.1016-2.1016 2.1016zm-11.277 30.078c0-1.1602 0.94141-2.1016 2.1016-2.1016h2.8086c1.1602 0 2.1016 0.94141 2.1016 2.1016 0 1.1602-0.94141 2.1016-2.1016 2.1016h-2.8086c-1.1602-0.003906-2.1016-0.94531-2.1016-2.1016zm-28.973-11.508c0-1.1602 0.94141-2.1016 2.1016-2.1016h6.4141c1.1602 0 2.1016 0.94141 2.1016 2.1016s-0.94141 2.1016-2.1016 2.1016h-6.4141c-1.1641 0-2.1016-0.94141-2.1016-2.1016zm-21.465-12.859h-2.8047c-1.1602 0-2.1016-0.94141-2.1016-2.1016 0-1.1602 0.94141-2.1016 2.1016-2.1016h2.8047c1.1602 0 2.1016 0.94141 2.1016 2.1016-0.003907 1.1602-0.94531 2.1016-2.1016 2.1016zm-11.277 19.016c0-1.1602 0.94141-2.1016 2.1016-2.1016h2.8086c1.1602 0 2.1016 0.94141 2.1016 2.1016s-0.94141 2.1016-2.1016 2.1016h-2.8086c-1.1602 0-2.1016-0.94141-2.1016-2.1016zm239.54-4.8398c0 1.1602-0.94141 2.1016-2.1016 2.1016h-6.4141c-1.1602 0-2.1016-0.94141-2.1016-2.1016s0.94141-2.1016 2.1016-2.1016h6.4141c1.1602 0 2.1016 0.94141 2.1016 2.1016zm-36.984-19.219c0-1.1602 0.94141-2.1016 2.1016-2.1016h2.8047c1.1602 0 2.1016 0.94141 2.1016 2.1016s-0.94141 2.1016-2.1016 2.1016h-2.8047c-1.1602 0-2.1016-0.94141-2.1016-2.1016zm-6.3672 27.133c0-1.1602 0.94141-2.1016 2.1016-2.1016h2.8047c1.1602 0 2.1016 0.94141 2.1016 2.1016 0 1.1602-0.94141 2.1016-2.1016 2.1016h-2.8047c-1.1602 0-2.1016-0.94141-2.1016-2.1016zm-61.637-28.332c0-1.1602 0.94141-2.1016 2.1016-2.1016h6.4141c1.1602 0 2.1016 0.94141 2.1016 2.1016 0 1.1602-0.94141 2.1016-2.1016 2.1016h-6.4141c-1.1602-0.003906-2.1016-0.94141-2.1016-2.1016zm36.352-22.598c0-1.1602 0.94141-2.1016 2.1016-2.1016h2.8047c1.1602 0 2.1016 0.94141 2.1016 2.1016 0 1.1602-0.94141 2.1016-2.1016 2.1016h-2.8047c-1.1602 0-2.1016-0.94141-2.1016-2.1016zm57.465-5.6523c0-1.1602 0.94141-2.1016 2.1016-2.1016h6.4141c1.1602 0 2.1016 0.94141 2.1016 2.1016 0 1.1602-0.94141 2.1016-2.1016 2.1016h-6.4141c-1.1602 0-2.1016-0.94141-2.1016-2.1016zm29.973 19.219c0-1.1602 0.94141-2.1016 2.1016-2.1016h2.8125c1.1602 0 2.1016 0.94141 2.1016 2.1016 0 1.1602-0.94141 2.1016-2.1016 2.1016h-2.8125c-1.1602 0-2.1016-0.94141-2.1016-2.1016zm6.3711-27.133c0-1.1602 0.94141-2.1016 2.1016-2.1016h2.8047c1.1602 0 2.1016 0.94141 2.1016 2.1016s-0.94141 2.1016-2.1016 2.1016h-2.8047c-1.1602 0-2.1016-0.94141-2.1016-2.1016zm-18.266 40.488c0-1.1602 0.94141-2.1016 2.1016-2.1016h6.4141c1.1602 0 2.1016 0.94141 2.1016 2.1016s-0.94141 2.1016-2.1016 2.1016h-6.4141c-1.1602 0-2.1016-0.94141-2.1016-2.1016zm29.98 14.957c0-1.1602 0.94141-2.1016 2.1016-2.1016h2.8047c1.1602 0 2.1016 0.94141 2.1016 2.1016 0 1.1602-0.94141 2.1016-2.1016 2.1016h-2.8047c-1.1602 0-2.1016-0.94141-2.1016-2.1016zm6.3672-21.117c0-1.1602 0.94141-2.1016 2.1016-2.1016h2.8125c1.1602 0 2.1016 0.94141 2.1016 2.1016s-0.94141 2.1016-2.1016 2.1016h-2.8125c-1.1602 0-2.1016-0.94141-2.1016-2.1016zm-160.5 14.258h2.8047c1.1602 0 2.1016 0.94141 2.1016 2.1016s-0.94141 2.1016-2.1016 2.1016h-2.8047c-1.1602 0-2.1016-0.94141-2.1016-2.1016 0.003906-1.1602 0.94141-2.1016 2.1016-2.1016zm35.254-17.262c0-1.1602 0.94141-2.1016 2.1016-2.1016h6.4141c1.1602 0 2.1016 0.94141 2.1016 2.1016s-0.94141 2.1016-2.1016 2.1016h-6.418c-1.1602 0-2.0977-0.94141-2.0977-2.1016zm32.078 12.863h2.8047c1.1602 0 2.1016 0.94141 2.1016 2.1016 0 1.1602-0.94141 2.1016-2.1016 2.1016h-2.8047c-1.1602 0-2.1016-0.94141-2.1016-2.1016 0-1.1641 0.94141-2.1016 2.1016-2.1016zm-190.62 107.51c0-1.1602 0.94141-2.1016 2.1016-2.1016h6.4141c1.1602 0 2.1016 0.94141 2.1016 2.1016s-0.94141 2.1016-2.1016 2.1016h-6.4141c-1.1641-0.003906-2.1016-0.94141-2.1016-2.1016zm29.977 22.789c0-1.1602 0.94141-2.1016 2.1016-2.1016h2.8086c1.1602 0 2.1016 0.94141 2.1016 2.1016s-0.94141 2.1016-2.1016 2.1016h-2.8086c-1.1602 0-2.1016-0.94141-2.1016-2.1016zm13.379-32.176c0 1.1602-0.94141 2.1016-2.1016 2.1016h-2.8047c-1.1602 0-2.1016-0.94141-2.1016-2.1016s0.94141-2.1016 2.1016-2.1016h2.8047c1.1602 0.003907 2.1016 0.94531 2.1016 2.1016zm18.359 11.508c0-1.1602 0.94141-2.1016 2.1016-2.1016h6.4141c1.1602 0 2.1016 0.94141 2.1016 2.1016 0 1.1602-0.94141 2.1016-2.1016 2.1016h-6.4141c-1.1602 0-2.1016-0.94141-2.1016-2.1016zm29.98 14.957c0-1.1602 0.94141-2.1016 2.1016-2.1016h2.8086c1.1602 0 2.1016 0.94141 2.1016 2.1016 0 1.1602-0.94141 2.0977-2.1016 2.0977h-2.8086c-1.1602 0-2.1016-0.9375-2.1016-2.0977zm6.3672-21.117c0-1.1602 0.94141-2.1016 2.1016-2.1016h2.8125c1.1602 0 2.1016 0.94141 2.1016 2.1016 0 1.1602-0.94141 2.1016-2.1016 2.1016h-2.8125c-1.1602 0-2.1016-0.94141-2.1016-2.1016zm-230.43 2.7422h6.4141c1.1602 0 2.1016 0.94141 2.1016 2.1016 0 1.1602-0.94141 2.1016-2.1016 2.1016h-6.4141c-1.1602 0-2.1016-0.94141-2.1016-2.1016 0-1.1602 0.94141-2.1016 2.1016-2.1016zm34.883 21.32c0 1.1602-0.94141 2.1016-2.1016 2.1016h-2.8047c-1.1602 0-2.1016-0.94141-2.1016-2.1016 0-1.1602 0.94141-2.1016 2.1016-2.1016h2.8047c1.1602 0 2.1016 0.94141 2.1016 2.1016zm1.4648-29.234h2.8086c1.1602 0 2.1016 0.94141 2.1016 2.1016 0 1.1602-0.94141 2.1016-2.1016 2.1016h-2.8086c-1.1602 0-2.1016-0.94141-2.1016-2.1016 0-1.1602 0.94141-2.1016 2.1016-2.1016zm64.441 32.531h-6.4141c-1.1602 0-2.1016-0.94141-2.1016-2.1016s0.94141-2.1016 2.1016-2.1016h6.4141c1.1602 0 2.1016 0.94141 2.1016 2.1016s-0.94141 2.1016-2.1016 2.1016zm-41.254 20.496c0-1.1602 0.94141-2.1016 2.1016-2.1016h2.8086c1.1602 0 2.1016 0.94141 2.1016 2.1016s-0.94141 2.1016-2.1016 2.1016h-2.8086c-1.1602 0-2.1016-0.94141-2.1016-2.1016zm-50.457 5.6562c0 1.1602-0.94141 2.1016-2.1016 2.1016h-6.4141c-1.1602 0-2.1016-0.94141-2.1016-2.1016s0.94141-2.1016 2.1016-2.1016h6.4141c1.1602 0 2.1016 0.94141 2.1016 2.1016zm-36.988-19.223c0-1.1602 0.94141-2.1016 2.1016-2.1016h2.8086c1.1602 0 2.1016 0.94141 2.1016 2.1016s-0.94141 2.1016-2.1016 2.1016h-2.8086c-1.1602 0-2.1016-0.94141-2.1016-2.1016zm0.63672 27.137c0 1.1602-0.94141 2.1016-2.1016 2.1016l-2.8047-0.003906c-1.1602 0-2.1016-0.94141-2.1016-2.1016s0.94141-2.1016 2.1016-2.1016h2.8047c1.1602 0.003906 2.1016 0.94531 2.1016 2.1055zm9.7539-42.59h6.4141c1.1602 0 2.1016 0.94141 2.1016 2.1016 0 1.1602-0.94141 2.1016-2.1016 2.1016h-6.4141c-1.1602 0-2.1016-0.94141-2.1016-2.1016 0-1.1602 0.94141-2.1016 2.1016-2.1016zm-28.473-12.859c0-1.1602 0.94141-2.1016 2.1016-2.1016h2.8086c1.1602 0 2.1016 0.94141 2.1016 2.1016s-0.94141 2.1016-2.1016 2.1016h-2.8086c-1.1602 0-2.1016-0.94141-2.1016-2.1016zm-4.2656 19.02h2.8047c1.1602 0 2.1016 0.94141 2.1016 2.1016 0 1.1602-0.94141 2.1016-2.1016 2.1016h-2.8047c-1.1602 0-2.1016-0.94141-2.1016-2.1016 0-1.1602 0.94141-2.1016 2.1016-2.1016zm197.48 0.70312c0 1.1602-0.94141 2.1016-2.1016 2.1016h-6.4141c-1.1602 0-2.1016-0.94141-2.1016-2.1016s0.94141-2.1016 2.1016-2.1016h6.4141c1.1641 0 2.1016 0.94141 2.1016 2.1016zm-36.984-14.957c0-1.1602 0.94141-2.1016 2.1016-2.1016h2.8047c1.1602 0 2.1016 0.94141 2.1016 2.1016 0 1.1602-0.94141 2.1016-2.1016 2.1016h-2.8047c-1.1602-0.003906-2.1016-0.94531-2.1016-2.1016zm-32.445 17.258c1.1602 0 2.1016 0.94141 2.1016 2.1016s-0.94141 2.1016-2.1016 2.1016h-6.4141c-1.1602 0-2.1016-0.94141-2.1016-2.1016s0.94141-2.1016 2.1016-2.1016zm-34.887-12.859c0-1.1602 0.94141-2.1016 2.1016-2.1016h2.8086c1.1602 0 2.1016 0.94141 2.1016 2.1016s-0.94141 2.1016-2.1016 2.1016h-2.8086c-1.1602-0.003907-2.1016-0.94141-2.1016-2.1016zm245.7 141.79c0.054688 1.1602-0.83594 2.1484-1.9922 2.2109l-6.0938 0.30469c-0.039063 0.003906-0.078125 0.003906-0.10938 0.003906-1.1094 0-2.0391-0.87109-2.1016-1.9922-0.054688-1.1602 0.83594-2.1484 1.9922-2.2031l6.0938-0.3125c1.4219-0.10547 2.1484 0.83594 2.2109 1.9883zm21.766-24.922c1.3281-0.03125 2.1445 0.84375 2.2031 1.9961 0.054688 1.1602-0.83594 2.1445-1.9961 2.2031l-2.668 0.13281h-0.10547c-1.1172 0-2.0391-0.875-2.1016-1.9961-0.054688-1.1602 0.83594-2.1445 1.9961-2.2031zm9.8086 32.273c0.054688 1.1602-0.83594 2.1445-1.9961 2.2031l-2.668 0.13281h-0.10547c-1.1172 0-2.0391-0.875-2.1016-1.9961-0.054688-1.1602 0.83594-2.1445 1.9961-2.2031l2.668-0.13281c1.3828 0.027344 2.1406 0.83984 2.207 1.9961zm26.988-12.344c0.054688 1.1602-0.83594 2.1484-1.9922 2.2031l-6.0977 0.3125c-0.039063 0.003906-0.078125 0.003906-0.10938 0.003906-1.1094 0-2.0391-0.87109-2.0938-1.9922-0.058594-1.1602 0.83203-2.1484 1.9844-2.2109l6.0977-0.30469c1.3438-0.16016 2.1523 0.83203 2.2109 1.9883zm24.344-15.492c0.058594 1.1602-0.83203 2.1484-1.9844 2.2031l-2.668 0.13672c-0.039063 0.003907-0.078125 0.003907-0.10938 0.003907-1.1094 0-2.0391-0.87109-2.0938-1.9922-0.058594-1.1602 0.83203-2.1484 1.9844-2.2031l2.668-0.13672c1.3711-0.19531 2.1484 0.83203 2.2031 1.9883zm-212.97 24.227c1.125-0.14844 2.1484 0.82422 2.2031 1.9844 0.058594 1.1602-0.83203 2.1484-1.9922 2.2031l-6.0977 0.3125c-0.035157 0.003906-0.070313 0.003906-0.10938 0.003906-1.1094 0-2.0352-0.87109-2.0938-1.9922-0.058593-1.1602 0.83203-2.1484 1.9922-2.2109zm21.477-19.414 2.668-0.13281c1.1523-0.054687 2.1445 0.83594 2.1992 1.9961 0.058594 1.1602-0.83594 2.1445-1.9922 2.2031l-2.668 0.13281h-0.10547c-1.1094 0-2.0391-0.875-2.0938-1.9961-0.058593-1.1602 0.83203-2.1445 1.9922-2.2031zm5.3711 27.688c-0.058593-1.1602 0.83594-2.1445 1.9922-2.2031l2.6641-0.13281c1.1055 0.015625 2.1484 0.84375 2.1992 1.9961 0.058594 1.1602-0.83594 2.1445-1.9922 2.2031l-2.6641 0.13281h-0.10547c-1.1094 0-2.0391-0.875-2.0938-1.9961zm64.078-30.254c0.058593 1.1602-0.83203 2.1484-1.9844 2.2031l-6.0977 0.3125c-0.039062 0.003906-0.078125 0.003906-0.10938 0.003906-1.1094 0-2.0391-0.87109-2.1016-1.9922-0.054688-1.1602 0.83594-2.1484 1.9922-2.2109l6.0977-0.30469c1.4102-0.15625 2.1484 0.83594 2.2031 1.9883zm-40.512-21.574 2.668-0.13672c1.1172-0.097656 2.1484 0.82422 2.2031 1.9844 0.058594 1.1602-0.83203 2.1484-1.9922 2.2031l-2.668 0.13672c-0.035156 0.003907-0.070312 0.003907-0.10938 0.003907-1.1094 0-2.0352-0.87109-2.0938-1.9922-0.058593-1.1562 0.83594-2.1445 1.9922-2.1992zm-58.324-2.4297 6.0977-0.30469c1.1328-0.125 2.1484 0.82422 2.2031 1.9844 0.058594 1.1602-0.83203 2.1484-1.9922 2.2031l-6.0977 0.3125c-0.035157 0.003906-0.070313 0.003906-0.10938 0.003906-1.1094 0-2.0352-0.87109-2.0938-1.9922-0.058593-1.1562 0.83594-2.1445 1.9922-2.207zm-26.129 21.75c-0.058594-1.1602 0.83203-2.1484 1.9922-2.2031l2.6641-0.13672c1.1406-0.15234 2.1484 0.82422 2.2031 1.9844 0.058593 1.1602-0.83203 2.1484-1.9922 2.2031l-2.6641 0.13672c-0.035157 0.003906-0.070313 0.003906-0.10938 0.003906-1.1094 0.003906-2.0352-0.86719-2.0938-1.9883zm-5.3711-27.688 2.6641-0.13672c1.1211-0.097656 2.1484 0.82422 2.2031 1.9844 0.058593 1.1602-0.83203 2.1484-1.9922 2.2031l-2.6641 0.13672c-0.035157 0.003906-0.070313 0.003906-0.10938 0.003906-1.1094 0-2.0352-0.87109-2.0938-1.9922-0.058593-1.1562 0.83203-2.1445 1.9922-2.1992zm24.188 39.453c0.058594 1.1602-0.83203 2.1484-1.9922 2.2109l-6.0977 0.30469c-0.035156 0.003906-0.070312 0.003906-0.10938 0.003906-1.1094 0-2.0352-0.87109-2.0938-1.9922-0.058593-1.1602 0.83203-2.1484 1.9922-2.2031l6.0977-0.3125c1.0781-0.12891 2.1406 0.82812 2.2031 1.9883zm-39.719-5.9531 2.668-0.13672c1.0625-0.13281 2.1484 0.82422 2.2031 1.9844 0.058594 1.1602-0.83203 2.1484-1.9922 2.2031l-2.668 0.13672c-0.035157 0.003906-0.070313 0.003906-0.10938 0.003906-1.1094 0-2.0352-0.87109-2.0938-1.9922-0.058593-1.1523 0.83203-2.1445 1.9922-2.1992zm-64.441-5.457 2.6641-0.13672c1.1133-0.085937 2.1484 0.82422 2.2031 1.9844 0.058594 1.1602-0.83203 2.1484-1.9922 2.2031l-2.6641 0.13672c-0.035156 0.003906-0.070312 0.003906-0.10938 0.003906-1.1094 0-2.0352-0.87109-2.0938-1.9922-0.058594-1.1523 0.83203-2.1445 1.9922-2.1992zm244.13-2.3281 6.0977-0.3125c1.3828-0.17578 2.1484 0.83203 2.2109 1.9844 0.054688 1.1602-0.83594 2.1484-1.9922 2.2109l-6.0977 0.30469c-0.039062 0.003906-0.078125 0.003906-0.10938 0.003906-1.1094 0-2.0391-0.87109-2.0938-1.9922-0.0625-1.1562 0.82812-2.1445 1.9844-2.1992zm-24.348 15.488 2.668-0.13672c1.3438-0.12109 2.1484 0.83203 2.2031 1.9844 0.058594 1.1602-0.83203 2.1484-1.9844 2.2031l-2.668 0.13672c-0.039062 0.003906-0.078125 0.003906-0.10938 0.003906-1.1094 0-2.0391-0.87109-2.0938-1.9922-0.0625-1.1562 0.83203-2.1445 1.9844-2.1992zm-31.562-14.75c0.058594 1.1602-0.83203 2.1484-1.9922 2.2031l-6.0938 0.3125c-0.035156 0.003906-0.070312 0.003906-0.10937 0.003906-1.1094 0-2.0352-0.87109-2.0938-1.9922-0.058594-1.1602 0.83203-2.1484 1.9922-2.2109l6.0938-0.30469c1.0977-0.089844 2.1445 0.82812 2.2031 1.9883zm-34.637 16.023c-0.058593-1.1602 0.83203-2.1484 1.9922-2.2031l2.668-0.13672c1.0625-0.09375 2.1484 0.82422 2.2031 1.9844 0.058594 1.1602-0.83203 2.1484-1.9922 2.2031l-2.668 0.13672c-0.035156 0.003907-0.070312 0.003907-0.10938 0.003907-1.1094 0-2.0352-0.86719-2.0938-1.9883z"/>
 </g>
</svg>
