<?xml version="1.0" encoding="UTF-8"?>
<svg width="700pt" height="700pt" version="1.1" viewBox="0 0 700 700" xmlns="http://www.w3.org/2000/svg" xmlns:xlink="http://www.w3.org/1999/xlink">
 
 <g fill="white" >
  <path d="m406.99 35c-4.5703-0.003906-9.0234 1.4297-12.727 4.1016-3.707 2.6719-6.4766 6.4414-7.918 10.777l-1.7969 5.3867c-0.42969 1.2891-1.1523 2.4609-2.1133 3.4219l-2.5625 2.5625h48.875v-4.4922c-0.007812-5.7656-2.3008-11.297-6.3789-15.379-4.082-4.0781-9.6133-6.3711-15.379-6.3789z"/>
  <path d="m368.94 140.81 32.488 64.973 25.441 42.41 82.18-44.25 6.8477-20.543-7.8398-31.355-29.758-52.074-5.7969 0.72656v48.055c0 3.5781-2.1797 6.7969-5.5 8.125l-43.75 17.5c-3.25 1.3008-6.9609 0.53906-9.4375-1.9375l-36.93-36.93z"/>
  <path d="m333.69 341.57 153.89-88.785-8.5391-12.812-154.55 83.219z"/>
  <path d="m573.13 174.51 4.1602-41.609-9.2383-18.477-16.527 27.547 3.582 32.227-22.75 15.168-7.8008 23.402h-0.003907c-0.70312 2.1172-2.1914 3.8828-4.1523 4.9375l-25.875 13.934 8.2539 12.379 26.602-15.344c1.9648-1.1367 4.293-1.4609 6.4922-0.91016l31.859 7.9648 24.902-12.453z"/>
  <path d="m533.75 385v-63.297l-28.812 17.285-21.812 32.719 14.707 44.125 83.977 109.17h8.875l-56.273-136.67c-0.4375-1.0586-0.66016-2.1875-0.66016-3.332z"/>
  <path d="m428.75 96.25v-17.5h-35v17.5c0 6.2539 3.3359 12.031 8.75 15.156s12.086 3.125 17.5 0 8.75-8.9023 8.75-15.156z"/>
  <path d="m494.25 325 39.504-23.699v-54.945l-97.555 56.281-33.789 92.922-8.0938 129.45h10.336l33.188-116.16c0.25-0.86719 0.63281-1.6953 1.1328-2.4453l52.5-78.75c0.71875-1.0781 1.668-1.9844 2.7773-2.6523z"/>
  <path d="m348.04 154.74-21.586 43.172 32.684 19.609 22.879-11.438-27.75-55.496z"/>
  <path d="m315.19 220.44 7.6172 83.785 11.281-6.0742 14.754-66.391-30.238-18.145z"/>
  <path d="m292.9 340.2c-3.4023 1.832-7.6016 1.2188-10.336-1.5156l-21.523-21.523-8.8477 5.0547c-27.941 15.883-48.512 42.121-57.273 73.039l-0.81641 2.8633c34.637 17.375 75.441 17.375 110.08 0.003906l0.625-0.3125-7.0469-28.191c-0.94922-3.7891 0.73047-7.75 4.1172-9.6992l16.629-9.5938-9.418-18.84z"/>
  <path d="m497.11 97.617 23.18 40.562 16.371-5.457 17.805-29.676-47.043-6.7188z"/>
  <path d="m321.41 494.17c-11.02 1.5898-22.262-0.11328-32.312-4.8984-10.055-4.7852-18.469-12.438-24.184-21.988l-3.332-5.5547c-3.5273-5.875-8.5352-10.719-14.523-14.051l-49.176-27.32 0.003907 0.003906c-9.5742-5.3047-20.934-6.3633-31.32-2.9102l-13.762 4.5859c-14.227 4.7852-29.773 3.6797-43.18-3.0703l-4.625-2.3125v108.34h263.65l-9.2148-13.828c-4.1055-6.1172-9.8477-10.953-16.57-13.961-6.7227-3.0078-14.156-4.0586-21.453-3.0391z"/>
  <path d="m391.73 125.61 30.371 30.375 32.895-13.156v-39.945l-9.6445 1.207v-0.003906c-2.5625 11.184-10.441 20.398-21.094 24.66-10.652 4.2617-22.715 3.0312-32.281-3.3008z"/>
 
 </g>
</svg>
