<?xml version="1.0" encoding="UTF-8"?>
<svg stroke="white"  width="700pt" height="700pt" version="1.1" viewBox="0 0 700 700" xmlns="http://www.w3.org/2000/svg" xmlns:xlink="http://www.w3.org/1999/xlink">
 <g fill="white" >
  <path d="m140 175h87.5v-35h17.5v43.75c0 4.832 3.918 8.75 8.75 8.75s8.75-3.918 8.75-8.75 3.918-8.75 8.75-8.75 8.75 3.918 8.75 8.75v35c0 4.832 3.918 8.75 8.75 8.75s8.75-3.918 8.75-8.75v-96.25h-157.5z"/>
  <path d="m350 393.75h26.25v-83.555l-26.25 5.6289z"/>
  <path d="m201.25 271.25h35v17.5h-35z"/>
  <path d="m201.25 393.75h35v17.5h-35z"/>
  <path d="m227.5 498.75v-70h-35c-4.832 0-8.75-3.918-8.75-8.75v-26.25c-2.9883-0.027344-5.9492-0.57422-8.75-1.6094v103.02c-0.015625 7.9141 3.1367 15.508 8.75 21.086 5.1289 5.1523 11.988 8.2148 19.25 8.5938 6.6367-0.41406 12.871-3.3438 17.422-8.1914 4.5547-4.8477 7.0859-11.25 7.0781-17.902z"/>
  <path d="m498.75 43.75c-7.582-5.6641-16.785-8.7344-26.25-8.75h-70c-11.602 0-22.73 4.6094-30.938 12.812-8.2031 8.207-12.812 19.336-12.812 30.938v26.25h157.5v-26.25c-0.035156-13.762-6.5117-26.715-17.5-35z"/>
  <path d="m183.75 306.25h52.5c4.832 0 8.75 4.832 8.75 8.75v52.5c0 4.832-3.918 8.75-8.75 8.75h-52.5c-4.832 0-8.75-4.832-8.75-8.75v-52.5c0-4.832 3.918-8.75 8.75-8.75z"/>
  <path d="m360.78 134.75c1.9609 2.4727 4.5547 4.3711 7.5039 5.4961 2.9492 1.1211 6.1484 1.4297 9.2617 0.89062l23.992-4v0.003906c23.809-3.9844 48.113-3.9844 71.922 0l23.992 4v-0.003906c5.3477 0.88672 10.805-0.71094 14.828-4.3359 4.0273-3.6289 6.1797-8.8906 5.8516-14.301h-161.27c-0.29688 4.4336 1.1016 8.8125 3.9141 12.25z"/>
  <path d="m472.5 297.5v-14.246c-9.0547 3.5859-18.699 5.4531-28.438 5.4961h-13.125c-9.7383-0.046875-19.383-1.9141-28.438-5.5039v14.254c0 12.504 6.6719 24.059 17.5 30.312 10.828 6.25 24.172 6.25 35 0 10.828-6.2539 17.5-17.809 17.5-30.312z"/>
  <path d="m393.75 326.46v67.289h87.5v-67.289c-9.7031 14.695-26.141 23.539-43.75 23.539s-34.047-8.8438-43.75-23.539z"/>
  <path d="m380.42 158.38c-4.2852 0.71484-8.6641 0.63672-12.922-0.22656v34.352c-0.015625 10.895 1.332 21.746 4.0156 32.305 3.3359 13.246 10.984 25 21.746 33.414 10.762 8.4102 24.02 12.996 37.676 13.031h13.125c11.504 0.027344 22.773-3.2266 32.488-9.3906 1.7578-1.0508 3.4453-2.2227 5.0508-3.5 10.824-8.4102 18.523-20.199 21.875-33.492 2.6914-10.578 4.043-21.453 4.0234-32.367v-34.387c-2.2812 0.48438-4.6055 0.74219-6.9375 0.76953-2.0039-0.003906-4.0039-0.16797-5.9766-0.5l-5.3828-0.875c1.5938 4.3711 0.75391 9.2539-2.207 12.844-2.957 3.5859-7.5938 5.3398-12.188 4.6094-4.5938-0.73047-8.4531-3.8359-10.156-8.1641-1.6992-4.3281-0.98047-9.2344 1.8906-12.895-19.254-2.8086-38.812-2.8086-58.066 0 2.8672 3.6602 3.5859 8.5664 1.8867 12.895s-5.5625 7.4336-10.156 8.1641c-4.5898 0.73047-9.2266-1.0234-12.188-4.6094-2.957-3.5898-3.7969-8.4727-2.207-12.844zm39.578 42.875h10.246c10.207 0.0625 20.25-2.5469 29.129-7.5781l8.75 15.156c-11.539 6.5664-24.602 9.9883-37.879 9.9219h-10.246z"/>
  <path d="m525 525v-113.75h-175v113.75h17.5v-52.5c0-4.832 3.918-8.75 8.75-8.75h122.5c2.3203 0 4.5469 0.92188 6.1875 2.5625s2.5625 3.8672 2.5625 6.1875v52.5zm-140-78.75h-17.5v-17.5h17.5zm105 0v-17.5h17.5v17.5z"/>
  <path d="m253.75 402.69v17.309c0 2.3203-0.92188 4.5469-2.5625 6.1875s-3.8672 2.5625-6.1875 2.5625v62.789l43.418-57.094z"/>
  <path d="m525 148.75v35c6.2539 0 12.031-3.3359 15.156-8.75s3.125-12.086 0-17.5-8.9023-8.75-15.156-8.75z"/>
  <path d="m557.43 317.19-14.926-2.125v104.94h52.5v-59.5c-0.066406-10.516-3.8867-20.66-10.777-28.602-6.8906-7.9453-16.395-13.16-26.797-14.711z"/>
  <path d="m542.5 437.5h52.5v87.5h-52.5z"/>
  <path d="m525 312.59-26.25-3.7461v84.91h26.25z"/>
  <path d="m350 183.75v-34.93c-6.2539 0-12.031 3.3359-15.156 8.75-3.125 5.4141-3.125 12.086 0 17.5 3.125 5.4141 8.9023 8.75 15.156 8.75z"/>
  <path d="m385 481.25h105v43.75h-105z"/>
  <path d="m316.79 397.2c1.6562-2.1719 4.2266-3.4492 6.957-3.4492h8.75v-74.191l-31.344 6.7109c-15.715 3.4141-29.473 12.836-38.34 26.25l-0.31641 0.5v14.48c-0.003906 5.4023-1.6875 10.668-4.8203 15.066l41.379 37.895z"/>
  <path d="m210 192.5h17.5v61.25h-17.5z"/>
 </g>
</svg>
