<?xml version="1.0" encoding="UTF-8"?>
<svg width="700pt" height="700pt" version="1.1" viewBox="0 0 700 700" xmlns="http://www.w3.org/2000/svg" xmlns:xlink="http://www.w3.org/1999/xlink">
 
 <g fill="white">
  <path d="m315 236.25c0 4.832-3.918 8.75-8.75 8.75s-8.75-3.918-8.75-8.75 3.918-8.75 8.75-8.75 8.75 3.918 8.75 8.75"/>
  <path d="m402.5 236.25c0 4.832-3.918 8.75-8.75 8.75s-8.75-3.918-8.75-8.75 3.918-8.75 8.75-8.75 8.75 3.918 8.75 8.75"/>
  <path d="m350 8.75c-149.56 0-271.25 121.69-271.25 271.25s121.69 271.25 271.25 271.25 271.25-121.69 271.25-271.25-121.69-271.25-271.25-271.25zm8.75 26.25c0 4.8203-3.9297 8.75-8.75 8.75s-8.75-3.9297-8.75-8.75 3.9297-8.75 8.75-8.75 8.75 3.9297 8.75 8.75zm38.387 342.1 22.602 4.5234c-1.2148 12.555-6.6953 24.211-15.734 33.25l-2.3281 2.3281-23.355-17.516zm-12.137-12.766-35 42-35-42v-12.266c10.867 4.2617 22.645 6.6836 35 6.6836s24.133-2.4219 35-6.6836zm-82.137 12.766 18.812 22.574-23.355 17.516-2.3281-2.3281c-9.0391-9.0391-14.516-20.695-15.734-33.25zm47.137-35.848c-43.418 0-78.75-35.332-78.75-78.75v-61.477c7.332 5.5547 16.363 8.9766 26.25 8.9766h105c9.8867 0 18.918-3.4219 26.25-8.9766v61.477c0 43.418-35.332 78.75-78.75 78.75zm-96.25-80.359c-10.16-3.6211-17.5-13.246-17.5-24.641 0-11.391 7.3398-21.016 17.5-24.641zm210-59.414c-5.1094-3.8672-11-6.7656-17.5-8.0859v-18.391h17.5zm-227.5-26.477h17.5v18.383c-6.5 1.3281-12.391 4.2188-17.5 8.0859zm36.609 0h154.27c-3.6211 10.16-13.246 17.5-24.641 17.5h-104.99c-11.391 0-21.016-7.3398-24.641-17.5zm173.39 36.609c10.16 3.6211 17.5 13.246 17.5 24.641 0 11.391-7.3398 21.016-17.5 24.641zm-208.51-54.109c8.4609-54.426 55.5-96.25 112.26-96.25s103.8 41.824 112.26 96.25zm-141.49 122.5c0-131.48 100.51-239.89 228.73-252.51-0.71875 2.3984-1.2266 4.8828-1.2266 7.5078 0 3.9453 0.9375 7.6562 2.5039 11.016-61.059 11.219-107.5 64.734-107.5 128.98v61.25c0 21.656 15.863 39.566 36.559 43.023 4.707 26.645 20.359 49.516 42.191 63.797v17.266l-89.039 17.816c-24.457 4.8711-42.211 26.527-42.211 51.465v25.105c-43.32-45.539-70-107.05-70-174.72zm166.25 238.19v-80.691h-17.5v73.414c-22.34-10.203-42.938-23.527-61.25-39.453v-41.844c0-16.625 11.84-31.062 28.141-34.316l51.203-10.238c1.9336 15.926 9.0117 30.668 20.527 42.191l13.055 13.055 36.215-27.16 17.109 20.52 17.105-20.527 36.215 27.16 13.055-13.055c11.523-11.523 18.602-26.266 20.527-42.191l51.203 10.238c16.305 3.2617 28.145 17.699 28.145 34.324v41.844c-18.312 15.926-38.91 29.262-61.25 39.453v-73.414h-17.5v80.691c-27.293 10.055-56.762 15.559-87.5 15.559s-60.207-5.5039-87.5-15.559zm271.25-63.461v-25.105c0-24.938-17.754-46.594-42.203-51.477l-89.047-17.824v-17.266c21.832-14.27 37.477-37.152 42.191-63.797 20.695-3.4453 36.559-21.355 36.559-43.012v-61.25c0-64.25-46.445-117.77-107.5-128.98 1.5664-3.3594 2.5039-7.0703 2.5039-11.016 0-2.625-0.50781-5.1094-1.2266-7.5078 128.21 12.617 228.73 121.03 228.73 252.51 0 67.672-26.68 129.18-70 174.73z"/>
  <path d="m350 75.129-18.559 18.559c-4.9609 4.9531-7.6914 11.547-7.6914 18.566v1.4961c0 14.473 11.777 26.25 26.25 26.25s26.25-11.777 26.25-26.25v-1.4961c0-7.0078-2.7305-13.605-7.6914-18.566zm8.75 38.621c0 4.8203-3.9297 8.75-8.75 8.75s-8.75-3.9297-8.75-8.75v-1.4961c0-2.3359 0.91016-4.543 2.5625-6.1953l6.1875-6.1875 6.1875 6.1875c1.6523 1.6523 2.5625 3.8594 2.5625 6.1953z"/>
  <path d="m341.25 455h17.5v17.5h-17.5z"/>
  <path d="m341.25 498.75h17.5v17.5h-17.5z"/>
  <path d="m350 297.5c-9.6523 0-17.5-7.8477-17.5-17.5h-17.5c0 19.301 15.699 35 35 35s35-15.699 35-35h-17.5c0 9.6523-7.8477 17.5-17.5 17.5z"/>
  
 </g>
</svg>
