<?xml version="1.0" standalone="no"?>
<!DOCTYPE svg PUBLIC "-//W3C//DTD SVG 20010904//EN"
 "http://www.w3.org/TR/2001/REC-SVG-20010904/DTD/svg10.dtd">
<svg version="1.0" xmlns="http://www.w3.org/2000/svg"
 width="100.000000pt" height="100.000000pt" viewBox="0 0 100.000000 100.000000"
 preserveAspectRatio="xMidYMid meet">

<g transform="translate(0.000000,100.000000) scale(0.100000,-0.100000)"
fill="white" stroke="white">
<path d="M424 951 c-52 -13 -135 -64 -165 -100 -66 -81 -92 -191 -69 -292 27
-120 161 -358 270 -479 l40 -45 40 45 c60 67 153 205 198 295 64 128 76 170
76 265 0 72 -4 93 -26 136 -39 75 -70 107 -137 143 -65 34 -164 49 -227 32z
m136 -241 c0 -28 3 -30 35 -30 49 0 85 -54 85 -127 0 -44 -3 -53 -18 -53 -9 0
-23 -9 -30 -20 -7 -11 -21 -20 -32 -20 -11 0 -25 9 -32 20 -10 15 -24 20 -58
20 -34 0 -48 -5 -58 -20 -7 -11 -21 -20 -32 -20 -11 0 -25 9 -32 20 -7 11 -21
20 -30 20 -14 0 -18 8 -18 40 0 22 -4 40 -10 40 -5 0 -10 9 -10 20 0 16 7 20
30 20 28 0 30 -2 30 -40 l0 -40 70 0 70 0 0 80 0 80 -100 0 c-93 0 -100 1
-100 20 0 19 7 20 120 20 l120 0 0 -30z m-140 -50 c0 -17 -7 -20 -50 -20 -43
0 -50 3 -50 20 0 17 7 20 50 20 43 0 50 -3 50 -20z"/>
<path d="M560 590 l0 -50 40 0 c37 0 40 2 40 28 0 38 -26 72 -56 72 -22 0 -24
-4 -24 -50z"/>
</g>
</svg>
