<svg xmlns="http://www.w3.org/2000/svg" xmlns:xlink="http://www.w3.org/1999/xlink" viewBox="0 0 296.89 297.18"><defs><style>.cls-1{fill:none;}.cls-2{fill:#ebe2dd;}.cls-3{fill:#b3dee5;}.cls-4{fill:#fff;}.cls-5{fill:#d39d81;}.cls-6{fill:#f8ddbf;}.cls-7{fill:#233865;}.cls-8{fill:#077f93;}.cls-9{fill:#0093b7;}.cls-10{fill:#f96a57;}.cls-11{fill:#c9433d;}.cls-12{clip-path:url(#clip-path);}.cls-13{fill:#272525;}.cls-14{fill:#f7f4f2;}.cls-15{fill:#ad685c;}.cls-16{fill:#e25247;}</style><clipPath id="clip-path"><rect class="cls-1" x="271.02" y="68.2" width="25.87" height="38.88"/></clipPath></defs><g id="Layer_2" data-name="Layer 2"><g id="OBJECTS"><path class="cls-2" d="M280.86,77.1c-1.74-7.42-1-14.93-2.3-22.37a24.88,24.88,0,0,0-8.66-14.91c-7.25-6.08-15.47-6.59-24.24-8.14C236,30,230.78,23.16,223.52,17,209.79,5.45,187.6,5.61,177.69,22.57c-4.95,8.45-5.31,18.86-6.08,28.48q-.66,8.39-1.33,16.78c-.33,4.19-.11,9.71-3.66,12.51-3.21,2.54-7.8,2.24-11.31,4.25a22,22,0,0,0-8,8.44c-4.7,8.44-4.47,18.41-2.53,27.7l144.58-.14C292,105.44,284.2,91.36,280.86,77.1Z"/><path class="cls-3" d="M144.12,116.86c.18,8.12,2.31,19.21,9,25,5.12,4.39,14.17,6.51,21.4,6.85s14.51-.44,21.73.05a147.44,147.44,0,0,1,29.54,4.49c10.65,2.75,22.21,4.57,32.78,1.61a33.16,33.16,0,0,0,16.65-10.53c2.31-2.81,4-6,6.44-8.7s5.55-5,7.59-8,2.74-7,.19-9.67Z"/><rect class="cls-4" x="193.01" y="15.15" width="12.67" height="12.67"/><rect class="cls-4" x="207.68" y="15.15" width="12.67" height="12.67"/><rect class="cls-4" x="193.01" y="29.81" width="12.67" height="12.67"/><rect class="cls-4" x="207.68" y="29.81" width="12.67" height="12.67"/><path class="cls-5" d="M202.18,69.86a11.83,11.83,0,0,0-1.17-2.4c-1.1-2.27-2.33-4.24-3.39-6.37a17.48,17.48,0,0,1-5.78,4.08A34.56,34.56,0,0,0,195,70c.75.94.95,1.43,1.73,2.34A8,8,0,0,0,198.9,74a2,2,0,0,0,2.21-.89C201.57,72.34,202.36,70.69,202.18,69.86Z"/><rect class="cls-6" x="239.55" y="0.02" width="17.98" height="53.46"/><rect class="cls-6" x="223.14" width="17.98" height="115.66"/><rect class="cls-6" x="255.7" width="17.98" height="8.87"/><path class="cls-7" d="M272.56,119.05a8.83,8.83,0,0,0-.13-2.75,10.84,10.84,0,0,1-.12-2.24c-.88,0-2.34,0-3.22,0a1.93,1.93,0,0,1-.74,1.86,5,5,0,0,1-1.68.7,2.58,2.58,0,0,0-1.53,1.06,1.45,1.45,0,0,0-.22.71,5.19,5.19,0,0,0,.05.68Z"/><path class="cls-8" d="M269.45,78.61a43.3,43.3,0,0,0,.44-5.67,11.15,11.15,0,0,0-.79-4.09h-8.71a82.38,82.38,0,0,0,1.8,23.68c1.62,7.85,4,15.52,6.39,23.17l4.49-1.64C270.43,102.42,268.21,90.48,269.45,78.61Z"/><path class="cls-7" d="M263.6,123.13a8.77,8.77,0,0,0-.13-2.74,10.21,10.21,0,0,1-.11-2.24c-.89,0-2.35,0-3.23,0a2,2,0,0,1-.73,1.86,5.09,5.09,0,0,1-1.69.7,2.54,2.54,0,0,0-1.53,1.06,1.52,1.52,0,0,0-.22.71,4.91,4.91,0,0,0,0,.67Z"/><path class="cls-9" d="M256.4,68.85a86.83,86.83,0,0,0,0,31.82c1.19,6.43,3.12,12.84,2.67,19.35l5.45-.54a117.88,117.88,0,0,1,.56-32.33c1-6.08,2.38-12.38.68-18.3Z"/><path class="cls-5" d="M271.34,46a7.71,7.71,0,0,0-2.07-1.82c-6-4.21-10.93-8.35-15.13-14.37,0-.39-.36-1.93-.37-2.32a1,1,0,0,0-.05-.38,1.34,1.34,0,0,0-.22-.31,3.81,3.81,0,0,1-.24-.32c-.09-.28-.19-.57-.29-.85a1.07,1.07,0,0,0-.18-.39,1.23,1.23,0,0,0-.58-.35l-.28-.1L250.5,23.4a.61.61,0,0,0-.29.64.17.17,0,0,1,0,.05l-.4-.15a1.09,1.09,0,0,0,.52.89,4.35,4.35,0,0,0,.81.3l0,0c.05.05.09.12.14.18a3.75,3.75,0,0,1-1-.18,1,1,0,0,0,.54.77,5.15,5.15,0,0,0,.93.33l.12,0a.08.08,0,0,1,0,.05,2.43,2.43,0,0,1,.22.87,1.08,1.08,0,0,1-.3.82.72.72,0,0,1-.83.11,1.73,1.73,0,0,1-.47-.65,1.8,1.8,0,0,0-1.51-.86.47.47,0,0,0-.41.16.34.34,0,0,0,0,.34.85.85,0,0,0,.23.27,4.53,4.53,0,0,1,.94.79c.23.34.27.78.52,1.1s.58.43.84.68.44.66.8.78h0c3.63,7.82,9,14.19,15,17.73a6,6,0,0,0,2.35,1,2.34,2.34,0,0,0,2.24-.9A2.42,2.42,0,0,0,271.34,46Z"/><path class="cls-5" d="M262.9,41.83l6,2.21a47.35,47.35,0,0,1-.34-6.06c-1.2-.31-3,.06-4.15-.24Z"/><path class="cls-5" d="M265.4,29.65a1.7,1.7,0,0,0-1.18.06,2.38,2.38,0,0,0-.78,1c-.24.43-.54.84-.78,1.27a12.15,12.15,0,0,0-1.09,4.86,1.69,1.69,0,0,0,.16,1.07,1.58,1.58,0,0,0,.86.51,10.67,10.67,0,0,0,3.85.43,1.77,1.77,0,0,0,1.13-.38,1.83,1.83,0,0,0,.38-.63,11.82,11.82,0,0,0,1-3.22,4.75,4.75,0,0,0-.69-3.24A4.67,4.67,0,0,0,265.4,29.65Z"/><path class="cls-7" d="M270.27,30.77c-.27-.16-1.15-1.17-1.41-1.35a3.32,3.32,0,0,0-2.75-.62c-.93.26-.87,1.46-1.39,3.92.49-.51.79-.95,1-.84a.71.71,0,0,1,.35.66,2.14,2.14,0,0,1-.2.78,1.61,1.61,0,0,1-.31.56.61.61,0,0,1-.66.08,2.83,2.83,0,0,0,.49,2.77,9,9,0,0,0,2.23,2.16,5.74,5.74,0,0,0,2.69-2.13,5.63,5.63,0,0,0,1.19-3.91c-.08-.7.17-1.13-.37-1.55A7.9,7.9,0,0,0,270.27,30.77Z"/><path class="cls-10" d="M262.12,28.53a1.73,1.73,0,0,1-.48-.67.58.58,0,0,1,.27-.71.84.84,0,0,1,.65.11,17.74,17.74,0,0,1,3.27,2.08,5,5,0,0,0-1.34,1.56Z"/><path class="cls-11" d="M271.28,30.14a3.23,3.23,0,0,1,1.2,2c.08,1.22-1,2.74-1.44,3.87a25,25,0,0,1-6.61-5.06,1.62,1.62,0,0,1-.52-.9,1.37,1.37,0,0,1,.65-1.17c1-.76,2.15-1.45,3.32-1A11.22,11.22,0,0,1,271.28,30.14Z"/><path class="cls-10" d="M264.63,41.34a34.64,34.64,0,0,1,6,3.27A7.68,7.68,0,0,1,272.33,46a5.17,5.17,0,0,1,.88,4.28c-.59,3.09-2.92,6.25-2.94,9.39,0,4.89-.89,7.11.27,10.92-4.86,1.35-10.7,1.18-15.73,1.46.4-5.21.48-9.46.53-14.69s1-10.72,4.42-14.72A4.47,4.47,0,0,1,262.08,41,4.61,4.61,0,0,1,264.63,41.34Z"/><path class="cls-11" d="M262.77,45.21a3.17,3.17,0,0,1,.92,1.9,10.48,10.48,0,0,1-1,5.93c-.82,1.86-1.9,3.61-2.68,5.49-1.72,4.14-1.78,9-2.48,13.42-.82.17-1.77.1-2.58.28a143.78,143.78,0,0,1,1.41-20.85,15,15,0,0,1,.87-3.43,5.87,5.87,0,0,1,2.18-2.73A2.91,2.91,0,0,1,262.77,45.21Z"/><polygon class="cls-7" points="249.5 34.81 248.5 34.81 248.5 5.95 258.05 3.28 258.05 2.19 257 2.19 257 1.19 259.05 1.19 259.05 4.03 249.5 6.71 249.5 34.81"/><rect class="cls-9" x="240.46" y="0.44" width="16.84" height="2.44"/><path class="cls-7" d="M250,41.34a8.64,8.64,0,0,0-.68,2.38,1,1,0,0,1-.37-.66,7.79,7.79,0,0,0-.69-1.69c-.17-.31-.36-.6-.54-.89a6.5,6.5,0,0,1-.88-2,2.76,2.76,0,0,1,.34-2.12,1.79,1.79,0,0,1,1.92-.76.21.21,0,0,1,.12.07c0,.06,0,.15,0,.23s.21.35.4.41a1.24,1.24,0,0,1,.57.26c.19.22.11.57,0,.85a.4.4,0,0,0,0,.26c0,.19.29.25.4.42a.52.52,0,0,1,0,.51c-.08.16-.2.3-.27.47-.21.48.05,1,0,1.56A2.61,2.61,0,0,1,250,41.34Z"/><rect class="cls-10" x="248.12" y="33.62" width="1.94" height="9.26" rx="0.96"/><path class="cls-10" d="M256.48,53.55c.89-.65,1.76-1.31,2.6-2a12.88,12.88,0,0,0,3.58-4.2,5.45,5.45,0,0,0-.15-5.31,2,2,0,0,0-1.21-.91c-.82-.15-1.55.52-2.13,1.13-2.18,2.31-4.11,3.45-6.22,5.45C252.88,50.34,254.34,52.2,256.48,53.55Z"/><path class="cls-5" d="M253,47.69c-.33.31-.65.63-1,1-.49-2.69-1.2-4.44-1.57-7,0,0,.06-.67.06-.68a2,2,0,0,0,.31-1.65c-.1-.32-.28-.61-.4-.92a1.11,1.11,0,0,1,0-1,2.16,2.16,0,0,1,.36-.38,1.81,1.81,0,0,0,.51-1.28c0-.13,0-.28-.17-.3a.28.28,0,0,0-.15,0l-.49.24a2.15,2.15,0,0,0-.95.69c-.29.46-.24,1.13-.68,1.43a.23.23,0,0,1-.16,0,.21.21,0,0,1-.12-.11,2.17,2.17,0,0,1-.38-.7.8.8,0,0,1,.07-.55l0-1.81-.25,0-1.38,1.6a.91.91,0,0,0-.11.16.53.53,0,0,0,0,.22c0,.67-.18.9-.17,1.58,0,.17.22.43.3.58.24.44.44.92.63,1.28-.08,2.78.17,5.92.34,8.58a26.69,26.69,0,0,0,1,5.9,2.67,2.67,0,0,0,3.86,1.53,44.44,44.44,0,0,0,4.06-2.61C254.34,52.2,252.88,50.34,253,47.69Z"/><path class="cls-10" d="M293.34,106.84c0-.58-4.09-1-9.15-1s-9.15.46-9.15,1v23.38c0,.57,4.1,1,9.15,1s9.15-.47,9.15-1Z"/><ellipse class="cls-7" cx="284.19" cy="107.26" rx="8.13" ry="0.88"/><g class="cls-12"><polygon class="cls-7" points="282.07 109.68 276.81 88.09 280.97 83.97 280.63 82.59 279.43 82.88 279.19 81.91 281.37 81.38 282.08 84.29 277.91 88.4 283.04 109.45 282.07 109.68"/><rect class="cls-10" x="272.31" y="81.26" width="7.36" height="3.81" transform="translate(-11.84 67.66) rotate(-13.69)"/><path class="cls-10" d="M284.82,118.36h0a1.08,1.08,0,0,1-1.31-.79l-1.95-8a1.07,1.07,0,0,1,.79-1.3h0a1.09,1.09,0,0,1,1.31.8l2,8A1.09,1.09,0,0,1,284.82,118.36Z"/><path class="cls-7" d="M296.05,73.38H278v4.77l8.85,2.27V104h1V80.41l8.2-2.27Zm-1,4-7.7,2.13L279,77.37v-3h16.05Z"/><rect class="cls-9" x="286.28" y="102.57" width="2.39" height="11.4" rx="1.18"/><rect class="cls-10" x="279.79" y="72.43" width="14.7" height="3"/><rect class="cls-7" x="275.36" y="94.31" width="7.97" height="6.78"/><rect class="cls-4" x="275.07" y="98.89" width="8.56" height="2.2"/><path class="cls-9" d="M283.89,100.82h-9.08v1.12a1.16,1.16,0,0,0,.63,1l1.83.94a2.15,2.15,0,0,1,1.17,2l-.37,8.45a1.27,1.27,0,0,0,1.27,1.32h0a1.26,1.26,0,0,0,1.26-1.32L280.2,106a2.17,2.17,0,0,1,1.15-2l1.92-1a1.17,1.17,0,0,0,.62-1Z"/></g><path class="cls-5" d="M187.19,49.31a1.22,1.22,0,0,0,0-.88,25.9,25.9,0,0,1-.65-5.9,12.91,12.91,0,0,1-5.73-.91,13.37,13.37,0,0,1-1.17,6.78,8.76,8.76,0,0,0,6.78,1.37A1.13,1.13,0,0,0,187.19,49.31Z"/><path class="cls-7" d="M186.79,46.51a37.82,37.82,0,0,1-.27-4,12.52,12.52,0,0,1-5.45-.81C181.43,45.26,183.14,47.73,186.79,46.51Z"/><path class="cls-5" d="M185.8,45.78a5,5,0,0,1-2.29-.42A6,6,0,0,1,181,43,9.61,9.61,0,0,1,180,38.77a5.22,5.22,0,0,1,.64-3.46,4.63,4.63,0,0,1,2.42-1.5,9.68,9.68,0,0,1,5-.16,2.05,2.05,0,0,1,1.17.59,4.71,4.71,0,0,1,.26,2.77c-.43,1.94.15,1.52.1,2.78a8.16,8.16,0,0,1-1.48,4.32C187.52,44.88,187.86,45.73,185.8,45.78Z"/><path class="cls-7" d="M180.22,39.16a9.13,9.13,0,0,0,.56,3.5c-.82-.26-1.15-1.73-1.34-2.56a7.65,7.65,0,0,1,0-2.57,1.17,1.17,0,0,1,.23-.66,1.07,1.07,0,0,1,.48-.26L182,36a15.41,15.41,0,0,1-.75,3.24,1.35,1.35,0,0,0-.2-.55.46.46,0,0,0-.52-.18C180.26,38.59,180.21,38.9,180.22,39.16Z"/><path class="cls-11" d="M186.84,31.18a14.58,14.58,0,0,0-4.12.09,4.23,4.23,0,0,0-2.28.92,3.82,3.82,0,0,0-1,2.55c-.06.94,0,1.88-.06,2.82,3.47-.91,7-1.82,10.59-1.34-.31-.71,0-1.78-.11-2.55a2.88,2.88,0,0,0-1.12-1.81A3.33,3.33,0,0,0,186.84,31.18Z"/><path class="cls-10" d="M190.32,37.58a2.34,2.34,0,0,0,.53.21c.19,0,.42-.06.46-.25a.52.52,0,0,0-.1-.39A4.59,4.59,0,0,0,188,35.22a9.57,9.57,0,0,0-3.83.35,7.39,7.39,0,0,0-2.48,1A13.73,13.73,0,0,0,184.05,38a4.54,4.54,0,0,0,2.69.33,14.21,14.21,0,0,0,1.76-.63A2.66,2.66,0,0,1,190.32,37.58Z"/><path class="cls-7" d="M187.22,142.6c-.34-.8.07-2.13.22-3a7.42,7.42,0,0,0,.18-2.44c1.47,0,3.89,0,5.36,0-.27.78.37,1.6,1.21,2a11.55,11.55,0,0,0,2.8.76,4.71,4.71,0,0,1,2.53,1.15,1.16,1.16,0,0,1,.36.77,3.55,3.55,0,0,1-.08.73Z"/><path class="cls-8" d="M178.74,82.11c.87,18.93,9.42,37.24,8.16,56.18l6.44-.36a323.51,323.51,0,0,0-2.52-55.82Z"/><path class="cls-7" d="M176.17,139.15c-.84-.43-1.48-1.24-1.22-2-1.47,0-3.88,0-5.35,0a7.64,7.64,0,0,1-.19,2.43c-.15.85-.55,2.18-.22,3h9.73a6.73,6.73,0,0,0-1.6-3A6.27,6.27,0,0,1,176.17,139.15Z"/><path class="cls-9" d="M173.4,82.11a1.19,1.19,0,0,0-.16.08,1.87,1.87,0,0,0-.52,1.24c-1.08,8.13-.18,16.39-.66,24.58-.58,9.85-3.17,19.54-3.11,29.4a22.51,22.51,0,0,0,6.45.32,420.09,420.09,0,0,0,10.76-55.62Z"/><path class="cls-10" d="M176.79,48a26.12,26.12,0,0,1,14.08.63,3.59,3.59,0,0,1,2.46,1.85,3.86,3.86,0,0,1-.11,2.15,73.54,73.54,0,0,0-.62,31.22A47.2,47.2,0,0,1,172,85.41q.15-9.85-.37-19.69c-.24-4.53-.58-9.17.73-13.52a6.12,6.12,0,0,1,1.8-3.11A6.45,6.45,0,0,1,176.79,48Z"/><path class="cls-11" d="M185,47.52a12.23,12.23,0,0,0-5.22.3,2,2,0,0,0-1.24,1,1.59,1.59,0,0,0,.26,1.55,3.51,3.51,0,0,0,1.29,1,8.68,8.68,0,0,0,3.58,1,5.72,5.72,0,0,0,3.55-1,3.35,3.35,0,0,0,1.29-1.64,1.41,1.41,0,0,0-.14-1.28,1.64,1.64,0,0,0-.8-.48A12.31,12.31,0,0,0,185,47.52Z"/><path class="cls-11" d="M171.45,60.54a3.42,3.42,0,0,1,.54-1.12l3.42-5.25a20.6,20.6,0,0,1-3,14.4c-.31-2.33-.62-4.65-.92-7A3.37,3.37,0,0,1,171.45,60.54Z"/><path class="cls-10" d="M175.33,48.39c-1.88.35-3.94,2.07-5.23,3.51a25.72,25.72,0,0,0-3.45,5.54c-.41.85-.79,1.7-1.16,2.55a12,12,0,0,1,7.14,2.48c.72-1.35,1.41-2.71,2.06-4.21A13.88,13.88,0,0,0,175.33,48.39Z"/><path class="cls-5" d="M158.26,87.68c-.26.58-.53,1.15-.8,1.73a1.76,1.76,0,0,0-.16.49,1.53,1.53,0,0,0,.22.8c.44.93.89,1.86,1.34,2.8a1.36,1.36,0,0,0,.29-1.22c-.12-.46-.48-.83-.6-1.29a2.67,2.67,0,0,1,.1-1.25c.13-.47.26-.94.4-1.41a.93.93,0,0,0,0-.52.34.34,0,0,0-.4-.25Z"/><path class="cls-5" d="M158.2,90.5A4.66,4.66,0,0,1,159.43,92a1.17,1.17,0,0,0,.17-1.13,5.37,5.37,0,0,0-.54-1.07,2,2,0,0,1-.31-1.14,2.87,2.87,0,0,0-.59.9Z"/><path class="cls-5" d="M172.56,62a11.64,11.64,0,0,0-6.89-2.39c-3.61,8.28-5.24,16.44-6.13,25.72-.44.57-.71,1.26-1.21,1.8a1.07,1.07,0,0,0-.27.37,1.49,1.49,0,0,0-.07.47,6,6,0,0,1-.16,1.19,6.3,6.3,0,0,0-.18.84,4.28,4.28,0,0,0,0,.62c.06.94.11,1.88.16,2.83a.75.75,0,0,0,.8-.34,1.44,1.44,0,0,0,.18-.89c0-.31-.1-.61-.11-.92a4.12,4.12,0,0,1,.34-1.69,2.89,2.89,0,0,1,.54-1,1.3,1.3,0,0,1,1-.46.85.85,0,0,1,.82.59,2.1,2.1,0,0,1-.13,1,2.2,2.2,0,0,0,.61,2,.57.57,0,0,0,.49.21.44.44,0,0,0,.3-.29.9.9,0,0,0,0-.43,5.91,5.91,0,0,1-.06-1.57c.08-.49.43-.91.48-1.4a9.32,9.32,0,0,0,.05-1.18,3,3,0,0,0-.34-2c1.28-5.7,3.35-10,5.63-15.06C169.83,66.85,171.24,64.44,172.56,62Z"/><path class="cls-10" d="M197.62,61.09a26.25,26.25,0,0,1-1.37-3.24c-1-3-1.95-6.2-4.06-8.6a10.34,10.34,0,0,0-2.88,7,16,16,0,0,0,1.75,7.45c.25.52.51,1,.78,1.5A17.48,17.48,0,0,0,197.62,61.09Z"/><path class="cls-5" d="M196.7,69.11a3,3,0,0,1,.84-2.57L205,56.37l2.83,1.47a108,108,0,0,1-4,10.65A14.41,14.41,0,0,1,201,72.87a2.4,2.4,0,0,1-2,.88,2.32,2.32,0,0,1-1.28-.88A6.9,6.9,0,0,1,196.17,68Z"/><path class="cls-5" d="M205.2,57.62c-.79-.25-1-1.22-1.13-2s1.51-1,.78-1.34c.2-1,.38-1.19.58-2.17,1.88.09.71-1.06,2.59-1-.23,1.94,1.3,3.46.68,5.31a5.64,5.64,0,0,1-1.92,3.13C205.79,58.8,205.87,58.66,205.2,57.62Z"/><rect class="cls-7" x="201.96" y="36.23" width="7.97" height="6.78"/><rect class="cls-4" x="201.66" y="40.81" width="8.56" height="2.2"/><path class="cls-10" d="M210.48,42.74H201.4v1.12a1.15,1.15,0,0,0,.63,1l1.83.94a2.17,2.17,0,0,1,1.17,2l-.37,8.45a1.26,1.26,0,0,0,1.27,1.31h0a1.25,1.25,0,0,0,1.25-1.32l-.42-8.38a2.16,2.16,0,0,1,1.16-2l1.91-1a1.15,1.15,0,0,0,.62-1Z"/><path class="cls-5" d="M205.22,53.91c0-.24-.07-.4.13-.55s.17-.31.37-.46a1.46,1.46,0,0,0,.44-2.18,6.07,6.07,0,0,1-2,1.56,3,3,0,0,0-.56,2.45,1.88,1.88,0,0,1,.46,1.1,4.68,4.68,0,0,0,.25,1.18,1.07,1.07,0,0,0,.92.68,1.13,1.13,0,0,0,.93-.9,2.15,2.15,0,0,0-.39-1.86C205.56,54.62,205.19,54.32,205.22,53.91Z"/><path class="cls-5" d="M209,54.54c.18,0-.46-1.35-.41-1.51a1.14,1.14,0,0,0,0-.52,4.08,4.08,0,0,0-.34-1.33,4.26,4.26,0,0,0-1.87-1.58c-.12-.06-.26-.13-.38-.07s-.16.26-.15.41a2,2,0,0,0,1,1.51.71.71,0,0,0-.47.6.74.74,0,0,0,.36.68,1,1,0,0,0,.25,1.44.59.59,0,0,0-.23.72,1.76,1.76,0,0,0,.49.66,1.72,1.72,0,0,1,.49.65C208.09,55.32,209.06,55.52,209,54.54Z"/><path class="cls-9" d="M171.81,80.51a3.4,3.4,0,0,0,2.34-2.09,10.12,10.12,0,0,0,.59-3.19c.25-3.21.49-6.42.74-9.62a89.8,89.8,0,0,0,15.28-1,28.36,28.36,0,0,0,.5,10.17,64.12,64.12,0,0,1,1.53,10.11A71.25,71.25,0,0,1,171.33,86,24.47,24.47,0,0,0,171.81,80.51Z"/><path class="cls-9" d="M176.41,66.74h1.86c.09-3.16.17-6.32-.05-9.47A33.15,33.15,0,0,0,176.4,48l-1.27.31C177,54.2,176.73,60.55,176.41,66.74Z"/><path class="cls-9" d="M190.18,66a46.84,46.84,0,0,0,.55-8.86V48.58l-1.11-.4q-.19,9.09-.84,18.16A2,2,0,0,1,190.18,66Z"/><path class="cls-7" d="M266.44,123.37c-.87-.05-2,.76-2.74,1.18a7.85,7.85,0,0,1-2.24,1c.43,1.4,1.29,3.66,1.72,5.07a1.84,1.84,0,0,1,2.31.49,11.28,11.28,0,0,1,1.62,2.39,4.7,4.7,0,0,0,1.92,2,1.16,1.16,0,0,0,.85.09,3.31,3.31,0,0,0,.66-.31Z"/><path class="cls-8" d="M249.77,96.24,238.51,99.1c1.11,1.29.7,3.24.25,4.87a217.79,217.79,0,0,0-5.06,23.41,5.58,5.58,0,0,0,5.91,6.42c7.95-.52,16-2,23.81-2.82.06-1.59-.39-4.82-.33-6.41-7.14.6-13.42.29-19.09.54.15-4.21,3.37-7.14,5.31-10.88a24.75,24.75,0,0,0,3.07-8.58A13.43,13.43,0,0,0,249.77,96.24Z"/><path class="cls-7" d="M268.91,126.33c-.87-.06-2,.76-2.75,1.18a7.61,7.61,0,0,1-2.24,1c.44,1.4,1.29,3.66,1.73,5.06a1.85,1.85,0,0,1,2.3.49,11.65,11.65,0,0,1,1.63,2.4,4.74,4.74,0,0,0,1.91,2,1.22,1.22,0,0,0,.85.09,4.12,4.12,0,0,0,.67-.32Z"/><path class="cls-9" d="M252.23,99.2,241,102.05c1.11,1.29.7,3.24.25,4.88a219.7,219.7,0,0,0-5.06,23.41,5.57,5.57,0,0,0,5.92,6.41c7.94-.52,16-2,23.81-2.82.06-1.59-.39-4.81-.33-6.4-7.15.59-13.43.29-19.1.53.15-4.2,3.38-7.14,5.31-10.87a24.82,24.82,0,0,0,3.07-8.58A13.43,13.43,0,0,0,252.23,99.2Z"/><path class="cls-5" d="M239,76.23a3,3,0,0,0-5.44-.56c-1.63,1.86-2.41,4.29-3.3,6.6a42,42,0,0,1-7.22,12.4,29.09,29.09,0,0,1-8.5,6.79,11.78,11.78,0,0,0-1.8-.66,5.66,5.66,0,0,0-2.16.17c-.27.06-.6.19-.6.47s.22.36.43.39.43,0,.64,0a1.59,1.59,0,0,1,.84.53,7.6,7.6,0,0,0-2.23.78,12.86,12.86,0,0,1-3,1.62c-.63.21-.39,1.27-.22,1.91s1,1,1.73,1.08a8.48,8.48,0,0,0,3.85-.13,7.84,7.84,0,0,0,3.13-2l.08,0c7.26-3.12,13.57-7.07,18.66-13.12a28.33,28.33,0,0,0,4.87-8.8C239.71,80.76,240.52,79,239,76.23Z"/><path class="cls-7" d="M227.37,98.13c4.76-3.81,10.43-13.12,4.61-20-.65,1.32-1.15,2.73-1.68,4.11a42,42,0,0,1-7.22,12.4,30.58,30.58,0,0,1-2.38,2.45C222.79,98.42,225.08,99.27,227.37,98.13Z"/><path class="cls-5" d="M229.43,66.89c.47-.09.1.65.34,1.06,1.34,2.27,5,4.52,6.63,5.78a16,16,0,0,1-6.74,4.64l-3.28-6.29c1-.76,1.34-4.08,2.37-4.84A1.7,1.7,0,0,1,229.43,66.89Z"/><path class="cls-5" d="M226.22,60.6a15.88,15.88,0,0,0-5.55.87c-.88.35-.55,3-.81,3.92-.13.47.6,1.09.66,1.58.17,1.35-.24,1.39.25,2.66A9.19,9.19,0,0,0,223.58,74c.9.83,3.36.18,4.15-.76a9,9,0,0,0,2-2.65,13.58,13.58,0,0,0,.65-5.3,5.39,5.39,0,0,0-1.18-3.48A4.62,4.62,0,0,0,226.22,60.6Z"/><path class="cls-7" d="M217.29,61.18l1,1.08a2.22,2.22,0,0,1-1.46.05,4,4,0,0,0,2.93,2.19,7.15,7.15,0,0,0,3.74-.42,3.94,3.94,0,0,1,1.56-.36,3.47,3.47,0,0,1,2.34,1.77c.26-.46.61-1,1.14-1a1.12,1.12,0,0,1,.93.69,2,2,0,0,1,.05,1.58c-.21.51-.65,1-.54,1.53.13.7,1.75.31,1.77,1,.19-2.69.94-3,.24-6-.1-.44-.08-1-.44-1.26s-.77-.25-1.07-.51-.33-.79-.5-1.19a2.09,2.09,0,0,0-1.4-1.12,5.66,5.66,0,0,0-1.84-.12,11,11,0,0,0-3.95.68c-.73.32-1.4.79-2.12,1.13A3.28,3.28,0,0,1,217.29,61.18Z"/><path class="cls-10" d="M226.34,75.45a5.81,5.81,0,0,1,4-3.18,11,11,0,0,1,8.52,1.45,18.35,18.35,0,0,1,6,6.44,55.52,55.52,0,0,1,3.64,8.1q2.43,6.33,4.88,12.64a35.38,35.38,0,0,1-15.48,4.8c-2.61-9.32-9.72-16.76-11.64-26.25A7.15,7.15,0,0,1,226.34,75.45Z"/><path class="cls-11" d="M231.59,90.37a4.7,4.7,0,0,1-1-2.17,4.84,4.84,0,0,1,.55-2.11l3.89-8.88a28.39,28.39,0,0,1,1.1,20.08Z"/><path class="cls-10" d="M234.89,78.83a6.42,6.42,0,0,0-3.1-5.27L229.88,73A6.25,6.25,0,0,0,226,77.14a20.16,20.16,0,0,0-.71,5.86c0,.51,0,1-.06,1.54a22.64,22.64,0,0,1,7.45,3.4c.39-1,.76-1.91,1.09-2.88A15.26,15.26,0,0,0,234.89,78.83Z"/><path class="cls-5" d="M199.62,87.64a1.52,1.52,0,0,0,1.06-.2,2.31,2.31,0,0,0,.7-.69A6.84,6.84,0,0,1,202,86a6.36,6.36,0,0,1,1.72-1.14,4.7,4.7,0,0,0,1.61-1.22c.08-.12.15-.28,0-.38a.49.49,0,0,0-.22-.09,1.73,1.73,0,0,0-1,.27c-.31.17-.57.39-.87.56s-.93.38-1.32.65a3.4,3.4,0,0,0-.85,1,16.19,16.19,0,0,1-1.45,1.81s-.09.12,0,.17A.2.2,0,0,0,199.62,87.64Z"/><path class="cls-7" d="M208.76,86.48a10.44,10.44,0,0,1-3.09-.3,7.76,7.76,0,0,0-3.73.48.38.38,0,0,1-.25,0,.17.17,0,0,1-.15-.16.46.46,0,0,1,.08-.21,4.78,4.78,0,0,1,2.75-2,5.86,5.86,0,0,1,3.64.12,17,17,0,0,0,2.69,1.19A5.73,5.73,0,0,1,208.76,86.48Z"/><path class="cls-5" d="M232.67,87.94a22.64,22.64,0,0,0-7.45-3.4,13.19,13.19,0,0,1-.85,4.28c-3.53-1.9-7.34-3-11.08-4.48l-2.95-1.55a27.22,27.22,0,0,1-3.6.29c-.39,0-.83-.12-1.22-.12a1.57,1.57,0,0,0-1.06.37c-.17.18-.43.37-.63.54a5.74,5.74,0,0,1-1.41,1A4.37,4.37,0,0,0,200.69,87c0,.08-.08.19,0,.26a.42.42,0,0,0,.35,0,1.91,1.91,0,0,0,1-.55,10.28,10.28,0,0,1,.8-1,4.81,4.81,0,0,1,2.67-1c.79,0,1.46,1.38,2.71,1.94a4.17,4.17,0,0,0,1.61.51,7.24,7.24,0,0,1,.93.11c.79.43,1.54.86,2.24,1.3l.42.34v-.07c4.2,2.69,7.21,5.59,11.43,8.88.78.61,2-.12,2.75-.58a6,6,0,0,0,2-2.62C230,94,233,88.16,232.67,87.94Z"/><path class="cls-8" d="M220,112.88c0-.59-4.21-1.07-9.41-1.07s-9.41.48-9.41,1.07v24.05c0,.59,4.21,1.07,9.41,1.07s9.41-.48,9.41-1.07Z"/><ellipse class="cls-7" cx="210.74" cy="113.25" rx="8.68" ry="0.83"/><path class="cls-7" d="M211.83,115.26l-.27.82a38.38,38.38,0,0,1-3,7.6,19.51,19.51,0,0,1-6.6,7.35,1.7,1.7,0,0,1-1.17.38,1,1,0,0,1-.6-.69,3.16,3.16,0,0,1,0-1.27,15.33,15.33,0,0,1,1.07-3.94v-2.24a20.1,20.1,0,0,0-2.06,6,4,4,0,0,0,0,1.68,1.92,1.92,0,0,0,1.31,1.39,1.51,1.51,0,0,0,.42.05,3,3,0,0,0,1.53-.55,20.61,20.61,0,0,0,6.95-7.72,39.87,39.87,0,0,0,3.1-7.77l.27-.82Z"/><path class="cls-7" d="M213.45,115.7a1.11,1.11,0,1,1-1.11-1.11A1.11,1.11,0,0,1,213.45,115.7Z"/><circle class="cls-6" cx="205.97" cy="95.54" r="9.84" transform="translate(-20.91 86.66) rotate(-22.64)"/><circle class="cls-4" cx="205.97" cy="98.75" r="9.84" transform="translate(-22.14 86.91) rotate(-22.64)"/><circle class="cls-7" cx="205.97" cy="98.75" r="9.08" transform="translate(-22.14 86.86) rotate(-22.63)"/><path class="cls-6" d="M198,99.15a8,8,0,0,0,15.94,0C208.76,101.94,203.45,101.92,198,99.15Z"/><rect class="cls-6" x="205.77" y="104.99" width="3.58" height="8.75"/><rect class="cls-7" x="205.49" y="123.31" width="23.97" height="1" transform="translate(39.12 299.35) rotate(-74.2)"/><path class="cls-10" d="M216.87,143.84l.4-1.36a1,1,0,0,0-.49-1.16l-2-1a1,1,0,0,1-.38-.28,1,1,0,0,1,0-.79c.3-.89.61-1.77.91-2.65a2,2,0,0,0,.12-1.36,2,2,0,0,0-1.3-.91.92.92,0,0,0-.69,0,.89.89,0,0,0-.38.59c-.41,1.38-.83,2.76-1.25,4.14a5,5,0,0,0-.31,2,3.34,3.34,0,0,0,1.61,2.32,10.15,10.15,0,0,0,2.69,1.07.9.9,0,0,0,.7,0A.93.93,0,0,0,216.87,143.84Z"/><path class="cls-7" d="M214.4,138.64a.42.42,0,0,0,0,.1l-.22.84a.53.53,0,0,0,.27.75l.43.28a8,8,0,0,1,.36-1.18l-.52-.68a.46.46,0,0,0-.12-.12A.15.15,0,0,0,214.4,138.64Z"/><path class="cls-7" d="M212.44,140.91c0,.24-.1.44-.22.44s-.23-.2-.23-.44.1-.43.23-.43S212.44,140.68,212.44,140.91Z"/><path class="cls-7" d="M214.72,133.31a1.22,1.22,0,0,1,.68.36,1,1,0,0,1,.11.83,4.33,4.33,0,0,0-.19.85,8.15,8.15,0,0,1-1.75-.93,1.94,1.94,0,0,0,.2-.63.77.77,0,0,1,.37-.52A.9.9,0,0,1,214.72,133.31Z"/><path class="cls-9" d="M225.49,113.51c-.19.69-2.46.65-5.06-.08s-4.55-1.89-4.35-2.58,2.46-.66,5.06.08S225.69,112.82,225.49,113.51Z"/><path class="cls-9" d="M220.43,113.43c-2.6-.74-4.54-1.89-4.35-2.58.36-1.36,2.46-.66,5.06.08Z"/><path class="cls-9" d="M221.14,110.93c2.6.73,5.06,1,4.35,2.58-.28.66-2.46.65-5.06-.08Z"/><path class="cls-2" d="M143.44,75.35c-1.74-7.42-1-14.93-2.3-22.37a24.84,24.84,0,0,0-8.65-14.91C125.24,32,117,31.48,108.25,29.93c-9.67-1.71-14.89-8.52-22.15-14.64C72.37,3.7,50.18,3.86,40.27,20.82,35.33,29.27,35,39.68,34.19,49.29q-.66,8.4-1.33,16.79c-.33,4.19-.11,9.71-3.66,12.51-3.2,2.54-7.79,2.24-11.31,4.25a21.88,21.88,0,0,0-8,8.44c-4.7,8.44-4.47,18.41-2.53,27.7L152,118.84C154.61,103.69,146.78,89.61,143.44,75.35Z"/><path class="cls-3" d="M6.39,115.77c.19,8.12,2.32,19.21,9,25,5.12,4.4,14.16,6.52,21.4,6.85s14.5-.43,21.73.06a146.83,146.83,0,0,1,29.54,4.49c10.65,2.74,22.21,4.56,32.78,1.61a33.22,33.22,0,0,0,16.65-10.54c2.31-2.8,4-6,6.43-8.7s5.55-5,7.59-8,2.75-7,.2-9.67Z"/><path class="cls-13" d="M105.78,49.16h-.25A2.05,2.05,0,0,1,104,47a5.45,5.45,0,0,1,.41-1.77c.05-.15.11-.3.15-.45a2.13,2.13,0,0,0,0-1.7l-.26-.46.47-.23a20.94,20.94,0,0,1,6.81-2l1.77-.21-3.42,2.69a1.5,1.5,0,0,0-.42.41,1.64,1.64,0,0,0,.06,1.1,5.72,5.72,0,0,1,.14.67,3.34,3.34,0,0,1-.91,2.69,4.73,4.73,0,0,1-2.39,1.34A2.35,2.35,0,0,1,105.78,49.16Zm-.14-6a3.52,3.52,0,0,1-.15,2l-.17.48A4.5,4.5,0,0,0,105,47c0,.49.28,1.05.71,1.12a1.4,1.4,0,0,0,.5-.06,3.76,3.76,0,0,0,1.9-1.05,2.36,2.36,0,0,0,.65-1.87,3.86,3.86,0,0,0-.12-.57,2,2,0,0,1,.71-2.54l.47-.37A19.75,19.75,0,0,0,105.64,43.12Z"/><rect class="cls-9" x="111.73" y="56.04" width="1.5" height="61.17"/><rect class="cls-9" x="105.86" y="1.21" width="1.5" height="30.61"/><rect class="cls-9" x="108.56" y="1.21" width="1.5" height="30.61"/><rect class="cls-9" x="112.47" y="1.21" width="1.5" height="30.61"/><rect class="cls-9" x="114.88" y="1.21" width="1.5" height="30.61"/><rect class="cls-9" x="117.28" y="1.21" width="1.5" height="30.61"/><polygon class="cls-7" points="122.58 57.44 125.22 61.41 125.22 26.52 122.58 30.49 122.58 57.44"/><path class="cls-10" d="M126.6,61.31h-1.38V26.56h1.38a1.76,1.76,0,0,1,1.75,1.75V59.56A1.76,1.76,0,0,1,126.6,61.31Z"/><rect class="cls-10" x="102.73" y="30.49" width="19.85" height="26.94" rx="1.47"/><rect class="cls-7" x="103.75" y="31.87" width="17.81" height="24.18" rx="0.85"/><rect class="cls-3" x="105.41" y="37.66" width="2.83" height="9.05"/><rect class="cls-3" x="109.34" y="37.66" width="2.83" height="9.05"/><rect class="cls-3" x="113.26" y="37.66" width="2.83" height="9.05"/><rect class="cls-3" x="117.18" y="37.66" width="2.83" height="9.05"/><path class="cls-10" d="M107.94,34.21a.93.93,0,1,1-.92-.92A.92.92,0,0,1,107.94,34.21Z"/><path class="cls-10" d="M111.94,34.21a.92.92,0,1,1-.92-.92A.92.92,0,0,1,111.94,34.21Z"/><path class="cls-10" d="M116,34.21a.93.93,0,1,1-.93-.92A.93.93,0,0,1,116,34.21Z"/><path class="cls-10" d="M120,34.21a.93.93,0,1,1-.92-.92A.92.92,0,0,1,120,34.21Z"/><rect class="cls-7" x="100.61" y="108.24" width="30.18" height="19.22"/><rect class="cls-9" x="101.75" y="114.84" width="26.62" height="0.56"/><rect class="cls-9" x="113.82" y="113.71" width="2.94" height="3.75"/><path class="cls-7" d="M132.75,104.45c-.08-1-.17-2-.25-3.07a2.81,2.81,0,0,1-2.43-1.06,4.92,4.92,0,0,1-1-2.69,5.78,5.78,0,0,1,.62-3.28,4,4,0,0,1,2.4-2v-.45l-.44-1-1.23.44a3.33,3.33,0,0,0-1.14.58,3.5,3.5,0,0,0-.65.78l-2.69,3.85a2.3,2.3,0,0,0-.45.93l-.06,6.19c0,.27-.06.54-.08.81Z"/><path class="cls-7" d="M140.44,104.45c0-.27,0-.54-.08-.81l-.07-6.19a2.18,2.18,0,0,0-.45-.93l-2.68-3.85a3.8,3.8,0,0,0-.65-.78,3.37,3.37,0,0,0-1.15-.58l-1.23-.44-.43,1v.45a4.05,4.05,0,0,1,2.4,2,5.86,5.86,0,0,1,.62,3.28,5,5,0,0,1-1,2.69,2.82,2.82,0,0,1-2.43,1.06c-.08,1-.17,2.05-.25,3.07Z"/><rect class="cls-10" x="123.98" y="103.01" width="17.73" height="27.65" rx="1.15"/><rect class="cls-7" x="126.64" y="105.44" width="12.51" height="6.37"/><rect class="cls-9" x="127.52" y="106.16" width="10.74" height="4.93"/><path class="cls-14" d="M139.73,117.35a3.43,3.43,0,1,1-3.43-3.43A3.43,3.43,0,0,1,139.73,117.35Z"/><circle class="cls-7" cx="133.78" cy="124.8" r="1.56"/><circle class="cls-7" cx="138.11" cy="124.8" r="1.56"/><path class="cls-14" d="M129,115.69a.56.56,0,0,1-.12.77l-1.36,1a.55.55,0,0,1-.77-.12h0a.55.55,0,0,1,.12-.77l1.36-1a.56.56,0,0,1,.77.12Z"/><path class="cls-14" d="M129,118.62a.56.56,0,0,1-.12.77l-1.36,1a.55.55,0,0,1-.77-.13h0a.55.55,0,0,1,.12-.77l1.36-1a.56.56,0,0,1,.77.13Z"/><path class="cls-14" d="M129,121.55a.56.56,0,0,1-.12.77l-1.36,1a.56.56,0,0,1-.77-.13h0a.55.55,0,0,1,.12-.77l1.36-1a.55.55,0,0,1,.77.13Z"/><path class="cls-14" d="M129,124.47a.56.56,0,0,1-.12.77l-1.36,1a.55.55,0,0,1-.77-.12h0a.55.55,0,0,1,.12-.77l1.36-1a.56.56,0,0,1,.77.12Z"/><path class="cls-7" d="M47.92,96.05a7.08,7.08,0,0,1,.17-2.81A9.12,9.12,0,0,0,48.23,91c1.14,0,3,0,4.16,0a1.8,1.8,0,0,0,.94,1.9,7.7,7.7,0,0,0,2.17.72,3.38,3.38,0,0,1,2,1.08,1.26,1.26,0,0,1,.29.73,3.84,3.84,0,0,1-.07.69Z"/><path class="cls-8" d="M47.57,42.54c1.31,3.06,3.34,5.74,5.12,8.56s4.89,10.17,5.1,13.5c.18,3-.75,5.89-1.5,8.78-1.37,5.3-3,12.62-3.25,18.09l-4.88.62c-.51-6.9-.12-15.84,1.68-22.52a2.23,2.23,0,0,0-.36-2.45C45.85,62,40.67,52.53,37,47.38a107.89,107.89,0,0,0,9.79-6.64Z"/><path class="cls-11" d="M37.81,21.06a3.69,3.69,0,0,0-2.6.77,2.79,2.79,0,0,0-.57,2.55,4.62,4.62,0,0,0,2.68,3.24,9,9,0,0,0,3.44.48c1.1,0,2.24,0,3.39-.08a29.64,29.64,0,0,0,.65-6.33A49.61,49.61,0,0,0,37.81,21.06Z"/><path class="cls-7" d="M58,10.87a1.09,1.09,0,0,1-.7-.41,2.07,2.07,0,0,1-.38-1.74,3.46,3.46,0,0,1,1.57-2.1,2.52,2.52,0,0,1,.47-.22,8.58,8.58,0,0,1,3.21-.51.71.71,0,0,1-.27.72,2,2,0,0,1-.25.14c.32,0,.64,0,1,0a.26.26,0,0,1,.17,0c.09.08,0,.22,0,.32a1.57,1.57,0,0,1-.17.21h0a.75.75,0,0,1-.5.74,3.39,3.39,0,0,1-.95.17,4.27,4.27,0,0,0-1.72.57.74.74,0,0,0-.33.89h0a.64.64,0,0,1,.06.36.66.66,0,0,1-.28.36A1.44,1.44,0,0,1,58,10.87Z"/><path class="cls-5" d="M60.9,8.3A1.59,1.59,0,0,0,59.52,9c-.15.21-.25.47-.39.69a1,1,0,0,1-.59.5.8.8,0,0,1-.69-.21c0-.24,0-.47,0-.7A6.89,6.89,0,0,1,58,7.88c.08-.33.21-.82.54-.93a4.42,4.42,0,0,0,.85-.41c.31-.19.71-.13,1-.33a.75.75,0,0,0,.38-.9,4.42,4.42,0,0,0-2,.44,12.16,12.16,0,0,0-1.56.7,8.31,8.31,0,0,0-1,1.43,4.2,4.2,0,0,0-.57.78,2.81,2.81,0,0,0-.16,1.14,14.56,14.56,0,0,1-.43,3.06h0c-.26.63-.5,1.26-.75,1.88v0h0a18.18,18.18,0,0,1-3.49,6.17A3,3,0,0,1,47.8,22c-1-.09-2-.22-3-.35A29.64,29.64,0,0,1,44.15,28c2.12-.1,4.28-.24,6.32-.22a4.69,4.69,0,0,0,2.71-.51,4.35,4.35,0,0,0,1.43-2.05,49.22,49.22,0,0,0,1.78-4.75,41.41,41.41,0,0,0,1.31-5.17,11.86,11.86,0,0,0,.37-1.42s0,0,0-.05a4,4,0,0,1,.74-1.2,3.26,3.26,0,0,0,.9-1c.21-.42.18-.93.37-1.36A5.32,5.32,0,0,1,61.2,9a.52.52,0,0,0,.19-.38C61.36,8.42,61.11,8.32,60.9,8.3Z"/><path class="cls-5" d="M29.72,15.83l.08,0Z"/><polygon class="cls-7" points="41.62 130.31 40.14 130.11 49.77 58.79 35.89 58.79 26.23 130.31 24.74 130.11 34.58 57.29 51.48 57.29 41.62 130.31"/><rect class="cls-7" x="29.39" y="100.83" width="15.56" height="1.5"/><rect class="cls-7" x="31.88" y="81.91" width="15.56" height="1.5"/><rect class="cls-7" x="34.21" y="64.19" width="15.56" height="1.5"/><rect class="cls-7" x="26.99" y="118.4" width="15.56" height="1.5"/><polygon class="cls-7" points="62.12 127.19 52.47 58.79 38.59 58.79 48.21 126.99 46.73 127.19 36.86 57.29 53.77 57.29 63.61 126.99 62.12 127.19"/><rect class="cls-7" x="42.4" y="95.95" width="15.56" height="1.5"/><rect class="cls-7" x="40.66" y="78.09" width="15.56" height="1.5"/><rect class="cls-7" x="38.59" y="63.89" width="15.56" height="1.5"/><rect class="cls-7" x="45.8" y="115.75" width="15.56" height="1.5"/><path class="cls-7" d="M35.21,95.11a4,4,0,0,0,1.7,3,18.5,18.5,0,0,1,1.86,1.14,1.59,1.59,0,0,1,.47,2l-6.55,0a4.12,4.12,0,0,0-1-1.81c-.53-.52-1.23-1-1.43-1.67a2.82,2.82,0,0,1,.23-1.66c.19-.56.39-1.12.59-1.68a.78.78,0,0,1,.33-.49.84.84,0,0,1,.52,0A17.79,17.79,0,0,1,35.21,95.11Z"/><path class="cls-9" d="M44.32,47.77a65.52,65.52,0,0,1,4.34,18.56,19.31,19.31,0,0,1-.46,7.39c-.81,2.65-2.55,4.9-4.13,7.18A67.82,67.82,0,0,0,36.27,96c-1.66-.21-4-1.5-5.67-1.72,1.72-6.65,3.46-11.12,6.32-15.6,1.71-2.68,3.15-3.67,3.23-6.85a13.72,13.72,0,0,0-1.46-5.56q-3.31-7.92-6.64-15.83c3.55-.72,8.23-3.33,11.24-5.35Z"/><path class="cls-7" d="M34.27,60.09A3.08,3.08,0,0,1,35.6,58.7a13,13,0,0,1,6.58-2,27,27,0,0,1,2.63,9.48,25,25,0,0,1-7.41,3.65,50.94,50.94,0,0,1-3-7.54A3.36,3.36,0,0,1,34.27,60.09Z"/><path class="cls-7" d="M41.41,57.68a2.81,2.81,0,0,1,1.45.64A22,22,0,0,0,44.35,48l-.76.05A25.18,25.18,0,0,1,41.41,57.68Z"/><path class="cls-10" d="M40.78,59.91a.67.67,0,1,1-.67-.67A.67.67,0,0,1,40.78,59.91Z"/><path class="cls-10" d="M36.64,61.21a.67.67,0,1,1-.67-.67A.67.67,0,0,1,36.64,61.21Z"/><path class="cls-10" d="M46.69,48.15c.67-.75,2.06-2.37,2.15-3.37a3.65,3.65,0,0,0-.33-1.62c-1.18-3.16-2.2-4.47-3.38-7.64-1.05-2.81-2.25-7.49-3.71-10.11a8.44,8.44,0,0,0-3.48-3.75,6.17,6.17,0,0,0-4.11-.25,13,13,0,0,0-3.78,1.79,25,25,0,0,0-7.92,8c5.25,7,8.83,17.06,11.74,25.31C37.37,57.74,43,52.27,46.69,48.15Z"/><path class="cls-11" d="M28.07,31.77a8.25,8.25,0,0,1,1.71,5.4,24.52,24.52,0,0,1-.94,5.69l-2.63-5.21A8.84,8.84,0,0,0,28.07,31.77Z"/><path class="cls-11" d="M35.65,22a2.75,2.75,0,0,0-2-.63,8.47,8.47,0,0,0-4.07,1.28,9.92,9.92,0,0,0-3.46,3.26,3.44,3.44,0,0,0-.53,1.3,1.69,1.69,0,0,0,.29,1.33,2.41,2.41,0,0,0,1.35.72,8.37,8.37,0,0,0,6-.54,5.67,5.67,0,0,0,3-5A2.62,2.62,0,0,0,35.65,22Z"/><path class="cls-5" d="M26.3,27.66a1.67,1.67,0,0,0,1.34.86,7,7,0,0,0,4.58-.58,5.63,5.63,0,0,0,2.9-3.54,2.78,2.78,0,0,0,0-1.59A1.54,1.54,0,0,0,34,21.75a2.29,2.29,0,0,0-1.27.25,14.81,14.81,0,0,0-5.93,4.1A1.72,1.72,0,0,0,26.3,27.66Z"/><path class="cls-5" d="M25,19.53a.76.76,0,0,0,.05.53c.75,2.11,1.49,4.22,2.24,6.34a7.23,7.23,0,0,0,6-3.89,16,16,0,0,1-4.25-5l-3.68,1.73A.71.71,0,0,0,25,19.53Z"/><path class="cls-7" d="M31.44,20.79A16,16,0,0,1,29,17.48l-3.68,1.73a1.32,1.32,0,0,0-.25.16A4.84,4.84,0,0,0,31.44,20.79Z"/><path class="cls-5" d="M30.34,14.4c.4,1.22.81,2.44,1.21,3.65a1.47,1.47,0,0,1,.11.82,1.34,1.34,0,0,1-.37.55,5.42,5.42,0,0,1-3.57,1.52A5.55,5.55,0,0,1,24,19.72a6.91,6.91,0,0,1-1.83-2.66,5.14,5.14,0,0,1-.5-2.84,4.13,4.13,0,0,1,2-2.7,7.46,7.46,0,0,1,3.49-1c.75.57,1.55,1.22,1.65,2.09a1.26,1.26,0,0,0,.15.64c.22.28.7.27,1,.49A1.27,1.27,0,0,1,30.34,14.4Z"/><path class="cls-7" d="M28.79,9.27a1.18,1.18,0,0,1-.54.32,2.59,2.59,0,0,0,.09-1.46,5.11,5.11,0,0,1-2.51,1,10.89,10.89,0,0,0-2.67.67,2.69,2.69,0,0,0-1.63,2.07A.48.48,0,0,0,21,12a1.18,1.18,0,0,0-.31.53,5.62,5.62,0,0,0,3.63,7.29l-.36-1.94a5.65,5.65,0,0,1-1.05-.43,1.77,1.77,0,0,1-.77-.81,1.09,1.09,0,0,1,.09-1.08.81.81,0,0,1,1-.22,1.89,1.89,0,0,0,.44.57.61.61,0,0,0,.68.08,5.43,5.43,0,0,1-1.21-2.36.94.94,0,0,1,.09-.81,1.05,1.05,0,0,1,.56-.27,11.91,11.91,0,0,0,3-1A4,4,0,0,0,28.79,9.27Z"/><path class="cls-5" d="M32.93,63.44a1.67,1.67,0,0,1,.31.28,8.34,8.34,0,0,0,.58.75.71.71,0,0,0,.86.13,4.65,4.65,0,0,1-.51-1.19Z"/><path class="cls-10" d="M36.35,64.66c-.09-.51-.3-1-.39-1.47a30.58,30.58,0,0,0,5.4-.6c0,.2.08.21.13.42C39.85,63.41,38.27,64,36.35,64.66Z"/><circle class="cls-7" cx="36.82" cy="63.73" r="0.31"/><path class="cls-9" d="M36,64.2a9.23,9.23,0,0,0-4.45.46,2.3,2.3,0,0,1-1.05.21c-.36-.05-.71-.37-.63-.73a9.7,9.7,0,0,1,3.24-.71c1.1,0,2.38.17,3-.77.27.41,0,.77.13,1s.12.5-.08.57A.41.41,0,0,1,36,64.2Z"/><path class="cls-9" d="M35.88,63.88a10.48,10.48,0,0,1-4.35,1.06,2.49,2.49,0,0,0-1.05.16c-.33.15-.57.54-.39.81a10.42,10.42,0,0,0,3.27-.45c1.06-.32,2.2-.91,3.09-.33.14-.43-.17-.67-.15-.86s0-.46-.24-.45A.43.43,0,0,0,35.88,63.88Z"/><path class="cls-10" d="M26.7,41.13a1.29,1.29,0,0,0,0-.19,44,44,0,0,1,1.57-4.43,9.34,9.34,0,0,0,0-5,3.34,3.34,0,0,0-3.15-2.41,3.43,3.43,0,0,0-2.5,1.58,8.9,8.9,0,0,0-1.14,2.82A42.83,42.83,0,0,0,20.26,40,13.46,13.46,0,0,0,26.7,41.13Z"/><path class="cls-5" d="M34,62.94a.48.48,0,0,0-.07-.2.47.47,0,0,0-.13-.11,5.39,5.39,0,0,1-1.38-1.27.8.8,0,0,0-.2-.21.92.92,0,0,0-.44-.15,9.51,9.51,0,0,1-1.59-.41,3,3,0,0,1-.75-.36,3.37,3.37,0,0,1-.68-.73l-.2-.27c-.74-2.33-1.11-4.16-1.7-6.62a22.77,22.77,0,0,1-.2-11.48A13.46,13.46,0,0,1,20.26,40a30.47,30.47,0,0,0,.27,8.79A38.55,38.55,0,0,0,26.4,62.35a20.66,20.66,0,0,0,1.92,3.78,1,1,0,0,0,.29.31,2,2,0,0,0,.54.19c.26.08.48.25.74.34a.64.64,0,0,0,.74-.14.45.45,0,0,1,.1-.13.33.33,0,0,1,.17,0,4.48,4.48,0,0,0,.5.11.4.4,0,0,0,.41-.24,1.33,1.33,0,0,1,.05-.19c.09-.18.37-.07.57-.09.41,0,.55-.57.9-.78a4.5,4.5,0,0,1,.44-.16.41.41,0,0,0,.29-.34c0-.19-.19-.32-.37-.41a5.25,5.25,0,0,1-1-.57,1.42,1.42,0,0,1-.55-1,2,2,0,0,1,.76.38l1.24,0A3.62,3.62,0,0,1,34,62.94Z"/><path class="cls-7" d="M99.07,123c-3.17,0-6.34-.13-9.5-.38a14.78,14.78,0,0,1,.22-4.25,9.5,9.5,0,0,0,3.16-1,2.15,2.15,0,0,0,1,2,6.44,6.44,0,0,0,2.15.82,5.93,5.93,0,0,1,2.12.88A2.05,2.05,0,0,1,99.07,123Z"/><path class="cls-8" d="M84.53,66.81a9.44,9.44,0,0,1,3.24.29c.84.5.56,3.72.75,4.68,3.08,16.1,6,29.8,5.1,46.64-1.39.75-3.56.73-5.13.67-1.09-12.22-4.7-23.79-8.82-35.34-1.92-5.38-4-8.49-2.61-16.67Z"/><path class="cls-7" d="M75.84,122.87a5.33,5.33,0,0,1,1.72.9,1.6,1.6,0,0,1,.5,1.76,107.48,107.48,0,0,1-10.75-.78,5.33,5.33,0,0,1,0-2.83,16,16,0,0,1,1.06-2.66,17.74,17.74,0,0,0,4,.22,3.16,3.16,0,0,0,1.16,2.17A7.47,7.47,0,0,0,75.84,122.87Z"/><path class="cls-9" d="M72,66.27l-.61,4.81c-2.18,6-.88,11.06-1,17.49-.12,10.86-.65,20.8-2.81,31.44a5.06,5.06,0,0,0,5.78.13c2.78-9.1,5-18.33,7-27.63a155.5,155.5,0,0,0,3.49-25.4C80.23,67,75.62,66.4,72,66.27Z"/><path class="cls-11" d="M90.84,40.41a6.34,6.34,0,0,0-2.17,3.26,9.2,9.2,0,0,0,.11,4.77,23,23,0,0,0,1.49,4.42,16.46,16.46,0,0,0,5-3.43C94.21,46.61,93.35,43.63,90.84,40.41Z"/><path class="cls-7" d="M108,45.08a.89.89,0,0,1-.48-.51,1.85,1.85,0,0,1,.11-1.56,3,3,0,0,1,1.84-1.35,1.77,1.77,0,0,1,.46-.07,7.2,7.2,0,0,1,2.8.38.61.61,0,0,1-.4.53,1,1,0,0,1-.24,0l.79.28a.29.29,0,0,1,.13.08c0,.09,0,.2-.1.27l-.19.13h0a.65.65,0,0,1-.6.5,3,3,0,0,1-.84-.1,3.83,3.83,0,0,0-1.58,0,.65.65,0,0,0-.5.67h0a.58.58,0,0,1,0,.32.6.6,0,0,1-.33.23A1.23,1.23,0,0,1,108,45.08Z"/><path class="cls-5" d="M108.86,43c.15-.27.4-.67.72-.68a4.4,4.4,0,0,0,.86-.14c.33-.08.66.07,1,0s.63-.36.58-.69a4,4,0,0,0-1.84-.13,10.06,10.06,0,0,0-1.57.2,7.34,7.34,0,0,0-1.23,1,3.73,3.73,0,0,0-.7.54,2.45,2.45,0,0,0-.45,1A12.67,12.67,0,0,1,105,46.6a35.82,35.82,0,0,1-6.69,4.78,15,15,0,0,0-1.69,1.18v0a26.64,26.64,0,0,1-1.36-3.11,16.46,16.46,0,0,1-5,3.43,15,15,0,0,0,4.67,6,1.13,1.13,0,0,0,.66.29l.09,0a.76.76,0,0,0,.37.18,1.54,1.54,0,0,0,1.13-.35c3.92-2.53,6.82-6.29,9.56-10.08a6.2,6.2,0,0,1,1.51-1.48,3.17,3.17,0,0,0,1.06-.64c.3-.32.41-.77.69-1.11a4.71,4.71,0,0,1,1.34-.83.51.51,0,0,0,.27-.29c0-.19-.16-.35-.34-.42a1.49,1.49,0,0,0-1.4.21c-.19.14-.34.34-.53.5a.88.88,0,0,1-.65.28.71.71,0,0,1-.56-.36c.07-.21.11-.42.18-.63A6.48,6.48,0,0,1,108.86,43Z"/><path class="cls-10" d="M80.14,38.68a5.41,5.41,0,0,0-3.57.77A5.74,5.74,0,0,0,75,42.3a85.71,85.71,0,0,0-4.21,27.18c6.26-.59,12.13-.7,18.42-.72-.52-5.23-1.1-9.43.23-14.51.54-2.07,1.38-3.87,2-5.92a10.2,10.2,0,0,0-.63-8A35.72,35.72,0,0,0,80.14,38.68Z"/><path class="cls-11" d="M88.4,43.87a3.14,3.14,0,0,0,1.09-1.59,2,2,0,0,0-.35-1.85,3,3,0,0,0-1.38-.83,18.52,18.52,0,0,0-3.68-.84,5,5,0,0,0-2.7.17,1,1,0,0,0-.57.52,1.08,1.08,0,0,0,0,.64,6.9,6.9,0,0,0,1.91,3.68,4.41,4.41,0,0,0,2.81,1.1A4.35,4.35,0,0,0,88.4,43.87Z"/><path class="cls-11" d="M78.62,42.69c1.8,2,2.25,4.85,2,7.5s-1,5.23-1.44,7.87a25.74,25.74,0,0,0,.55,10.3l-3.2.07H71.48c-.54-6.43.71-12.88,2.4-19.11A12.82,12.82,0,0,1,78.62,42.69Z"/><path class="cls-5" d="M87.87,40.09c-.1-1.29.39-4.59.29-5.88L83.34,36a25.68,25.68,0,0,0-1,3.09c-.49,0-.47.2-.95.28a5.2,5.2,0,0,0,2.2,4,3.91,3.91,0,0,0,4.46-.06A2.08,2.08,0,0,0,89,41.23,2,2,0,0,0,87.87,40.09Z"/><path class="cls-7" d="M87.5,34.45,83.34,36c-.28.76-.54,1.56-.76,2.35A4.5,4.5,0,0,0,87.5,34.45Z"/><path class="cls-5" d="M84.73,27.11c-.73,0-1.62,0-2,.63s-.09,1.13-.25,1.68a4.11,4.11,0,0,1-.67,1.09,4.58,4.58,0,0,0-.66,2.84,13.69,13.69,0,0,0,.63,2.89,2.05,2.05,0,0,0,.54,1,2,2,0,0,0,1.35.34,7,7,0,0,0,3.88-1.37c.94-.82,1.23-2,1.87-3A4.59,4.59,0,0,0,90.35,30a3.52,3.52,0,0,0-2.23-2.3A10.39,10.39,0,0,0,84.73,27.11Z"/><path class="cls-7" d="M83.16,25.85l.57.33a1.6,1.6,0,0,0-1.36,2.11,1,1,0,0,1,.63-.46,2.9,2.9,0,0,0,2.36,1.72.36.36,0,0,1,.13-.43.78.78,0,0,0,.56.46,5.19,5.19,0,0,1,.73.22,1.42,1.42,0,0,1,.67,1,10.22,10.22,0,0,1-.11,1.82c.64-.13.7-.92,1-.84s.29.16.36.46a2.47,2.47,0,0,1,0,.9,2.07,2.07,0,0,1-.25,1,.74.74,0,0,1-.84.36,2,2,0,0,0,.05,1.7,14.12,14.12,0,0,0,2.7-1.77l-.33-.09a4.9,4.9,0,0,0,1.29-5.15A2.36,2.36,0,0,0,90.09,27a17,17,0,0,1-2.16-1.34l-.08.51A8.91,8.91,0,0,0,83.16,25.85Z"/><path class="cls-7" d="M78.54,111.32a8.17,8.17,0,0,1-6.65-3.16,7.74,7.74,0,0,1-.76-1.3,15.11,15.11,0,0,1-4.2-6.88,21.92,21.92,0,0,1,2.28-17.65,9.88,9.88,0,0,1,2.92-3.22A10,10,0,0,1,72.92,78a8.07,8.07,0,0,1,1.28-1.21,4.48,4.48,0,0,1,2.53-2.57l.31,1A3.6,3.6,0,0,1,78,75a2.58,2.58,0,0,1,2.89-.16,6.31,6.31,0,0,1,1.29,1.25l.56-.32a7.54,7.54,0,0,1,.78,2.09,15,15,0,0,1,1.52,1.63,22.48,22.48,0,0,1,4.64,10.28c.05.15.09.3.14.46,1.16,3.9,1.29,7.35.38,10.24a10.86,10.86,0,0,1-2.45,4.18,11.53,11.53,0,0,1-5.2,5.68A9,9,0,0,1,78.54,111.32Zm-3-2.14a7.68,7.68,0,0,0,6.39-.15,9,9,0,0,0,2.76-2.18l-.27.1A10.86,10.86,0,0,1,75.52,109.18ZM72.37,106a8.38,8.38,0,0,0,2.87,1.61,8.57,8.57,0,0,0,5.4-.22,6.5,6.5,0,0,1-1.22-.27,4.46,4.46,0,0,1-1.5.4,5.88,5.88,0,0,1-4.56-1.83,9.63,9.63,0,0,1-1.58-2.16A8.75,8.75,0,0,0,72.37,106Zm-.52-6.16c.15.43.31.87.48,1.29a10.23,10.23,0,0,0,2.09,3.5A4.72,4.72,0,0,0,77,106a11.14,11.14,0,0,1-3.5-3.65A15,15,0,0,1,72,98.61C71.94,99,71.89,99.4,71.85,99.79Zm9.29,6.11a6.48,6.48,0,0,0,1.32,0,6.13,6.13,0,0,0,1.2-.27c.22-.18.44-.38.65-.58a13.19,13.19,0,0,0,3.13-5A21.82,21.82,0,0,0,86,90.71c-.34-1-.7-2.29-1.08-3.67s-.76-2.77-1.21-4.2c0,.3,0,.61-.08.91a17.65,17.65,0,0,0,.13,5.71c.88,3.34,1.53,8.32-.43,13.12A9.36,9.36,0,0,1,81.14,105.9ZM72.78,92.49c0,3.88.66,6.76,2,9.06a9.45,9.45,0,0,0,4.5,3.91A7.66,7.66,0,0,0,81.94,102c1.79-4.41,1.18-9.05.36-12.16a18.7,18.7,0,0,1-.17-6.22,27,27,0,0,0,.13-4.17c-.29-.34-.6-.68-.91-1a11.79,11.79,0,0,0-1-.93,5.11,5.11,0,0,0-2.5-.58c-.42.32-.84.68-1.23,1s-.78.67-1.17,1A87,87,0,0,0,72.78,92.49Zm-2.61-8.84a20.43,20.43,0,0,0-1.8,15.89,14.92,14.92,0,0,0,1.93,4.1,19.6,19.6,0,0,1,0-3.67A27.68,27.68,0,0,1,70.17,83.65ZM72.79,81a16.86,16.86,0,0,0-.72,1.72,25.93,25.93,0,0,0-1.23,13c.14-1.08.29-2.18.44-3.3v-.28A43.39,43.39,0,0,1,72.79,81Zm12.95,3.43c.22.76.42,1.51.62,2.22.37,1.36.72,2.64,1,3.57a33.06,33.06,0,0,1,1.12,3.94,21.21,21.21,0,0,0-.28-4A30.92,30.92,0,0,0,85.74,84.42Z"/><path class="cls-10" d="M77.9,51.1c.25-1,.53-1.88.86-2.8a27.53,27.53,0,0,0,1.5-4.72A6.48,6.48,0,0,0,79,38.71l-1.5.2a5.17,5.17,0,0,0-3.37,2.33,12.35,12.35,0,0,0-1.57,3.91,42.57,42.57,0,0,0-.9,4.74A12.67,12.67,0,0,0,77.9,51.1Z"/><path class="cls-5" d="M82.67,77.21a6.73,6.73,0,0,0,.46.83.69.69,0,0,0,.82.25,4.63,4.63,0,0,1-.38-1.73.78.78,0,0,0,0-.21.34.34,0,0,0-.12-.12,5.54,5.54,0,0,1-1.17-1.47,1.31,1.31,0,0,0-.17-.24,1,1,0,0,0-.41-.2,9.65,9.65,0,0,1-1.52-.65,3.14,3.14,0,0,1-.57-.38A34.51,34.51,0,0,1,77.9,51.1a12.67,12.67,0,0,1-6.27-1.21,39.27,39.27,0,0,0,3.52,22.93c.12.25.46.88.79,1.44a24.46,24.46,0,0,0,1.5,4.62,1.67,1.67,0,0,0,.24.35,3.06,3.06,0,0,0,.51.26c.24.12.44.32.68.45a.64.64,0,0,0,.76,0,.38.38,0,0,1,.12-.1.2.2,0,0,1,.17,0,4.43,4.43,0,0,0,.47.17.4.4,0,0,0,.45-.16.73.73,0,0,1,.07-.19c.12-.16.15-.14.34-.05a1.41,1.41,0,0,0,1,.08c.15-.06-.56-1.41-.81-1.69s-1.54-.84.28-1.56A1.93,1.93,0,0,1,82.67,77.21Z"/><circle class="cls-10" cx="63.64" cy="9.6" r="3.88"/><rect class="cls-10" x="62.07" y="4.12" width="3.14" height="3.39"/><rect class="cls-7" x="61.58" y="1.23" width="4.13" height="3.39"/><rect class="cls-9" x="26.74" y="0.66" width="102.02" height="1"/><path class="cls-2" d="M137.35,216.77c-1.74-7.42-1-14.93-2.3-22.37a24.81,24.81,0,0,0-8.65-14.9c-7.25-6.09-15.48-6.59-24.24-8.15-9.67-1.71-14.89-8.52-22.14-14.64-13.74-11.59-35.92-11.43-45.84,5.53-4.94,8.45-5.31,18.86-6.07,28.48q-.67,8.39-1.34,16.79c-.33,4.18-.11,9.7-3.66,12.5-3.2,2.54-7.79,2.24-11.31,4.26a21.76,21.76,0,0,0-8,8.43c-4.71,8.44-4.48,18.41-2.54,27.7l144.59-.14C148.52,245.11,140.7,231,137.35,216.77Z"/><path class="cls-3" d="M.3,256.53c.19,8.13,2.32,19.21,9,25,5.12,4.39,14.17,6.52,21.4,6.85s14.51-.44,21.73.05A146.84,146.84,0,0,1,82,292.89c10.65,2.74,22.21,4.56,32.78,1.6A33.21,33.21,0,0,0,131.42,284c2.31-2.81,4-6,6.43-8.7s5.55-5,7.59-8,2.75-7,.2-9.68Z"/><path class="cls-7" d="M92.38,262.52c0,.85-1.75,1.53-3.9,1.53s-3.91-.68-3.91-1.53S86.32,261,88.48,261,92.38,261.68,92.38,262.52Z"/><path class="cls-9" d="M90.1,262.2a3.77,3.77,0,0,1-3.23,0V243.87H90.1Z"/><path class="cls-7" d="M78.65,201.71H76.59V196a.63.63,0,0,1,.63-.63H78a.63.63,0,0,1,.63.63Z"/><rect class="cls-7" x="72" y="196.59" width="11.23" height="2.06" rx="1.02"/><rect class="cls-9" x="66.84" y="203.33" width="22.08" height="6.36"/><rect class="cls-9" x="27.13" y="205.01" width="95.19" height="2.99"/><rect class="cls-7" x="88.7" y="202.23" width="2.25" height="8.67"/><rect class="cls-9" x="75.58" y="209.49" width="3.09" height="28.2"/><rect class="cls-9" x="74.36" y="208.18" width="5.52" height="8.33"/><rect class="cls-7" x="72.45" y="216.04" width="9.35" height="1.68"/><rect class="cls-7" x="73.48" y="219.03" width="7.3" height="3.09"/><path class="cls-7" d="M90.32,249.21H84.91v-3.9a.16.16,0,0,0-.15-.16H80.11a5.56,5.56,0,0,1-5.56-5.56v-3.91H80v3.91a.15.15,0,0,0,.15.15h4.65a5.57,5.57,0,0,1,5.56,5.57Z"/><circle class="cls-9" cx="77.67" cy="206.51" r="5.82"/><path class="cls-7" d="M80.6,206.51a2.93,2.93,0,1,1-2.93-2.93A2.93,2.93,0,0,1,80.6,206.51Z"/><path class="cls-7" d="M79.89,220.3A2.93,2.93,0,1,1,77,217.37,2.93,2.93,0,0,1,79.89,220.3Z"/><rect class="cls-7" x="65.28" y="202.23" width="2.25" height="8.67"/><rect class="cls-7" x="54.78" y="203.65" width="2.25" height="6.08"/><rect class="cls-7" x="98.37" y="203.65" width="2.25" height="6.08"/><path class="cls-11" d="M42.5,206.94a7.46,7.46,0,0,0-3-1.23,2.82,2.82,0,0,0-3.06,4.2,7.42,7.42,0,0,0,2.06,2.44,59.73,59.73,0,0,0,6.51,4.2c.67.42,1.39.8,2.13,1.17A35.14,35.14,0,0,0,50.45,212C47.55,210.18,45.36,208.68,42.5,206.94Z"/><path class="cls-5" d="M77.93,214a1.06,1.06,0,0,0,.31-.54.66.66,0,0,0-.13-.59.56.56,0,0,0-.26-.17,1.34,1.34,0,0,0,.18-.28.71.71,0,0,0,.08-.51.47.47,0,0,0-.34-.3.9.9,0,0,0-.28-.13.18.18,0,0,0,0-.2.28.28,0,0,0-.14-.1l-1.66-.82c-.72.5-1.78.19-2.51.68-.27.19-.46.48-.72.69s-.81.61-1.19.92a2.79,2.79,0,0,0-.55.81v0a73.48,73.48,0,0,1-11.89,1.83,7.44,7.44,0,0,1-2.94-.17,19.18,19.18,0,0,1-3.1-1.79c-.84-.49-1.59-.94-2.31-1.38a35.14,35.14,0,0,1-3.35,5.77,54.44,54.44,0,0,1,5,2.59,7.83,7.83,0,0,0,2.92.8,19.62,19.62,0,0,0,2.86-.18c5.85-.52,14.18-4.44,15.61-4.42.52,0,1,.13,1.55.16a3.62,3.62,0,0,0,1.6-.25.92.92,0,0,1,.55-.22.73.73,0,0,0,.3-.19.35.35,0,0,0,.09-.32.42.42,0,0,0-.27-.28h0a.82.82,0,0,0,.5-.17.59.59,0,0,0,.21-.47.52.52,0,0,0-.27-.43l-.08,0s0,0,0-.08A1.43,1.43,0,0,0,77.93,214Z"/><path class="cls-7" d="M29.87,251.45c.9.15,1.86,1.23,2.52,1.82A9.21,9.21,0,0,0,35,254.44c-.76,1.32-.73,3.54-1.49,4.87-.55-.66-2.72-.17-3.55.34a12.55,12.55,0,0,0-2.52,1.79,6.67,6.67,0,0,1-2.92,1.74,1.28,1.28,0,0,1-.89-.1,3.88,3.88,0,0,1-.6-.47Z"/><path class="cls-8" d="M46.9,236.45c1.53,5.11,4.47,7.7,7.35,11.79,3.25,4.62,5.64,8.2,2.73,12.56-4.72,1.34-4.52,1.79-9.42,1.44A125.66,125.66,0,0,1,33,260.05a41,41,0,0,1,.21-6.65,87.07,87.07,0,0,0,15.23.28A22.86,22.86,0,0,1,34.5,236.77,113.9,113.9,0,0,0,46.9,236.45Z"/><path class="cls-7" d="M25.39,254.92c.89.14,1.85,1.22,2.51,1.82a9.23,9.23,0,0,0,2.6,1.16c-.77,1.32-.74,3.54-1.5,4.87-.54-.66-2.71-.17-3.55.34a12.55,12.55,0,0,0-2.52,1.79A6.67,6.67,0,0,1,20,266.64a1.25,1.25,0,0,1-.88-.1,4,4,0,0,1-.61-.47Z"/><path class="cls-9" d="M45.58,236.62c-3.95.58-10.74.82-14.73.91a20.07,20.07,0,0,0,7,13.93c3.69,3.11,6.59,4.62,10.11,7.93a50.2,50.2,0,0,1-19.19-2.55,30.56,30.56,0,0,0,0,8.49c9.92-.08,13.93,3.76,25.71,1.32,1.26-1.18,3.88-3.68,3.38-5.2-1.46-4.45-3.06-7.33-6.2-12.14C49,245.2,46.23,241.48,45.58,236.62Z"/><path class="cls-11" d="M42.1,207.89a2.21,2.21,0,0,0-1-1.66,2.59,2.59,0,0,0-1.38-.16,11.75,11.75,0,0,0-5,1.06,1.06,1.06,0,0,0-.62.69c-.05.4.3.72.64.94a17.44,17.44,0,0,0,5.79,2.07,1.41,1.41,0,0,0,1.3-.14,1.27,1.27,0,0,0,.29-.81A7.35,7.35,0,0,0,42.1,207.89Z"/><path class="cls-10" d="M41.67,206.38a20,20,0,0,1,4,10.5c.46,3.78.31,7.59.51,11.39a26.18,26.18,0,0,0,2.59,11,57.19,57.19,0,0,1-17.37.65,2,2,0,0,1-1.1-.37,2.09,2.09,0,0,1-.4-1.65c.17-4.14-.83-8.22-1.43-12.32s-.58-9.11,1.14-12.87c1.85-4.06,6.92-8.08,10.15-6.88Z"/><path class="cls-11" d="M31.6,215.24a3.14,3.14,0,0,0-1,2.58,45.73,45.73,0,0,0,1.63,15.45,1.93,1.93,0,0,0,.64,1.09,1.27,1.27,0,0,0,1.43-.11,3.24,3.24,0,0,0,.93-1.2,22,22,0,0,0,2.28-8.46,14,14,0,0,0-.36-5.2,6.59,6.59,0,0,0-3.12-4A2.46,2.46,0,0,0,31.6,215.24Z"/><path class="cls-9" d="M48.78,239.28c-1.8-3.35-2.23-7.2-2.43-11-.12-2.14-.24-5.68-.3-7.82-2.7,1.74-6.72,3.26-8.29,6.41-1.16,1.74-.86,5.2-1.48,6.92-1,2.73-2.69,3.68-4.13,6.2A57.26,57.26,0,0,0,48.78,239.28Z"/><path class="cls-9" d="M36.9,212.52a8,8,0,0,0-4.44-2.18c-.85-.09-1.84-.12-2.29,1.07a4.77,4.77,0,0,1,4.3.49,9.36,9.36,0,0,1,3,3.28A18,18,0,0,1,40,225c.57-.07.83.32,1.08-.21a4.74,4.74,0,0,0,0-1.88,18.89,18.89,0,0,0-1.49-6.32A11.44,11.44,0,0,0,36.9,212.52Z"/><path class="cls-5" d="M41.14,209.43a.67.67,0,0,0,.22-.51c.27-2.17.53-4.33.8-6.5-1.56,0-3.11-.94-4.57-1.48-1,3.38-2.09,4.09-3.1,6.46,2.15.68,4,2.07,6.23,2.12A.66.66,0,0,0,41.14,209.43Z"/><path class="cls-7" d="M38.75,201.42c-.62,2.77.64,5,2.81,5.85l.6-4.85A9.38,9.38,0,0,1,38.75,201.42Z"/><path class="cls-5" d="M41.69,192.08A4.74,4.74,0,0,0,37,195.64a7.8,7.8,0,0,0,7.73,10.26,19.44,19.44,0,0,0,2.82-6.35,6.58,6.58,0,0,0-2-6.34A5.91,5.91,0,0,0,41.69,192.08Z"/><path class="cls-7" d="M46.6,193.15a7.13,7.13,0,0,0-4.17-1.6,5.5,5.5,0,0,0-3.14.65,5.39,5.39,0,0,0-2,2.41,7.76,7.76,0,0,0,.27,6.93,3.89,3.89,0,0,1,.54-1,1.85,1.85,0,0,1-.21-.45,3.11,3.11,0,0,1,.08-1.57,1.25,1.25,0,0,1,.53-.85,1,1,0,0,1,1.15.35,2.19,2.19,0,0,1,.33.77,9.51,9.51,0,0,0,2.42-2.18,11.34,11.34,0,0,0,5.31.6C47.56,195.72,47.75,194.12,46.6,193.15Z"/><path class="cls-11" d="M48.27,193.49a3.71,3.71,0,0,0-1.68-1.64,15.48,15.48,0,0,0-6-1.43A7.25,7.25,0,0,0,37,194.5a11,11,0,0,0,5.26,2.86,19,19,0,0,0,6,.39C48.12,196.33,48.84,194.81,48.27,193.49Z"/><path class="cls-10" d="M50.37,199.76c.17,0,.33.12.5.15a.39.39,0,0,0,.44-.19c.09-.21-.13-.42-.31-.55a11.9,11.9,0,0,0-4.63-2.35c-1.87-.33-3.83.25-5.7-.14a2.32,2.32,0,0,0,1,.88l3,1.75a10.22,10.22,0,0,0,2,1,3.29,3.29,0,0,0,2.21-.05C49.42,200,49.87,199.66,50.37,199.76Z"/><path class="cls-10" d="M72.85,216.82l3-2.77A.91.91,0,0,1,77,214l1.5,1.16a.67.67,0,0,1,.12.93l-.69.86-1-.55.36-.66-.87-.68-2.71,3Z"/><path class="cls-7" d="M76.14,217.85l-2.06-1.95a.65.65,0,0,0-.88,0l-3,2.7h0a1.39,1.39,0,0,1-.08,2.08L61,228.14a5.85,5.85,0,0,0-2.18,2.68,1.93,1.93,0,0,0,0,1.19,1.19,1.19,0,0,0,.86.78c.62.1,1.16-.39,1.59-.83l10-10.36a1.54,1.54,0,0,1,2.13-.07h0l2.74-2.73A.67.67,0,0,0,76.14,217.85Z"/><rect class="cls-10" x="71.45" y="217.17" width="2.64" height="1.02" transform="translate(-126.9 104.49) rotate(-41.97)"/><path class="cls-10" d="M37.59,217.45a12.69,12.69,0,0,0-1.67-4,3.79,3.79,0,0,0-3.73-1.65,3.62,3.62,0,0,0-2.46,2.79A8.38,8.38,0,0,0,30,218.5a33.55,33.55,0,0,0,3.58,8.44c1.9-1.07,4-2.41,6.16-3.48C38.92,221.49,38.2,219.48,37.59,217.45Z"/><path class="cls-5" d="M66.23,225.84l-1.31-.8a1.66,1.66,0,0,0-1.44-.35,4,4,0,0,1-.36.18c-.47.15-.92-.29-1.41-.31a1.59,1.59,0,0,0-1,.49,3,3,0,0,1-1.14.6,29.41,29.41,0,0,1-3.25.56c-1,.17-2,.36-3.07.54-2.27.4-4.55.79-6.84,1-.8.08-1.6.15-2.4.19a8.5,8.5,0,0,1-2.24,0c-.73-1.49-1.4-3-2-4.56-2.17,1.07-4.26,2.41-6.16,3.48a81.83,81.83,0,0,0,4.58,7,4.23,4.23,0,0,0,1.38,1.41,4.39,4.39,0,0,0,3.35-.1c5.06-1.52,10.05-3.26,15-5.17a9.53,9.53,0,0,1,.93-.25,4.5,4.5,0,0,1,.48.16c.33.16.58.45.91.61a2.74,2.74,0,0,0,1.17.18h2.33a.6.6,0,0,0,.35-.07c.28-.17.19-.63.44-.83s.66,0,.9-.23.08-.66.26-.94.65-.32.74-.65-.2-.58-.06-.82a.75.75,0,0,1,.15-.16.8.8,0,0,0,.33-.42C66.86,226.3,66.52,226,66.23,225.84Z"/><rect class="cls-10" x="73.39" y="217.25" width="0.48" height="1.5" transform="translate(-137.78 127.18) rotate(-48.09)"/><polygon class="cls-10" points="76.15 221.64 75.33 220.21 76.15 218.78 77.8 218.78 78.63 220.21 77.8 221.64 76.15 221.64"/><path class="cls-10" d="M127,188.3a29.56,29.56,0,0,0-2.75-7.2c-1.33-2.24-1.9-3.35-4.55-4.26s-8.19-.86-10.1,1A6.75,6.75,0,0,0,107.8,183a22.34,22.34,0,0,0,1.13,5.38,126.73,126.73,0,0,1,4.7,25,16.09,16.09,0,0,0,15.65-2.67,5.42,5.42,0,0,0,1.9-2.77,6.23,6.23,0,0,0-.34-3C129.31,199.55,128.54,193.66,127,188.3Z"/><path class="cls-7" d="M134,276c.32-.85-.31-2.49-.45-3.38s-1.17-1.74-1.08-2.64c-1.4-.05-2.57.32-4,.27a2,2,0,0,1-1.16,2.14,10,10,0,0,1-2.67.8,4.33,4.33,0,0,0-2.42,1.21,1.33,1.33,0,0,0-.34.83,5,5,0,0,0,.07.77Z"/><path class="cls-8" d="M129.79,208.7c2.15,5.37,1.65,11.42.61,17.11S127.8,237.17,128,243c.24,9.62,5.18,18.71,5.07,28.33-1.82.47-3.22,1.55-5.76.92-2.11-5.42-3.91-10.35-6-15.78-1.76-4.53-3.53-9.13-4.06-14-1.17-10.66,3.81-21.63,1-32l10.91-4.05Z"/><path class="cls-7" d="M117.88,280.18c.35-.85-.07-2.26-.24-3.15a8.27,8.27,0,0,1-.19-2.58c-1.56,0-4.12,0-5.67,0,.28.82-.4,1.69-1.29,2.14a11.73,11.73,0,0,1-3,.8,5,5,0,0,0-2.68,1.22,1.25,1.25,0,0,0-.38.82,3.87,3.87,0,0,0,.08.77Z"/><path class="cls-9" d="M111.12,275.63l8.52-.79A85.7,85.7,0,0,1,124,233.52c1.48-4.05,3.29-8.06,3.65-12.36.33-3.86-.54-7.71-1.39-11.48a57.55,57.55,0,0,1-11.34,1.07q-1.23,8.85-2.47,17.68a147.58,147.58,0,0,0-1.87,19.77C110.54,257.36,112.18,266.54,111.12,275.63Z"/><path class="cls-5" d="M120.29,177.74a23,23,0,0,0-7.94,2.3,12.59,12.59,0,0,0-2.19-6.29c1.72.16,3-.84,4.59-1.59A21.15,21.15,0,0,0,120.29,177.74Z"/><path class="cls-10" d="M109.91,170a2.59,2.59,0,0,0-1.91-1,5.41,5.41,0,0,0-2.17.35,1.78,1.78,0,0,0-1.07.75,2.18,2.18,0,0,0-.16.88c-.14,1.58-1.09,3-1.21,4.58,0,.44,0,1,.46,1.16a1.43,1.43,0,0,0,1.16-.25,7.07,7.07,0,0,1,2.19-.73,3.89,3.89,0,0,0,1.92-.57,3,3,0,0,0,.8-1.48,8,8,0,0,0,.44-1.88A2.74,2.74,0,0,0,109.91,170Z"/><path class="cls-5" d="M110.56,164.57a5.08,5.08,0,0,0-3.74,1.18,7,7,0,0,0-2,6.08,10.91,10.91,0,0,0,2.92,6.33,2,2,0,0,0,1.39.77,2.2,2.2,0,0,0,.75-.24,10.74,10.74,0,0,0,4.68-4.19,7.51,7.51,0,0,0,.68-6.13A5.74,5.74,0,0,0,110.56,164.57Z"/><path class="cls-7" d="M105.13,170.37a2.26,2.26,0,0,0,1.48,1.85,2.56,2.56,0,0,1,0-.78.84.84,0,0,1,.41-.63,1,1,0,0,1,1.09.35,2.19,2.19,0,0,1,.52,1.85,10.11,10.11,0,0,0,3.43.06,5.47,5.47,0,0,1,3.35.56,7.75,7.75,0,0,0-1.11-7.22,2.69,2.69,0,0,0-1.13-.94,2.91,2.91,0,0,0-1.06-.12,9.16,9.16,0,0,0-4.21.88,4.29,4.29,0,0,0-2.37,3.42Z"/><path class="cls-11" d="M111.43,163.35a3.66,3.66,0,0,0-2,0,9.2,9.2,0,0,0-2.84,1,5.58,5.58,0,0,0-2.14,2.09,5.64,5.64,0,0,0-.59,3.13,9,9,0,0,0,.91,3.08,27.91,27.91,0,0,1,2.49-3.32,9.53,9.53,0,0,1,3.31-2.46,5.78,5.78,0,0,1,4.05-.23,10,10,0,0,0-1.7-2.13A4.09,4.09,0,0,0,111.43,163.35Z"/><path class="cls-10" d="M122.31,183.51a7.82,7.82,0,0,0-1.39-5.06,2.88,2.88,0,0,0-2.37-1.35c-1.24.1-2,1.34-2.47,2.44-1.31,3-2.25,6.13-3.49,9.14a7.65,7.65,0,0,0,6.92,2.86,28.88,28.88,0,0,0,1.45-2.89A14.94,14.94,0,0,0,122.31,183.51Z"/><path class="cls-5" d="M112.59,188.68c-.11.28-.21.55-.33.82A39.13,39.13,0,0,1,101,204.73a6.61,6.61,0,0,0-1.6.42,2,2,0,0,0-.95,1,5.87,5.87,0,0,1-1.44,2,9.16,9.16,0,0,1-.92.61c-.16.09-.87.32-.93.46a.4.4,0,0,0,.17.47,1.11,1.11,0,0,0,.53.17c.58.09,1.16.14,1.74.2a16.08,16.08,0,0,0,2.28-.26,4.75,4.75,0,0,0,1.4-.21,4,4,0,0,0,2-1.65c.46-.7,1.24-1.09,1.53-1.88,5.5-4.31,11.4-8.59,14.75-14.5A7.65,7.65,0,0,1,112.59,188.68Z"/><path class="cls-10" d="M126.93,188.17a29.94,29.94,0,0,0-2.74-7.2c-1.34-2.24-1.91-3.35-4.56-4.26s-8.18-.86-10.09,1a6.76,6.76,0,0,0-1.83,5.09,21.89,21.89,0,0,0,1.14,5.38,127.44,127.44,0,0,1,4.69,25,16.08,16.08,0,0,0,15.65-2.67,5.5,5.5,0,0,0,1.91-2.77,6.36,6.36,0,0,0-.35-3C129.23,199.42,128.46,193.53,126.93,188.17Z"/><path class="cls-11" d="M116.76,188a14.48,14.48,0,0,0-1-5.17,7.81,7.81,0,0,0-3.46-3.88,1.82,1.82,0,0,0-2.84.85,9,9,0,0,0-.87,4.65,27,27,0,0,0,.83,4.71q1.19,5,2.36,9.89a8.79,8.79,0,0,0,4.12-4.73A15.75,15.75,0,0,0,116.76,188Z"/><path class="cls-9" d="M114,202.44a1.41,1.41,0,0,0-.85.68c-1.08-5.44-2.15-10.88-2.85-16.38a37.75,37.75,0,0,1-.39-6.46,6.67,6.67,0,0,1,.35-2.08,2.77,2.77,0,0,1,1.35-1.56C111,185.28,112.47,193.92,114,202.44Z"/><path class="cls-9" d="M122.25,209.79c-5.21,0-7.78-6.26-8.82-11.48-.7,0-1.13-.36-1.94.35,1,4.86,1.05,10,1.47,14.94a17.44,17.44,0,0,0,16.32-2.92,5.83,5.83,0,0,0,1.79-2.45A13.75,13.75,0,0,1,122.25,209.79Z"/><path class="cls-9" d="M131,208.42c0-.08.22-.84.19-.93q-1.83-4.87-3.67-9.76c-2-5.22-4-10.51-7.21-15-1.61-2.25-4-3.8-5.66-6a1.16,1.16,0,0,0-1.58-.33A54.46,54.46,0,0,1,124,191.71c2.6,5.38,4.51,11.56,6.46,17.21C130.69,208.71,130.75,208.64,131,208.42Z"/><path class="cls-9" d="M124,181.94a8.89,8.89,0,0,0-.7-2.7c-.4-.84-.51-1.2-1.41-1.45,2.09,4.39,1.38,8.4,1.65,13.26A68.6,68.6,0,0,1,121.25,212c.59-.08,2.82-.45,3.41-.53C125,201.59,125.41,191.68,124,181.94Z"/><path class="cls-5" d="M110.74,193c-2.76-.21-5.24-1.08-7-4-.15.28-.3.58-.46.86a43.7,43.7,0,0,1-14.49,15.06l-1.47-.07a5.31,5.31,0,0,0-1.54.06c-.55.12-1.06.41-1.61.58L83,205.8a1,1,0,0,0-.49.28.44.44,0,0,0-.06.53.65.65,0,0,0,.54.18c.51,0,.39.22.87.05a3.16,3.16,0,0,1,2.54,0,10.09,10.09,0,0,1-4.05,2.38.47.47,0,0,0,.13.55A1.22,1.22,0,0,0,83,210c.6.17,1.22.3,1.83.44a17,17,0,0,0,2.47,0,5.16,5.16,0,0,0,1.52,0,4.31,4.31,0,0,0,2.35-1.56c.59-.71,1.48-1,1.9-1.87C99.5,203,106.38,199,110.74,193Z"/><path class="cls-10" d="M114.94,184.36a9.18,9.18,0,0,0-.84-5.93,3.21,3.21,0,0,0-2.44-1.86c-1.38,0-2.38,1.26-3.07,2.45-1.85,3.22-3.32,6.66-5.11,9.92,1.84,3.05,4.41,3.95,7.26,4.17a33.18,33.18,0,0,0,2-3.09A17.66,17.66,0,0,0,114.94,184.36Z"/><path class="cls-7" d="M81.3,258.38H60.46V249.3H81.3Zm-19.84-1H80.3V250.3H61.46Z"/><polygon class="cls-10" points="79.89 253.6 62.12 253.6 59.67 258.72 59.67 265.44 82.34 265.44 82.34 258.72 79.89 253.6"/><rect class="cls-10" x="64.71" y="248.59" width="12.86" height="2.42"/><rect class="cls-7" x="60.63" y="258.55" width="21.06" height="0.56"/><path class="cls-7" d="M71.93,263.32H70.47a1.21,1.21,0,0,1-1.21-1.2v-4.55a1.21,1.21,0,0,1,1.21-1.2h1.46a1.2,1.2,0,0,1,1.2,1.2v4.55A1.2,1.2,0,0,1,71.93,263.32Zm-1.46-5.95a.2.2,0,0,0-.21.2v4.55a.2.2,0,0,0,.21.2h1.46a.2.2,0,0,0,.2-.2v-4.55a.2.2,0,0,0-.2-.2Z"/><path class="cls-2" d="M280.45,217.29c-1.74-7.42-1-14.94-2.3-22.38a24.83,24.83,0,0,0-8.66-14.9c-7.25-6.09-15.47-6.59-24.24-8.14-9.67-1.71-14.88-8.52-22.14-14.65-13.73-11.59-35.92-11.43-45.83,5.53-4.95,8.46-5.31,18.87-6.08,28.48q-.66,8.4-1.33,16.79c-.33,4.18-.11,9.7-3.66,12.51-3.21,2.53-7.8,2.24-11.31,4.25a21.92,21.92,0,0,0-8,8.43c-4.7,8.44-4.47,18.42-2.53,27.7L289,260.78C291.62,245.63,283.79,231.54,280.45,217.29Z"/><path class="cls-3" d="M143.89,257.7c.19,8.13,2.32,19.21,9,25,5.12,4.39,14.17,6.52,21.4,6.85s14.51-.44,21.73.05a146.84,146.84,0,0,1,29.54,4.5c10.65,2.74,22.21,4.56,32.78,1.6A33.14,33.14,0,0,0,275,285.13c2.31-2.81,4-6,6.43-8.7s5.55-5,7.59-8,2.75-7,.2-9.68Z"/><rect class="cls-15" x="188.55" y="154.38" width="4.93" height="106.92"/><rect class="cls-7" x="188.55" y="161.04" width="4.93" height="6.53"/><rect class="cls-15" x="212.06" y="154.38" width="4.93" height="106.92"/><rect class="cls-7" x="212.06" y="161.04" width="4.93" height="6.53"/><rect class="cls-7" x="212.06" y="176.8" width="4.93" height="6.53"/><rect class="cls-15" x="158.3" y="155.55" width="81.33" height="6.2"/><rect class="cls-15" x="272.32" y="175.24" width="4.93" height="86.07"/><rect class="cls-15" x="212.2" y="174.59" width="65.05" height="4.93"/><path class="cls-10" d="M183.79,189.53a8.15,8.15,0,0,0-1.33-4.67c-2-2.79-5.91-3.35-8.59-5.5-1.79-1.44-2.91-2-4-4.07,0,0-5.65,4.86-6.12,8.29s.09,6.89.49,10.33a144.56,144.56,0,0,1,.86,15c5.58,2.22,11.81,1.71,17.66.36a45.68,45.68,0,0,1,.45-14.84A29.9,29.9,0,0,0,183.79,189.53Z"/><path class="cls-16" d="M186.2,180.28a41.37,41.37,0,0,1-6.92,4.9,3.1,3.1,0,0,0-1.29,1.08c-1.5,2.67,1.61,7.61,4.81,6,1.64-.84,3.14-3.93,4.5-5.18.9-.85,1.76-1.74,2.59-2.66A5.43,5.43,0,0,1,186.2,180.28Z"/><path class="cls-5" d="M203.06,164.41a.34.34,0,0,0-.15.07,4.16,4.16,0,0,1-2,1.14,8.74,8.74,0,0,0,1.29-2.79c.08-.38.13-.69-.16-.94-.25-.09-.44.83-.66,1.27a5.35,5.35,0,0,1-1.28,1.45,12.28,12.28,0,0,0,.86-4,.27.27,0,0,0-.13-.26c-.13-.07-.29.06-.37.18a3.46,3.46,0,0,0-.35,1,8.61,8.61,0,0,1-.58,1.61c-.11.25-.3.65-.58.69a11.62,11.62,0,0,0,.58-3.3.49.49,0,0,0-.38-.49c-.4.33-.37.88-.48,1.34a6.79,6.79,0,0,1-1.28,2.76.37.37,0,0,1-.24.17.24.24,0,0,1-.2,0c-.34-.21-.32-.7-.26-1.09s.08-.88-.25-1.1a1,1,0,0,0-.3-.12c-.09,0-.2,0-.25,0a.25.25,0,0,0,0,.17,2.65,2.65,0,0,1-.1,1.25,10.24,10.24,0,0,0-.37,1.06c-.19,1.06.67,2.09.56,3.16a41.78,41.78,0,0,1-9.79,12.61,5.43,5.43,0,0,0,3.69,4.11,46.82,46.82,0,0,0,8.82-15.4c.22-.24.52-.39.76-.62a7.16,7.16,0,0,0,.63-.8c.85-1,2.31-1.51,3.06-2.63a.54.54,0,0,0,.11-.32A.21.21,0,0,0,203.06,164.41Z"/><path class="cls-7" d="M179.57,266.25a6,6,0,0,1,.21-2.81,7.09,7.09,0,0,0,.18-2.3c1.38,0,3.66,0,5,0-.25.73.35,1.5,1.14,1.9a10.38,10.38,0,0,0,2.64.71,4.49,4.49,0,0,1,2.39,1.09,1.08,1.08,0,0,1,.34.73,3.25,3.25,0,0,1-.08.69Z"/><path class="cls-8" d="M172.7,208.6h-.07c-.66,10.09,2,20,3.68,30a169.75,169.75,0,0,1,2.42,24.15,22.55,22.55,0,0,0,6.71-1,262.5,262.5,0,0,0-2.66-53.15Z"/><path class="cls-7" d="M168.35,268.43c.85,0,1.7,0,2.54-.07a1.7,1.7,0,0,0,1.27-.47,1.94,1.94,0,0,0,.18-1.2,15.05,15.05,0,0,0-.52-5.3,10,10,0,0,1-3.52-.47,1.89,1.89,0,0,1-.17,1.78c-.31.54-.75,1-1.1,1.51a4.73,4.73,0,0,0-.74,2.27,1.9,1.9,0,0,0,.47,1.52A2.3,2.3,0,0,0,168.35,268.43Z"/><path class="cls-9" d="M165.38,208.6a366.07,366.07,0,0,1,1.21,54.71,24,24,0,0,0,7.93-.12c.38-18.23,3.87-36.43,2.36-54.59Z"/><path class="cls-16" d="M177.8,168.85a4.17,4.17,0,0,0-4.17-.83,5.12,5.12,0,0,0-3,3.07,6.67,6.67,0,0,0,0,4.39,4.24,4.24,0,0,0,1.64,2.32,3.7,3.7,0,0,0,4.19-.49,7.06,7.06,0,0,0,2.14-3.88,6.23,6.23,0,0,0,0-3.29,3.06,3.06,0,0,0-2.3-2.16Z"/><path class="cls-7" d="M178.18,169.77a3.63,3.63,0,0,0-3.63-.72,4.44,4.44,0,0,0-2.64,2.67,5.73,5.73,0,0,0,0,3.81,3.68,3.68,0,0,0,1.42,2,3.21,3.21,0,0,0,3.64-.43,6.08,6.08,0,0,0,1.86-3.37,5.34,5.34,0,0,0,0-2.86,2.64,2.64,0,0,0-2-1.87Z"/><path class="cls-5" d="M181.37,174a5.23,5.23,0,0,0-1-2.4l0-.4a.85.85,0,0,0-.07-.59c-.19-.25-.57-.22-.89-.17s-.51,0-.77.06l-.16-.09c-.53-.31-.59-.66-1.17-.85a4.13,4.13,0,0,0-2.66-.12c-1.48.58-2.52,3.12-2.35,4.7a2.8,2.8,0,0,0,1.06,1.87,27.31,27.31,0,0,1-.59,5.1l6.61,2.66a19.84,19.84,0,0,1-1.08-4.69,10.2,10.2,0,0,0,1.91-1.34c.31-.31,1.73-.92,1.74-1.36C182.05,175.45,181.46,174.92,181.37,174Z"/><path class="cls-7" d="M174.23,174.48a7.22,7.22,0,0,1-1.29-1.94,2.42,2.42,0,0,1-.25-.91,1,1,0,0,1,.36-.84,9.31,9.31,0,0,0,3.58,4.36A9,9,0,0,0,182,176.5a1.08,1.08,0,0,1-.6.67,2.54,2.54,0,0,1-.91.05A9.39,9.39,0,0,1,174.23,174.48Z"/><path class="cls-7" d="M174.29,174.34a14.61,14.61,0,0,1-1,2.84,6.11,6.11,0,0,1-1.22-3.47,5.42,5.42,0,0,1,1.17-3.25,1.72,1.72,0,0,0,.49,1.69c-.64,0-1.23,1-1.09,1.59S173.72,174.61,174.29,174.34Z"/><path class="cls-10" d="M183.79,189.53a8.15,8.15,0,0,0-1.33-4.67c-2-2.79-5.91-3.35-8.59-5.5-1.79-1.44-2.91-2-4-4.07,0,0-5.65,4.86-6.12,8.29s.09,6.89.49,10.33a144.56,144.56,0,0,1,.86,15c5.58,2.22,11.81,1.71,17.66.36a45.68,45.68,0,0,1,.45-14.84A29.9,29.9,0,0,0,183.79,189.53Z"/><path class="cls-16" d="M169.05,194.18a2.31,2.31,0,0,1-1.7.58c-.91-.17-1.37-1.17-1.62-2a22.66,22.66,0,0,1-.88-7.32c.13-2.91,1-6,3.3-7.76a2.07,2.07,0,0,1,2.11-.44,2.38,2.38,0,0,1,.89,1.17,17.54,17.54,0,0,1,1.73,8.37A10.2,10.2,0,0,1,169.05,194.18Z"/><path class="cls-9" d="M183.25,194.62c-5.77-1.48-11.48-1.5-15.23,4.93a3.85,3.85,0,0,1-3.2.79c.19,2.93.29,5.91.3,8.57,5.58,2.22,11.81,1.71,17.66.36-.81-4.91-.18-6.68.23-12.06C183,197,183.21,194.86,183.25,194.62Z"/><path class="cls-9" d="M174.14,180.94a5.38,5.38,0,0,0-.46-1.54,5.66,5.66,0,0,0-2.08-1.92,29.21,29.21,0,0,1,2,9.75,74,74,0,0,1-.38,10l2.06-.09A66.55,66.55,0,0,0,174.14,180.94Z"/><path class="cls-9" d="M182.82,188.85a11.67,11.67,0,0,0-.26-3.23,4,4,0,0,0-1.87-2.55,26.1,26.1,0,0,1,.76,12.35,3.34,3.34,0,0,1,1.27.38C182.75,193.48,182.79,191.17,182.82,188.85Z"/><path class="cls-10" d="M164.68,174.64a50.23,50.23,0,0,0-.89,6.91,10.77,10.77,0,0,0,.36,4.27,4.15,4.15,0,0,0,3,2.83,4,4,0,0,0,4-2.18,8.17,8.17,0,0,0,.73-4.74c-.15-1.61-.53-3.21-.62-4.83a16.26,16.26,0,0,1,0-1.71A5.53,5.53,0,0,1,164.68,174.64Z"/><path class="cls-5" d="M181,154.4a.79.79,0,0,0-.51-.08.69.69,0,0,1-.2,0c-.25-.09-.26-.48-.48-.62s-.63.11-.93,0-.47-.5-.78-.5-.48.4-.78.42-.54-.36-.84-.31a.64.64,0,0,0-.29.18L174.52,155a2.48,2.48,0,0,0-.71.87c-.13.33-.12.69-.25,1a2.52,2.52,0,0,1-.24.42l-1,1.62a30.08,30.08,0,0,0-6.11,10.32,39.38,39.38,0,0,0-1.48,5.41,5.53,5.53,0,0,0,6.58.55,31.85,31.85,0,0,1,1.31-6.51,36.69,36.69,0,0,1,2.88-7.54c.31-.48.63-1,1-1.41a.81.81,0,0,1,.16-.16c.07,0,.35-.43.43-.44l.95-.1a1.58,1.58,0,0,0,.93-.32c.34-.32,1.32-3,1.79-3.1s.32.11.46-.36A.74.74,0,0,0,181,154.4Z"/><path class="cls-7" d="M249.8,269.19a1.15,1.15,0,0,0,.33-.87,22.79,22.79,0,0,0,0-4.13,17.3,17.3,0,0,1-5.22-.52,3.62,3.62,0,0,1-2.31,2.14c-1,.4-2.11.57-3.1,1a3.35,3.35,0,0,0-2.11,2.32.72.72,0,0,0,.1.56.82.82,0,0,0,.61.24,49.27,49.27,0,0,0,11.11-.57A1.31,1.31,0,0,0,249.8,269.19Z"/><path class="cls-8" d="M251.21,206.33a14.7,14.7,0,0,0-.41,1.48c-5.17,18.6-7,33.25-6.94,56.25,1.68.86,4.91,1,6.82.9,1.29-14.09,3.14-27.73,8.09-41.06,2.13-5.74,4.62-11.53,4.94-17.57Z"/><path class="cls-7" d="M270.1,272c.84,0,1.69,0,2.54-.08a1.65,1.65,0,0,0,1.26-.47,1.9,1.9,0,0,0,.18-1.19,14.78,14.78,0,0,0-.51-5.3,10.22,10.22,0,0,1-3.52-.47,1.92,1.92,0,0,1-.17,1.78c-.31.54-.76,1-1.1,1.51A4.63,4.63,0,0,0,268,270a1.9,1.9,0,0,0,.47,1.52A2.36,2.36,0,0,0,270.1,272Z"/><path class="cls-9" d="M269.59,208.85l-.13-2.77-13.82.25a173.68,173.68,0,0,0,4.18,27.82c2.43,10.72,5.18,21.6,8.55,32.08a4.45,4.45,0,0,0,6.25-1.72,163.13,163.13,0,0,1-4-34.58C270.5,222.52,272.24,215.82,269.59,208.85Z"/><path class="cls-10" d="M250.41,177.86c-.57-1.78-2.1-3.57-4-3.6-1.92,3.31-2.75,7.24-4.15,10.84a15.54,15.54,0,0,1,6.08,3.76,25.51,25.51,0,0,0,2-5.5A10.09,10.09,0,0,0,250.41,177.86Z"/><path class="cls-5" d="M242.79,184.63a33.56,33.56,0,0,1-2,3.49,16.76,16.76,0,0,0-2-1.35c-3.14-1.85-6.42-3.64-8.88-6.27l-2.33,2c3.62,4.81,7.37,9.74,12.59,12.95,1.82,1.11,3.66-.71,4.86-1.94a18.8,18.8,0,0,0,3.28-4.68C246.48,187.12,245,185.33,242.79,184.63Z"/><path class="cls-7" d="M230.37,184.08a6.07,6.07,0,0,0-3.64-6.37,2,2,0,0,0-1.35-.17,5.16,5.16,0,0,1-.1,3,3.07,3.07,0,0,0-.3,1.38,1.84,1.84,0,0,0,.49.92A4.58,4.58,0,0,0,230.37,184.08Z"/><path class="cls-10" d="M224.16,185c-.5-.43-1-1-.94-1.62a1.87,1.87,0,0,1,.47-.86l2.9-3.66c.79-1,1.63-2.18,1.39-3.43l3.14,2.06c-1.81,2.22-1.88,5.55-3.88,7.6a2.13,2.13,0,0,1-1.45.75A2.64,2.64,0,0,1,224.16,185Z"/><rect class="cls-7" x="221.13" y="167.77" width="3.61" height="3.76" transform="translate(-48.17 240.22) rotate(-51.86)"/><path class="cls-7" d="M228.5,177a.38.38,0,0,0-.12-.21,10.49,10.49,0,0,0-1.88-1.64,1.42,1.42,0,0,1-.22,1.58c-.21.21-.49.39-.56.68a.87.87,0,0,0,.46.86,4.21,4.21,0,0,1,.85.6l1.35-1.6A.42.42,0,0,0,228.5,177Z"/><rect class="cls-7" x="220.1" y="167.55" width="2.11" height="1.68" transform="translate(-47.86 238.34) rotate(-51.86)"/><rect class="cls-7" x="221.71" y="164.48" width="0.74" height="9.26" transform="translate(-48.08 239.34) rotate(-51.86)"/><path class="cls-10" d="M222.55,172.33l8,6.25a.49.49,0,0,0,.67-.08l1.52-1.94a1.59,1.59,0,0,0-.27-2.23l-7.09-5.57Z"/><path class="cls-7" d="M224.67,172.23a.52.52,0,0,1-.52.52.52.52,0,1,1,0-1A.52.52,0,0,1,224.67,172.23Z"/><rect class="cls-7" x="230.25" y="173.13" width="0.38" height="3.22" transform="translate(-46 259.7) rotate(-54.26)"/><rect class="cls-7" x="229.68" y="173.82" width="0.38" height="3.22" transform="translate(-46.79 259.53) rotate(-54.26)"/><rect class="cls-7" x="229.21" y="174.48" width="0.37" height="3.22" transform="translate(-47.52 259.43) rotate(-54.26)"/><path class="cls-5" d="M230.81,179.93c-.15-.44-.08-.94-.26-1.37a2.21,2.21,0,0,0-1.86-1.07,4.77,4.77,0,0,1-2.16-.51.76.76,0,0,0,.08.91,2,2,0,0,0,.83.53,2.8,2.8,0,0,1,.86.48c.5.49.48,1.28.64,2a2.31,2.31,0,0,0,.56,1.1c.29.29.73.29,1.13.42,1.23.41.79-.38.85-.8C231.56,181,231,180.51,230.81,179.93Z"/><path class="cls-5" d="M226.36,177.49a.68.68,0,0,0-.39-.37,1.81,1.81,0,0,0-.51-.08.57.57,0,0,0-.29,0,.35.35,0,0,0-.16.27.67.67,0,0,0,.14.51,1.18,1.18,0,0,0,.43.34.63.63,0,0,0,.48.07.55.55,0,0,0,.28-.35A.64.64,0,0,0,226.36,177.49Z"/><path class="cls-5" d="M226.87,179.07a1.25,1.25,0,0,0-.81-.59.47.47,0,0,0-.35,0,.39.39,0,0,0-.15.27.86.86,0,0,0,.16.6,1.46,1.46,0,0,0,.48.41.6.6,0,0,0,.51.1.44.44,0,0,0,.28-.37A.83.83,0,0,0,226.87,179.07Z"/><path class="cls-5" d="M225.69,179.38a.4.4,0,0,0-.34,0,.46.46,0,0,0-.18.37,1.29,1.29,0,0,0,.34,1,.67.67,0,0,0,.39.2.51.51,0,0,0,.48-.42.88.88,0,0,0-.16-.66A1,1,0,0,0,225.69,179.38Z"/><path class="cls-5" d="M225.19,180.24a.33.33,0,0,0-.27,0,.42.42,0,0,0-.23.36,1.14,1.14,0,0,0,.21.86.52.52,0,0,0,.49.26.44.44,0,0,0,.32-.38,1.11,1.11,0,0,0-.1-.51A1,1,0,0,0,225.19,180.24Z"/><path class="cls-10" d="M260,172.08a6.73,6.73,0,0,1,4.31.89,6.36,6.36,0,0,1,1.91,3.27c3.4,10.22,4.31,20.39,4.16,31.11-7.56-.66-12.37-.45-20-.47a50,50,0,0,0-1.67-18.17c-.66-2.39-1.67-4.67-2.42-7s-1.06-5.17,0-7.43A50.81,50.81,0,0,1,260,172.08Z"/><path class="cls-16" d="M266.18,176.24a8.86,8.86,0,0,0-1.16-2.49c-2.36.18-4.37,2.32-4.37,3.13.55,10.35.48,20.4-1.17,30.14,4.13.17,6.75,0,10.86.33C270.49,196.63,269.58,186.46,266.18,176.24Z"/><path class="cls-9" d="M248.76,189a49.78,49.78,0,0,1,1.61,17.92c6.77,3.63,12.38-.17,20,.47A109.62,109.62,0,0,0,269.22,189Z"/><path class="cls-8" d="M260.94,189.37a125.25,125.25,0,0,1-1.33,18.56c4.13.17,6.62-.94,10.73-.58a111.31,111.31,0,0,0-1-18Z"/><path class="cls-9" d="M258.69,177a51.85,51.85,0,0,0,.28,13.46.91.91,0,0,0,.27.63c.48.36,1.16-.39,1.71-.17a51.65,51.65,0,0,1,.14-18.88,1.2,1.2,0,0,0-1.48.42,3.29,3.29,0,0,0-.52,1.57C258.93,175,258.8,176,258.69,177Z"/><path class="cls-9" d="M249.84,190.42l1.44.11a49.83,49.83,0,0,1-2.67-8.24,25.26,25.26,0,0,1-.47-8.62,1,1,0,0,0-1.14,1.09A35.82,35.82,0,0,0,249.84,190.42Z"/><path class="cls-10" d="M269.93,186.63a44.4,44.4,0,0,0-1.29-7.11,13.61,13.61,0,0,0-1.9-4.49,6.22,6.22,0,0,0-4.08-2.69l-2.17-.05a6.64,6.64,0,0,0-1.18,5.44,29.72,29.72,0,0,0,1.82,5.44,37,37,0,0,1,1.29,4.2A12.53,12.53,0,0,1,269.93,186.63Z"/><path class="cls-5" d="M266.23,210a46.33,46.33,0,0,0,3.7-23.36,12.53,12.53,0,0,0-7.51.74c1.84,7.48,1.75,14.42-.94,21.43a5.62,5.62,0,0,0-2,1.63c-.21.4-.29.85-.46,1.27a3.11,3.11,0,0,1-.87,1.25c-.05,0-.11.09-.11.16s.1.19.2.24a1.53,1.53,0,0,0,.38.12c.48,0,.82-.43,1.07-.85s.6-.88,1.07-.82a.36.36,0,0,1,.24.11.5.5,0,0,1,.09.34,8.36,8.36,0,0,1-.92,3.56c-.25.52-.7,1-.58,1.63a.6.6,0,0,0,.74-.16,14.15,14.15,0,0,0,2-3.54c.23.25.1.76,0,1.09a11.34,11.34,0,0,1-.7,1.95,4.09,4.09,0,0,0-.44,1.21c0,.18,0,.42.22.45a.32.32,0,0,0,.31-.14,15,15,0,0,0,2.23-4.37,6.53,6.53,0,0,1,.1,2.33c-.13.58-.66,1.59-.36,1.7.46,0,.65-.35.87-.76a10.81,10.81,0,0,0,.93-3.6,5.08,5.08,0,0,1,1,2.58.43.43,0,0,0,.08.18.26.26,0,0,0,.37,0,.69.69,0,0,0,.13-.38c.16-1.62-.85-3.17-.85-4.8A8.86,8.86,0,0,0,266.23,210Z"/><path class="cls-10" d="M247.61,156.92a6,6,0,0,0-2.68,4.56,7.56,7.56,0,0,0,.53,4.18,3.26,3.26,0,0,0,2.67,2.09,3.85,3.85,0,0,0,1.45-.34,16.54,16.54,0,0,0,6.4-4.59,4.52,4.52,0,0,0,1.31-2.79,3.31,3.31,0,0,0-1-2.2,6.36,6.36,0,0,0-2-1.33A7.37,7.37,0,0,0,247.61,156.92Z"/><path class="cls-7" d="M255.06,158.08a6.67,6.67,0,0,0-5.67,1.15,7.42,7.42,0,0,0-2.82,5.09,3.74,3.74,0,0,0,.15,1.76,1.91,1.91,0,0,0,1.21,1.22,2.8,2.8,0,0,0,2-.38,17.07,17.07,0,0,0,6-4.85,5,5,0,0,0,.83-1.43,1.94,1.94,0,0,0-.13-1.6A2.39,2.39,0,0,0,255.06,158.08Z"/><path class="cls-7" d="M246.89,160.79c0,.23-.07.42-.16.42s-.16-.19-.16-.42.07-.42.16-.42S246.89,160.56,246.89,160.79Z"/><path class="cls-7" d="M246.07,163.34c0,.23-.07.42-.15.42s-.16-.19-.16-.42.07-.43.16-.43S246.07,163.1,246.07,163.34Z"/><path class="cls-16" d="M253.47,156.2a8.4,8.4,0,0,0-6.21,3.61,9.07,9.07,0,0,1,6.61-2.3,4.53,4.53,0,0,1,2.25.65,2.34,2.34,0,0,1,1.13,2,2.35,2.35,0,0,0-.53-3.08A4.46,4.46,0,0,0,253.47,156.2Z"/><path class="cls-5" d="M256,172.8a27,27,0,0,0-1.7-5l-3,.42a1.11,1.11,0,0,0-.69.26,1,1,0,0,0-.2.64L250,173.8a2.38,2.38,0,0,0-1.32,1.32,2.34,2.34,0,0,0,1.05,2.43,4.92,4.92,0,0,0,5.39.07,6,6,0,0,0,2.66-4.65A17.11,17.11,0,0,0,256,172.8Z"/><path class="cls-5" d="M254.2,159.32c.85,0,1.87,0,2.29.7s.09,1.27.28,1.89a5.1,5.1,0,0,0,.77,1.22,5,5,0,0,1,.77,3.18,15.32,15.32,0,0,1-.73,3.24c-.13.42-.25.39-.6.68a2.91,2.91,0,0,1-1.77.36c-1.49-.08-3.11.19-4.21-.73a11.37,11.37,0,0,1-2.3-3,6.86,6.86,0,0,1-1-4.33,4,4,0,0,1,2.58-2.57A11.91,11.91,0,0,1,254.2,159.32Z"/><path class="cls-7" d="M250,169.39c-.43-1.07-1.7-1.53-2.41-2.44a3.36,3.36,0,0,1-.69-1.94,6.54,6.54,0,0,1,.29-2.06,6.27,6.27,0,0,1,1.14-2.28,3.57,3.57,0,0,1,2.14-1.3,2.61,2.61,0,0,0-.83,1.94,7.91,7.91,0,0,0,.34,2.15.75.75,0,0,0-1,0,1.31,1.31,0,0,0-.33,1.08,3.1,3.1,0,0,0,1.26,2A5.27,5.27,0,0,1,250,169.39Z"/><path class="cls-7" d="M247.13,162.75a9.35,9.35,0,0,0,3.5,5.88,8.11,8.11,0,0,0,6.91,1.21,1.37,1.37,0,0,1-.46.74c-2.78.39-4.52.22-6.4-1.14a10.69,10.69,0,0,1-3.76-5.6Z"/><rect class="cls-7" x="198.62" y="246.4" width="32.28" height="17.36"/><path class="cls-7" d="M226.24,223.46h-3.07v13.11h0a1.06,1.06,0,0,1,1.06,1.06v11.49h.93V237.63a1.06,1.06,0,0,1,1.06-1.06h0Z"/><path class="cls-10" d="M226.4,240.85a.47.47,0,0,1-.47.47h-2.51a.48.48,0,0,1-.48-.47h0a.48.48,0,0,1,.48-.48h2.51a.47.47,0,0,1,.47.48Z"/><path class="cls-10" d="M226.05,241.24h-2.7a23.42,23.42,0,0,1-.15,6.63,11.78,11.78,0,0,0,.81,6.53h1.38a11.69,11.69,0,0,0,.81-6.53A23.42,23.42,0,0,1,226.05,241.24Z"/><path class="cls-7" d="M215.86,227.4l-1.25.62,2.88,12.53h0a1.05,1.05,0,0,1,1.31.71l3.34,11,.9-.27-3.34-11a1.05,1.05,0,0,1,.71-1.31h0Z"/><path class="cls-10" d="M221.82,243.7a.46.46,0,0,1-.31.59l-2.4.73a.47.47,0,0,1-.6-.32h0a.48.48,0,0,1,.32-.59l2.4-.73a.48.48,0,0,1,.59.32Z"/><path class="cls-10" d="M221.6,244.18,219,245a23.49,23.49,0,0,1,1.78,6.39,11.78,11.78,0,0,0,2.67,6l1.33-.4a11.75,11.75,0,0,0-1.13-6.48A23.64,23.64,0,0,1,221.6,244.18Z"/><path class="cls-10" d="M199.36,222.52l-3.07.57.5,28.06,9.32,3Zm-2.48,1.59a.34.34,0,1,1,0-.67.34.34,0,0,1,0,.67Z"/><polygon class="cls-7" points="206.11 254.15 199.36 222.52 198.99 222.59 205.18 253.85 206.11 254.15"/><path class="cls-7" d="M205.46,255.76l-2.35-1.26a1,1,0,0,1-.51-.66l-.48-1.89-4.75-.88-.41,1.08.26,7.72a.74.74,0,0,0,.73.7l7.38,0a.73.73,0,0,0,.73-.75l-.09-3.27A1,1,0,0,0,205.46,255.76Zm-1.81,3.31h-4.72a.86.86,0,0,1,0-1.72h4.72a.86.86,0,0,1,0,1.72Z"/><rect class="cls-10" x="204.31" y="234.63" width="2.28" height="23.81"/><path class="cls-7" d="M199.9,235.74l1.78.24a1.24,1.24,0,0,1,1.7-1c.47.23.74.75,1.18,1a2.67,2.67,0,0,0,2.6-.38,3.31,3.31,0,0,1,2.6-.63,4.81,4.81,0,0,0,.71.29.55.55,0,0,0,.64-.28.73.73,0,0,0-.18-.59,5.82,5.82,0,0,0-3-2,10.2,10.2,0,0,0-3.69-.34,2.77,2.77,0,0,0-1,.2c-.25.12-.46.3-.7.44a1,1,0,0,1-.79.16c-.26-.07-.21-.31-.36-.63l-1.7.24C199.76,233.54,199.83,234.64,199.9,235.74Z"/><path class="cls-10" d="M206.53,234a.93.93,0,1,1-.92-.92A.92.92,0,0,1,206.53,234Z"/><rect class="cls-8" x="194.99" y="246.4" width="32.28" height="17.36"/></g></g></svg>