<svg xmlns="http://www.w3.org/2000/svg" xmlns:xlink="http://www.w3.org/1999/xlink" viewBox="0 0 338.59 323.07"><defs><style>.cls-1{fill:none;}.cls-2{fill:#ebe2dd;}.cls-3{fill:#b3dee5;}.cls-4{fill:#fff;}.cls-5{fill:#d39d81;}.cls-6{fill:#f8ddbf;}.cls-7{fill:#233865;}.cls-8{fill:#077f93;}.cls-9{fill:#0093b7;}.cls-10{fill:#f96a57;}.cls-11{fill:#c9433d;}.cls-12{clip-path:url(#clip-path);}.cls-13{fill:#272525;}.cls-14{fill:#f7f4f2;}.cls-15{fill:#ad685c;}.cls-16{fill:#e25247;}</style><clipPath id="clip-path"><rect class="cls-1" x="307.89" y="68.2" width="25.87" height="38.87"/></clipPath></defs><g id="Layer_2" data-name="Layer 2"><g id="OBJECTS"><path class="cls-2" d="M317.74,77.1c-1.74-7.42-1-14.93-2.31-22.37a24.82,24.82,0,0,0-8.65-14.91c-7.25-6.08-15.48-6.59-24.24-8.14C272.87,30,267.65,23.16,260.4,17c-13.73-11.59-35.92-11.43-45.84,5.53C209.62,31,209.25,41.43,208.49,51q-.68,8.4-1.34,16.79c-.33,4.19-.11,9.71-3.66,12.51-3.2,2.54-7.79,2.24-11.3,4.25a21.88,21.88,0,0,0-8,8.44c-4.71,8.44-4.47,18.41-2.54,27.7l144.59-.14C328.91,105.44,321.08,91.36,317.74,77.1Z"/><path class="cls-3" d="M181,116.86c.19,8.12,2.32,19.21,9,25,5.12,4.39,14.16,6.51,21.4,6.85s14.5-.44,21.73.05a147.54,147.54,0,0,1,29.54,4.49c10.65,2.75,22.21,4.57,32.78,1.61a33.21,33.21,0,0,0,16.65-10.53c2.31-2.81,4-6,6.43-8.7s5.55-5,7.59-8,2.74-7,.2-9.67Z"/><rect class="cls-4" x="229.89" y="15.15" width="12.67" height="12.67"/><rect class="cls-4" x="244.55" y="15.15" width="12.67" height="12.67"/><rect class="cls-4" x="229.89" y="29.81" width="12.67" height="12.67"/><rect class="cls-4" x="244.55" y="29.81" width="12.67" height="12.67"/><path class="cls-5" d="M239.05,69.86a10.87,10.87,0,0,0-1.17-2.4c-1.1-2.27-2.33-4.24-3.38-6.37a17.48,17.48,0,0,1-5.78,4.08A32.86,32.86,0,0,0,231.91,70c.74.94,1,1.43,1.72,2.34A8,8,0,0,0,235.77,74a2,2,0,0,0,2.21-.89C238.45,72.34,239.23,70.69,239.05,69.86Z"/><rect class="cls-6" x="276.43" y="0.02" width="17.98" height="53.46"/><rect class="cls-6" x="260.02" width="17.98" height="115.66"/><rect class="cls-6" x="292.57" width="17.98" height="8.87"/><path class="cls-7" d="M309.43,119.05a8.54,8.54,0,0,0-.13-2.75,10.16,10.16,0,0,1-.11-2.24c-.89,0-2.34,0-3.23,0a2,2,0,0,1-.73,1.86,5.09,5.09,0,0,1-1.69.7,2.56,2.56,0,0,0-1.52,1.06,1.35,1.35,0,0,0-.22.71,5.19,5.19,0,0,0,.05.68Z"/><path class="cls-8" d="M306.33,78.61a45.1,45.1,0,0,0,.44-5.67,11.16,11.16,0,0,0-.8-4.09h-8.71a82.74,82.74,0,0,0,1.8,23.68c1.63,7.85,4,15.52,6.4,23.17l4.49-1.64C307.3,102.42,305.08,90.48,306.33,78.61Z"/><path class="cls-7" d="M300.47,123.13a8.48,8.48,0,0,0-.13-2.74,10.87,10.87,0,0,1-.11-2.24c-.88,0-2.34,0-3.23,0a1.93,1.93,0,0,1-.73,1.86,5,5,0,0,1-1.68.7,2.51,2.51,0,0,0-1.53,1.06,1.32,1.32,0,0,0-.22.71,4.91,4.91,0,0,0,.05.67Z"/><path class="cls-9" d="M293.28,68.85a86.83,86.83,0,0,0,0,31.82c1.2,6.43,3.13,12.84,2.67,19.35l5.46-.55a117.81,117.81,0,0,1,.56-32.32c.95-6.08,2.37-12.38.67-18.3Z"/><path class="cls-5" d="M308.22,46a7.71,7.71,0,0,0-2.07-1.82c-6-4.21-10.93-8.35-15.13-14.37,0-.39-.37-1.93-.37-2.32a1.2,1.2,0,0,0,0-.38,1.14,1.14,0,0,0-.23-.31,3.71,3.71,0,0,1-.23-.32l-.29-.85a.95.95,0,0,0-.76-.74l-.29-.1-1.43-1.34a.58.58,0,0,0-.28.64.08.08,0,0,0,0,.05l-.41-.15a1.14,1.14,0,0,0,.52.89,4.63,4.63,0,0,0,.81.3l0,0a.79.79,0,0,1,.14.18,3.75,3.75,0,0,1-1-.18.94.94,0,0,0,.54.77,4.89,4.89,0,0,0,.93.33l.11,0,0,.06a2.65,2.65,0,0,1,.22.87,1.12,1.12,0,0,1-.31.82.71.71,0,0,1-.83.11,1.73,1.73,0,0,1-.47-.65,1.79,1.79,0,0,0-1.51-.86.48.48,0,0,0-.41.16.37.37,0,0,0,0,.34.74.74,0,0,0,.23.27,4.8,4.8,0,0,1,.94.79c.23.34.26.78.52,1.1s.58.43.84.68.44.66.79.78h0c3.62,7.82,9,14.19,15,17.73a6,6,0,0,0,2.34,1,2.37,2.37,0,0,0,2.25-.9A2.44,2.44,0,0,0,308.22,46Z"/><path class="cls-5" d="M299.78,41.83l6,2.21a47.37,47.37,0,0,1-.35-6.06c-1.19-.31-2.95.06-4.15-.24C300.78,39.1,300.28,40.47,299.78,41.83Z"/><path class="cls-5" d="M302.28,29.65a1.7,1.7,0,0,0-1.18.06,2.27,2.27,0,0,0-.79,1c-.24.43-.53.84-.77,1.27a11.82,11.82,0,0,0-1.09,4.86,1.63,1.63,0,0,0,.16,1.07,1.52,1.52,0,0,0,.85.51,10.73,10.73,0,0,0,3.86.43,1.79,1.79,0,0,0,1.13-.38,2,2,0,0,0,.38-.63,11.47,11.47,0,0,0,1-3.22,4.7,4.7,0,0,0-.69-3.24A4.65,4.65,0,0,0,302.28,29.65Z"/><path class="cls-7" d="M307.14,30.77c-.27-.16-1.14-1.17-1.4-1.35A3.32,3.32,0,0,0,303,28.8c-.94.26-.88,1.46-1.39,3.92.48-.51.79-.95,1-.84a.73.73,0,0,1,.35.66,2.14,2.14,0,0,1-.2.78,1.49,1.49,0,0,1-.32.56.59.59,0,0,1-.65.08,2.8,2.8,0,0,0,.48,2.77,9.19,9.19,0,0,0,2.24,2.16,5.76,5.76,0,0,0,2.68-2.13,5.58,5.58,0,0,0,1.19-3.91c-.07-.7.18-1.13-.36-1.55A7.2,7.2,0,0,0,307.14,30.77Z"/><path class="cls-10" d="M299,28.53a1.84,1.84,0,0,1-.48-.67.59.59,0,0,1,.27-.71.87.87,0,0,1,.66.11,17.34,17.34,0,0,1,3.26,2.08,5.12,5.12,0,0,0-1.33,1.56Z"/><path class="cls-11" d="M308.15,30.14a3.2,3.2,0,0,1,1.21,2c.08,1.22-1,2.74-1.44,3.87a25.07,25.07,0,0,1-6.62-5.06,1.68,1.68,0,0,1-.52-.9,1.4,1.4,0,0,1,.65-1.17c1-.76,2.15-1.45,3.33-1A11.06,11.06,0,0,1,308.15,30.14Z"/><path class="cls-10" d="M301.5,41.34a34.28,34.28,0,0,1,6,3.27A7.74,7.74,0,0,1,309.21,46a5.17,5.17,0,0,1,.87,4.28c-.58,3.09-2.91,6.25-2.94,9.39,0,4.89-.88,7.11.27,10.92-4.86,1.35-10.69,1.18-15.73,1.46.41-5.21.48-9.46.53-14.69s1.05-10.72,4.42-14.72a3.63,3.63,0,0,1,4.87-1.28Z"/><path class="cls-11" d="M299.65,45.21a3.22,3.22,0,0,1,.92,1.9,10.49,10.49,0,0,1-1,5.93c-.81,1.86-1.89,3.61-2.67,5.49-1.72,4.14-1.78,9-2.49,13.42-.82.17-1.76.1-2.58.28a146.66,146.66,0,0,1,1.41-20.85A15,15,0,0,1,294.1,48a5.85,5.85,0,0,1,2.17-2.73A2.93,2.93,0,0,1,299.65,45.21Z"/><polygon class="cls-7" points="286.37 34.81 285.37 34.81 285.37 5.95 294.92 3.28 294.92 2.19 293.88 2.19 293.88 1.19 295.92 1.19 295.92 4.03 286.37 6.71 286.37 34.81"/><rect class="cls-9" x="277.33" y="0.44" width="16.84" height="2.44"/><path class="cls-7" d="M286.87,41.34a8.66,8.66,0,0,0-.69,2.38,1,1,0,0,1-.36-.66,7.82,7.82,0,0,0-.7-1.69c-.17-.31-.35-.6-.53-.89a6.52,6.52,0,0,1-.89-2,2.85,2.85,0,0,1,.34-2.12,1.8,1.8,0,0,1,1.92-.76.19.19,0,0,1,.12.07c0,.06,0,.15,0,.23s.2.35.4.41a1.21,1.21,0,0,1,.56.26c.2.22.12.57,0,.85a.6.6,0,0,0,0,.26c0,.19.3.25.41.42a.52.52,0,0,1,0,.51c-.08.16-.2.3-.27.47-.2.48,0,1,0,1.56A2.61,2.61,0,0,1,286.87,41.34Z"/><rect class="cls-10" x="285" y="33.62" width="1.94" height="9.26" rx="0.96"/><path class="cls-10" d="M293.35,53.55c.89-.65,1.76-1.31,2.6-2a12.88,12.88,0,0,0,3.58-4.2,5.47,5.47,0,0,0-.14-5.31,2,2,0,0,0-1.21-.91c-.83-.15-1.55.52-2.13,1.13-2.19,2.31-4.11,3.45-6.23,5.45C289.76,50.34,291.21,52.2,293.35,53.55Z"/><path class="cls-5" d="M289.82,47.69c-.32.31-.65.63-1,1-.49-2.69-1.21-4.44-1.57-7,0,0,.05-.67.06-.68a2.08,2.08,0,0,0,.3-1.65c-.1-.32-.28-.61-.39-.92a1.11,1.11,0,0,1,0-1,2.11,2.11,0,0,1,.35-.38,1.77,1.77,0,0,0,.52-1.28c0-.13-.05-.28-.17-.3a.29.29,0,0,0-.16,0l-.49.24a2.15,2.15,0,0,0-.95.69c-.28.46-.24,1.13-.68,1.43a.2.2,0,0,1-.15,0c-.06,0-.09-.06-.13-.11a2.38,2.38,0,0,1-.38-.7.87.87,0,0,1,.07-.55V34.76l-.26,0c-.46.53-.92,1.06-1.37,1.6a.36.36,0,0,0-.11.16.53.53,0,0,0,0,.22c0,.67-.18.9-.16,1.58,0,.17.21.43.29.58.25.44.45.92.64,1.28-.08,2.78.17,5.92.34,8.58a26.12,26.12,0,0,0,1,5.9,2.66,2.66,0,0,0,3.85,1.53,43.11,43.11,0,0,0,4.06-2.61C291.21,52.2,289.76,50.34,289.82,47.69Z"/><path class="cls-10" d="M330.22,106.84c0-.58-4.1-1-9.15-1s-9.15.46-9.15,1v23.38c0,.57,4.09,1,9.15,1s9.15-.47,9.15-1Z"/><ellipse class="cls-7" cx="321.07" cy="107.26" rx="8.12" ry="0.87"/><g class="cls-12"><polygon class="cls-7" points="318.94 109.68 313.68 88.09 317.85 83.97 317.51 82.59 316.31 82.88 316.07 81.91 318.25 81.38 318.95 84.29 314.79 88.4 319.92 109.45 318.94 109.68"/><rect class="cls-10" x="309.18" y="81.26" width="7.36" height="3.81" transform="translate(-10.8 76.39) rotate(-13.69)"/><path class="cls-10" d="M321.7,118.36h0a1.07,1.07,0,0,1-1.3-.79l-2-8a1.08,1.08,0,0,1,.8-1.3h0a1.09,1.09,0,0,1,1.31.8l1.95,8A1.09,1.09,0,0,1,321.7,118.36Z"/><path class="cls-7" d="M332.93,73.38H314.87v4.77l8.86,2.27V104h1V80.41l8.2-2.27Zm-1,4-7.7,2.13-8.36-2.14v-3h16.06Z"/><rect class="cls-9" x="323.16" y="102.57" width="2.39" height="11.4" rx="1.18"/><rect class="cls-10" x="316.67" y="72.43" width="14.7" height="3"/><rect class="cls-7" x="312.24" y="94.31" width="7.97" height="6.78"/><rect class="cls-4" x="311.94" y="98.89" width="8.56" height="2.2"/><path class="cls-9" d="M320.77,100.82h-9.09v1.12a1.18,1.18,0,0,0,.63,1l1.84.94a2.17,2.17,0,0,1,1.17,2l-.37,8.45a1.26,1.26,0,0,0,1.26,1.32h0a1.25,1.25,0,0,0,1.25-1.32l-.42-8.38a2.16,2.16,0,0,1,1.16-2l1.91-1a1.16,1.16,0,0,0,.63-1Z"/></g><path class="cls-5" d="M224.06,49.31a1.27,1.27,0,0,0,0-.88,24.82,24.82,0,0,1-.65-5.9,12.93,12.93,0,0,1-5.74-.91,13.27,13.27,0,0,1-1.16,6.78,8.73,8.73,0,0,0,6.77,1.37A1.11,1.11,0,0,0,224.06,49.31Z"/><path class="cls-7" d="M223.66,46.51a37.82,37.82,0,0,1-.27-4,12.5,12.5,0,0,1-5.44-.81C218.3,45.26,220,47.73,223.66,46.51Z"/><path class="cls-5" d="M222.67,45.78a5,5,0,0,1-2.29-.42,5.93,5.93,0,0,1-2.5-2.33,9.62,9.62,0,0,1-1.06-4.26,5.16,5.16,0,0,1,.65-3.46,4.57,4.57,0,0,1,2.41-1.5,9.71,9.71,0,0,1,5-.16,2,2,0,0,1,1.16.59,4.71,4.71,0,0,1,.27,2.77c-.44,1.94.15,1.52.09,2.78A8.15,8.15,0,0,1,225,44.11C224.39,44.88,224.73,45.73,222.67,45.78Z"/><path class="cls-7" d="M217.1,39.16a9.12,9.12,0,0,0,.55,3.5c-.82-.26-1.15-1.73-1.34-2.56a7.4,7.4,0,0,1,0-2.57.87.87,0,0,1,.7-.92l1.81-.62a15.58,15.58,0,0,1-.76,3.24,1.35,1.35,0,0,0-.2-.55.44.44,0,0,0-.51-.18C217.13,38.59,217.09,38.9,217.1,39.16Z"/><path class="cls-11" d="M223.72,31.18a14.66,14.66,0,0,0-4.13.09,4.23,4.23,0,0,0-2.28.92,3.86,3.86,0,0,0-1,2.55c-.07.94,0,1.88-.06,2.82,3.47-.91,7-1.82,10.59-1.34-.31-.71,0-1.78-.11-2.55a2.9,2.9,0,0,0-1.13-1.81A3.3,3.3,0,0,0,223.72,31.18Z"/><path class="cls-10" d="M227.2,37.58a2,2,0,0,0,.53.21.41.41,0,0,0,.46-.25.48.48,0,0,0-.11-.39,4.59,4.59,0,0,0-3.22-1.93,9.62,9.62,0,0,0-3.84.35,7.26,7.26,0,0,0-2.47,1A14,14,0,0,0,220.92,38a4.55,4.55,0,0,0,2.69.33,14.21,14.21,0,0,0,1.76-.63A2.69,2.69,0,0,1,227.2,37.58Z"/><path class="cls-7" d="M224.09,142.6c-.33-.8.07-2.13.23-3a8,8,0,0,0,.18-2.44c1.47,0,3.89,0,5.35,0-.26.78.38,1.6,1.22,2a11.6,11.6,0,0,0,2.79.76,4.7,4.7,0,0,1,2.54,1.15,1.16,1.16,0,0,1,.36.77,3.55,3.55,0,0,1-.08.73Z"/><path class="cls-8" d="M215.61,82.11c.87,18.93,9.42,37.24,8.17,56.18l6.43-.36a321.53,321.53,0,0,0-2.52-55.82Z"/><path class="cls-7" d="M213,139.15c-.84-.43-1.48-1.24-1.21-2-1.47,0-3.89,0-5.36,0a7.34,7.34,0,0,1-.18,2.43c-.15.85-.56,2.18-.22,3h9.72a6.63,6.63,0,0,0-1.6-3A6.27,6.27,0,0,1,213,139.15Z"/><path class="cls-9" d="M210.27,82.11a1.19,1.19,0,0,0-.16.08,1.81,1.81,0,0,0-.51,1.24c-1.08,8.13-.18,16.39-.67,24.58-.58,9.85-3.17,19.54-3.1,29.4a22.51,22.51,0,0,0,6.45.32A421.71,421.71,0,0,0,223,82.11Z"/><path class="cls-10" d="M213.67,48a26.13,26.13,0,0,1,14.08.63,3.59,3.59,0,0,1,2.46,1.85,4,4,0,0,1-.11,2.15,73.54,73.54,0,0,0-.63,31.22,47.17,47.17,0,0,1-20.62,1.59q.15-9.85-.37-19.69c-.24-4.53-.57-9.17.73-13.52a6.19,6.19,0,0,1,1.8-3.11A6.49,6.49,0,0,1,213.67,48Z"/><path class="cls-11" d="M221.83,47.52a12.22,12.22,0,0,0-5.22.3,2,2,0,0,0-1.24,1,1.57,1.57,0,0,0,.25,1.55,3.63,3.63,0,0,0,1.3,1,8.68,8.68,0,0,0,3.58,1,5.72,5.72,0,0,0,3.55-1,3.39,3.39,0,0,0,1.28-1.64,1.37,1.37,0,0,0-.13-1.28,1.68,1.68,0,0,0-.81-.48A12.22,12.22,0,0,0,221.83,47.52Z"/><path class="cls-11" d="M208.33,60.54a3.23,3.23,0,0,1,.54-1.12l3.41-5.25a20.49,20.49,0,0,1-3,14.4c-.3-2.33-.61-4.65-.92-7A3.37,3.37,0,0,1,208.33,60.54Z"/><path class="cls-10" d="M212.2,48.39c-1.87.35-3.93,2.07-5.23,3.51a25.68,25.68,0,0,0-3.44,5.54c-.42.85-.8,1.7-1.17,2.55a12,12,0,0,1,7.14,2.48c.72-1.35,1.42-2.71,2.07-4.21A13.82,13.82,0,0,0,212.2,48.39Z"/><path class="cls-5" d="M195.14,87.68l-.8,1.73a1.48,1.48,0,0,0-.16.49,1.52,1.52,0,0,0,.21.8l1.34,2.8a1.33,1.33,0,0,0,.29-1.22c-.12-.46-.47-.83-.59-1.29a2.54,2.54,0,0,1,.1-1.25q.18-.7.39-1.41a1,1,0,0,0,.06-.52.34.34,0,0,0-.4-.25Z"/><path class="cls-5" d="M195.08,90.5A4.79,4.79,0,0,1,196.31,92a1.17,1.17,0,0,0,.17-1.13,6,6,0,0,0-.54-1.07,2,2,0,0,1-.32-1.14,2.68,2.68,0,0,0-.58.9Z"/><path class="cls-5" d="M209.44,62a11.66,11.66,0,0,0-6.89-2.39c-3.62,8.28-5.24,16.44-6.13,25.72-.45.57-.71,1.26-1.22,1.8a1.41,1.41,0,0,0-.27.37,1.24,1.24,0,0,0-.06.47,6.81,6.81,0,0,1-.16,1.19,6.34,6.34,0,0,0-.19.84c0,.21,0,.41,0,.62.05.94.1,1.88.16,2.83a.74.74,0,0,0,.79-.34,1.44,1.44,0,0,0,.18-.89c0-.31-.09-.61-.11-.92a4,4,0,0,1,.35-1.69,3.05,3.05,0,0,1,.53-1,1.31,1.31,0,0,1,1-.46.86.86,0,0,1,.83.59,2.11,2.11,0,0,1-.14,1,2.2,2.2,0,0,0,.61,2,.58.58,0,0,0,.49.21.43.43,0,0,0,.31-.29,1,1,0,0,0,0-.43,6.35,6.35,0,0,1,0-1.57c.08-.49.42-.91.47-1.4a6.66,6.66,0,0,0,0-1.18,2.9,2.9,0,0,0-.34-2c1.29-5.7,3.35-10,5.63-15.06C206.71,66.85,208.12,64.44,209.44,62Z"/><path class="cls-10" d="M234.5,61.09a24.84,24.84,0,0,1-1.38-3.24c-1-3-2-6.2-4.05-8.6a10.3,10.3,0,0,0-2.88,7,15.89,15.89,0,0,0,1.75,7.45c.25.52.51,1,.78,1.5A17.48,17.48,0,0,0,234.5,61.09Z"/><path class="cls-5" d="M233.57,69.11a3,3,0,0,1,.85-2.57l7.43-10.17,2.84,1.47a105.63,105.63,0,0,1-4,10.65,14.2,14.2,0,0,1-2.78,4.38,2.41,2.41,0,0,1-2,.88,2.31,2.31,0,0,1-1.29-.88A6.9,6.9,0,0,1,233,68Z"/><path class="cls-5" d="M242.08,57.62c-.79-.25-1.05-1.22-1.14-2s1.52-1,.78-1.34c.2-1,.39-1.19.59-2.17,1.87.09.71-1.06,2.58-1-.23,1.94,1.3,3.46.69,5.31a5.7,5.7,0,0,1-1.92,3.13C242.66,58.8,242.75,58.66,242.08,57.62Z"/><rect class="cls-7" x="238.83" y="36.23" width="7.97" height="6.78"/><rect class="cls-4" x="238.54" y="40.81" width="8.56" height="2.2"/><path class="cls-10" d="M247.36,42.74h-9.08v1.12a1.15,1.15,0,0,0,.63,1l1.83.94a2.17,2.17,0,0,1,1.17,2l-.37,8.45a1.25,1.25,0,0,0,1.26,1.31h0a1.26,1.26,0,0,0,1.26-1.32l-.42-8.38a2.17,2.17,0,0,1,1.15-2l1.92-1a1.15,1.15,0,0,0,.62-1Z"/><path class="cls-5" d="M242.09,53.91c0-.24-.06-.4.13-.55s.18-.31.38-.46a1.46,1.46,0,0,0,.44-2.18,6.11,6.11,0,0,1-2,1.56,3,3,0,0,0-.56,2.45,1.88,1.88,0,0,1,.46,1.1,4.69,4.69,0,0,0,.26,1.18,1,1,0,0,0,.92.68,1.11,1.11,0,0,0,.92-.9,2.11,2.11,0,0,0-.38-1.86C242.43,54.62,242.06,54.32,242.09,53.91Z"/><path class="cls-5" d="M245.83,54.54c.17,0-.46-1.35-.41-1.51a1.3,1.3,0,0,0,0-.52,4.36,4.36,0,0,0-.35-1.33,4.2,4.2,0,0,0-1.87-1.58.42.42,0,0,0-.37-.07.39.39,0,0,0-.15.41,2,2,0,0,0,1,1.51.69.69,0,0,0-.47.6.71.71,0,0,0,.36.68,1,1,0,0,0,.24,1.44.61.61,0,0,0-.23.72,1.87,1.87,0,0,0,.49.66,1.75,1.75,0,0,1,.5.65C245,55.32,245.93,55.52,245.83,54.54Z"/><path class="cls-9" d="M208.68,80.51A3.38,3.38,0,0,0,211,78.42a9.86,9.86,0,0,0,.6-3.19c.24-3.21.49-6.42.73-9.62a89.8,89.8,0,0,0,15.28-1,28.37,28.37,0,0,0,.51,10.17,65.3,65.3,0,0,1,1.53,10.11A71.31,71.31,0,0,1,208.2,86,23.91,23.91,0,0,0,208.68,80.51Z"/><path class="cls-9" d="M213.28,66.74h1.87c.08-3.16.17-6.32-.05-9.47A33.52,33.52,0,0,0,213.27,48l-1.26.31C213.92,54.2,213.61,60.55,213.28,66.74Z"/><path class="cls-9" d="M227.06,66a47.69,47.69,0,0,0,.55-8.86V48.58l-1.1-.4q-.21,9.09-.85,18.16A2,2,0,0,1,227.06,66Z"/><path class="cls-7" d="M303.32,123.37c-.87-.05-2,.76-2.75,1.18a7.61,7.61,0,0,1-2.24,1c.44,1.4,1.29,3.66,1.73,5.07a1.82,1.82,0,0,1,2.3.49,11,11,0,0,1,1.63,2.39,4.69,4.69,0,0,0,1.91,2,1.16,1.16,0,0,0,.85.09,3.14,3.14,0,0,0,.67-.31Z"/><path class="cls-8" d="M286.64,96.24,275.38,99.1c1.11,1.29.7,3.24.26,4.87a217.83,217.83,0,0,0-5.07,23.41,5.59,5.59,0,0,0,5.92,6.42c7.95-.52,16-2,23.81-2.82.06-1.6-.39-4.82-.33-6.41-7.15.6-13.43.29-19.09.54.15-4.21,3.37-7.14,5.3-10.88a24.64,24.64,0,0,0,3.08-8.58A13.49,13.49,0,0,0,286.64,96.24Z"/><path class="cls-7" d="M305.78,126.33c-.87-.06-2,.76-2.74,1.18a7.48,7.48,0,0,1-2.25,1c.44,1.41,1.3,3.67,1.73,5.07a1.86,1.86,0,0,1,2.31.49,11.61,11.61,0,0,1,1.62,2.4,4.7,4.7,0,0,0,1.92,2,1.21,1.21,0,0,0,.85.09,4,4,0,0,0,.66-.32Z"/><path class="cls-9" d="M289.11,99.2l-11.26,2.85c1.11,1.29.7,3.24.25,4.88A217.31,217.31,0,0,0,273,130.34a5.58,5.58,0,0,0,5.92,6.41c7.95-.52,16-2,23.81-2.82.06-1.59-.39-4.81-.33-6.4-7.14.59-13.42.29-19.09.53.15-4.2,3.37-7.14,5.31-10.87a24.8,24.8,0,0,0,3.07-8.59A13.42,13.42,0,0,0,289.11,99.2Z"/><path class="cls-5" d="M275.91,76.23a3,3,0,0,0-5.44-.56c-1.62,1.86-2.4,4.29-3.3,6.6A41.78,41.78,0,0,1,260,94.67a29,29,0,0,1-8.5,6.79,11.66,11.66,0,0,0-1.79-.66,5.71,5.71,0,0,0-2.17.17c-.26.06-.59.19-.59.47s.22.36.43.39.42,0,.63,0a1.58,1.58,0,0,1,.85.53,7.66,7.66,0,0,0-2.24.78,12.86,12.86,0,0,1-3,1.62c-.63.21-.38,1.27-.21,1.91s1,1,1.72,1.08a8.52,8.52,0,0,0,3.86-.13,7.81,7.81,0,0,0,3.12-2l.08,0c7.26-3.12,13.57-7.07,18.66-13.12a28.13,28.13,0,0,0,4.87-8.8C276.59,80.76,277.39,79,275.91,76.23Z"/><path class="cls-7" d="M264.25,98.13c4.75-3.81,10.42-13.12,4.61-20-.66,1.32-1.15,2.73-1.69,4.11A41.78,41.78,0,0,1,260,94.67a29,29,0,0,1-2.38,2.45C259.67,98.42,262,99.27,264.25,98.13Z"/><path class="cls-5" d="M266.31,66.89c.46-.09.09.65.33,1.06,1.34,2.27,5,4.52,6.64,5.78a16,16,0,0,1-6.75,4.64l-3.27-6.29c1-.76,1.33-4.08,2.37-4.84A1.7,1.7,0,0,1,266.31,66.89Z"/><path class="cls-5" d="M263.09,60.6a15.83,15.83,0,0,0-5.54.87c-.89.35-.56,3-.81,3.92-.13.47.6,1.09.66,1.58.16,1.35-.24,1.39.24,2.66A9.19,9.19,0,0,0,260.45,74c.9.83,3.37.18,4.16-.76a9.38,9.38,0,0,0,2-2.65,13.39,13.39,0,0,0,.64-5.3,5.38,5.38,0,0,0-1.17-3.48A4.64,4.64,0,0,0,263.09,60.6Z"/><path class="cls-7" d="M254.17,61.18l1,1.08a2.25,2.25,0,0,1-1.47.05,4,4,0,0,0,2.94,2.19,7.17,7.17,0,0,0,3.74-.42,3.91,3.91,0,0,1,1.56-.36c1,.06,1.74,1,2.34,1.77.25-.46.61-1,1.13-1a1.11,1.11,0,0,1,.93.69,1.94,1.94,0,0,1,0,1.58c-.21.51-.65,1-.54,1.53.14.7,1.76.31,1.78,1,.19-2.69.94-3,.24-6-.11-.44-.09-1-.45-1.26s-.77-.25-1.06-.51-.34-.79-.5-1.19a2.12,2.12,0,0,0-1.4-1.12,5.7,5.7,0,0,0-1.84-.12,11,11,0,0,0-4,.68c-.73.32-1.39.79-2.12,1.13A3.25,3.25,0,0,1,254.17,61.18Z"/><path class="cls-10" d="M263.22,75.45a5.79,5.79,0,0,1,4-3.18,11,11,0,0,1,8.52,1.45,18.23,18.23,0,0,1,6,6.44,54.48,54.48,0,0,1,3.64,8.1q2.44,6.33,4.88,12.64a35.34,35.34,0,0,1-15.47,4.8c-2.62-9.32-9.72-16.76-11.65-26.25A7.06,7.06,0,0,1,263.22,75.45Z"/><path class="cls-11" d="M268.47,90.37a3.47,3.47,0,0,1-.4-4.28L272,77.21a28.33,28.33,0,0,1,1.1,20.08Z"/><path class="cls-10" d="M271.77,78.83a6.43,6.43,0,0,0-3.11-5.27l-1.9-.59a6.25,6.25,0,0,0-3.89,4.17,19.83,19.83,0,0,0-.71,5.86c0,.51,0,1-.06,1.54a22.59,22.59,0,0,1,7.44,3.4c.39-1,.76-1.91,1.1-2.88A15.6,15.6,0,0,0,271.77,78.83Z"/><path class="cls-5" d="M236.49,87.64a1.51,1.51,0,0,0,1.06-.2,2.46,2.46,0,0,0,.71-.69,8.23,8.23,0,0,1,.57-.75,6.52,6.52,0,0,1,1.72-1.14,4.51,4.51,0,0,0,1.61-1.22c.09-.12.15-.28.05-.38a.53.53,0,0,0-.23-.09,1.73,1.73,0,0,0-1,.27c-.3.17-.56.39-.87.56s-.93.38-1.31.65a3.12,3.12,0,0,0-.85,1,17.41,17.41,0,0,1-1.45,1.81c-.05,0-.1.12-.05.17A.2.2,0,0,0,236.49,87.64Z"/><path class="cls-7" d="M245.64,86.48a10.5,10.5,0,0,1-3.1-.3,7.78,7.78,0,0,0-3.73.48.37.37,0,0,1-.25,0,.16.16,0,0,1-.14-.16.37.37,0,0,1,.08-.21,4.74,4.74,0,0,1,2.75-2,5.83,5.83,0,0,1,3.63.12,16.75,16.75,0,0,0,2.7,1.19A5.81,5.81,0,0,1,245.64,86.48Z"/><path class="cls-5" d="M269.54,87.94a22.59,22.59,0,0,0-7.44-3.4,13,13,0,0,1-.86,4.28c-3.53-1.9-7.34-3-11.08-4.48l-2.95-1.55a27.08,27.08,0,0,1-3.6.29c-.38,0-.82-.12-1.22-.12a1.55,1.55,0,0,0-1,.37c-.17.18-.44.37-.63.54a6,6,0,0,1-1.42,1A4.34,4.34,0,0,0,237.57,87c0,.08-.08.19,0,.26a.39.39,0,0,0,.34,0,1.91,1.91,0,0,0,1-.55,10.41,10.41,0,0,1,.81-1,4.81,4.81,0,0,1,2.67-1c.79,0,1.45,1.38,2.71,1.94a4.17,4.17,0,0,0,1.61.51,7.44,7.44,0,0,1,.93.11c.79.43,1.53.86,2.24,1.3l.41.34,0-.07c4.19,2.69,7.2,5.59,11.43,8.88.78.61,2-.12,2.75-.58a6,6,0,0,0,2-2.62C266.86,94,269.86,88.16,269.54,87.94Z"/><path class="cls-8" d="M256.92,112.88c0-.59-4.22-1.07-9.41-1.07s-9.42.48-9.42,1.07v24.05c0,.59,4.22,1.07,9.42,1.07s9.41-.48,9.41-1.07Z"/><ellipse class="cls-7" cx="247.62" cy="113.25" rx="8.68" ry="0.83"/><path class="cls-7" d="M248.7,115.26l-.26.82a39,39,0,0,1-3,7.6,19.41,19.41,0,0,1-6.59,7.35,1.71,1.71,0,0,1-1.18.38,1,1,0,0,1-.6-.69,3.16,3.16,0,0,1,0-1.27,15.77,15.77,0,0,1,1.08-3.94v-2.24a20.12,20.12,0,0,0-2.07,6,4.14,4.14,0,0,0,0,1.68,1.94,1.94,0,0,0,1.31,1.39,1.63,1.63,0,0,0,.43.05,3,3,0,0,0,1.53-.55,20.5,20.5,0,0,0,6.94-7.72,39.28,39.28,0,0,0,3.11-7.77l.26-.82Z"/><path class="cls-7" d="M250.33,115.7a1.11,1.11,0,1,1-1.11-1.11A1.11,1.11,0,0,1,250.33,115.7Z"/><circle class="cls-6" cx="242.85" cy="95.54" r="9.84" transform="translate(-18.11 93.78) rotate(-21.09)"/><circle class="cls-4" cx="242.85" cy="98.75" r="9.84" transform="translate(-19.27 94.48) rotate(-21.19)"/><circle class="cls-7" cx="242.85" cy="98.75" r="9.08" transform="translate(-19.27 94.49) rotate(-21.2)"/><path class="cls-6" d="M234.88,99.15a8,8,0,0,0,15.94,0C245.64,101.94,240.32,101.92,234.88,99.15Z"/><rect class="cls-6" x="242.64" y="104.99" width="3.58" height="8.75"/><rect class="cls-7" x="242.36" y="123.31" width="23.97" height="1" transform="translate(65.95 334.83) rotate(-74.2)"/><path class="cls-10" d="M253.74,143.84l.4-1.36a1,1,0,0,0-.48-1.16l-2-1a.93.93,0,0,1-.37-.28.91.91,0,0,1,0-.79l.9-2.65a1.9,1.9,0,0,0,.12-1.36,2,2,0,0,0-1.3-.91.68.68,0,0,0-1.06.55c-.42,1.38-.83,2.76-1.25,4.14a5,5,0,0,0-.32,2,3.4,3.4,0,0,0,1.61,2.32,10.22,10.22,0,0,0,2.7,1.07.87.87,0,0,0,.69,0A.89.89,0,0,0,253.74,143.84Z"/><path class="cls-7" d="M251.28,138.64a.24.24,0,0,0-.05.1l-.22.84a.75.75,0,0,0,0,.49.7.7,0,0,0,.28.26l.44.28a6.18,6.18,0,0,1,.36-1.18l-.53-.68a.34.34,0,0,0-.12-.12A.14.14,0,0,0,251.28,138.64Z"/><path class="cls-7" d="M249.32,140.91c0,.24-.1.44-.23.44s-.22-.2-.22-.44.1-.43.22-.43S249.32,140.68,249.32,140.91Z"/><path class="cls-7" d="M251.6,133.3a1.3,1.3,0,0,1,.68.37,1,1,0,0,1,.1.83,5.15,5.15,0,0,0-.18.85,8.47,8.47,0,0,1-1.76-.93,2.23,2.23,0,0,0,.21-.63.74.74,0,0,1,.37-.52A1,1,0,0,1,251.6,133.3Z"/><path class="cls-9" d="M262.37,113.51c-.2.69-2.46.65-5.06-.08s-4.55-1.89-4.36-2.58,2.46-.66,5.06.08S262.56,112.82,262.37,113.51Z"/><path class="cls-9" d="M257.31,113.43c-2.6-.74-4.54-1.89-4.36-2.58.36-1.36,2.46-.66,5.06.08Z"/><path class="cls-9" d="M258,110.93c2.6.73,5.07,1,4.36,2.58-.29.66-2.46.65-5.06-.08Z"/><path class="cls-2" d="M137.35,82.64c-1.74-7.42-1-14.94-2.3-22.37a24.84,24.84,0,0,0-8.65-14.91c-7.25-6.09-15.48-6.59-24.24-8.14C92.49,35.51,87.27,28.7,80,22.58,66.28,11,44.1,11.15,34.18,28.11,29.24,36.56,28.87,47,28.11,56.58q-.67,8.4-1.34,16.79c-.33,4.19-.11,9.7-3.66,12.51-3.2,2.54-7.79,2.24-11.31,4.25a21.78,21.78,0,0,0-8,8.44C-.87,107-.64,117,1.3,126.27l144.59-.14C148.52,111,140.7,96.9,137.35,82.64Z"/><path class="cls-3" d="M.3,123.06c.19,8.12,2.32,19.21,9,24.95,5.12,4.4,14.17,6.52,21.4,6.85s14.51-.43,21.73.06A146.83,146.83,0,0,1,82,159.41c10.65,2.74,22.21,4.56,32.78,1.61a33.22,33.22,0,0,0,16.65-10.54c2.31-2.8,4-6,6.43-8.7s5.55-5,7.59-8,2.75-7,.2-9.67Z"/><path class="cls-13" d="M99.69,56.45h-.25a2.05,2.05,0,0,1-1.56-2.12,5.45,5.45,0,0,1,.41-1.77l.16-.45a2.16,2.16,0,0,0,0-1.7l-.26-.46.47-.23a20.94,20.94,0,0,1,6.81-2l1.77-.21-3.42,2.69a1.5,1.5,0,0,0-.42.41,1.64,1.64,0,0,0,.06,1.1,5.72,5.72,0,0,1,.14.67,3.34,3.34,0,0,1-.91,2.69,4.69,4.69,0,0,1-2.39,1.34A2.35,2.35,0,0,1,99.69,56.45Zm-.14-6a3.52,3.52,0,0,1-.15,2c-.05.16-.11.32-.17.48a4.78,4.78,0,0,0-.35,1.45c0,.49.28,1.05.71,1.12a1.38,1.38,0,0,0,.5-.06,3.76,3.76,0,0,0,1.9-1,2.36,2.36,0,0,0,.65-1.87,3.86,3.86,0,0,0-.12-.57,2.4,2.4,0,0,1,0-1.82,2.34,2.34,0,0,1,.67-.72l.47-.37A20,20,0,0,0,99.55,50.41Z"/><rect class="cls-9" x="105.64" y="63.33" width="1.5" height="61.17"/><rect class="cls-9" x="99.77" y="8.5" width="1.5" height="30.61"/><rect class="cls-9" x="102.47" y="8.5" width="1.5" height="30.61"/><rect class="cls-9" x="106.38" y="8.5" width="1.5" height="30.61"/><rect class="cls-9" x="108.79" y="8.5" width="1.5" height="30.61"/><rect class="cls-9" x="111.2" y="8.5" width="1.5" height="30.61"/><polygon class="cls-7" points="116.49 64.73 119.13 68.7 119.13 33.81 116.49 37.78 116.49 64.73"/><path class="cls-10" d="M120.51,68.6h-1.38V33.85h1.38a1.75,1.75,0,0,1,1.75,1.75V66.85A1.75,1.75,0,0,1,120.51,68.6Z"/><rect class="cls-10" x="96.64" y="37.78" width="19.85" height="26.94" rx="1.47"/><rect class="cls-7" x="97.66" y="39.16" width="17.81" height="24.18" rx="0.85"/><rect class="cls-3" x="99.33" y="44.95" width="2.83" height="9.05"/><rect class="cls-3" x="103.25" y="44.95" width="2.83" height="9.05"/><rect class="cls-3" x="107.17" y="44.95" width="2.83" height="9.05"/><rect class="cls-3" x="111.09" y="44.95" width="2.83" height="9.05"/><path class="cls-10" d="M101.85,41.5a.93.93,0,1,1-.92-.92A.92.92,0,0,1,101.85,41.5Z"/><path class="cls-10" d="M105.85,41.5a.92.92,0,1,1-.92-.92A.92.92,0,0,1,105.85,41.5Z"/><path class="cls-10" d="M109.86,41.5a.93.93,0,1,1-.93-.92A.93.93,0,0,1,109.86,41.5Z"/><path class="cls-10" d="M113.86,41.5a.93.93,0,1,1-.92-.92A.92.92,0,0,1,113.86,41.5Z"/><rect class="cls-7" x="94.52" y="115.53" width="30.18" height="19.22"/><rect class="cls-9" x="95.66" y="122.13" width="26.62" height="0.56"/><rect class="cls-9" x="107.73" y="121" width="2.94" height="3.75"/><path class="cls-7" d="M126.66,111.74c-.08-1-.17-2-.25-3.07a2.81,2.81,0,0,1-2.43-1.06,4.92,4.92,0,0,1-1-2.69,5.86,5.86,0,0,1,.62-3.28,4.05,4.05,0,0,1,2.4-2v-.46l-.44-1-1.22.44a3.29,3.29,0,0,0-1.15.58,3.5,3.5,0,0,0-.65.78l-2.69,3.85a2.28,2.28,0,0,0-.44.93l-.07,6.19c0,.27-.06.54-.08.81Z"/><path class="cls-7" d="M134.35,111.74c0-.27,0-.54-.08-.81l-.07-6.19a2.28,2.28,0,0,0-.44-.93L131.07,100a3.5,3.5,0,0,0-.65-.78,3.29,3.29,0,0,0-1.15-.58l-1.22-.44-.44,1v.46a4,4,0,0,1,2.4,2,5.86,5.86,0,0,1,.62,3.28,4.92,4.92,0,0,1-1,2.69,2.81,2.81,0,0,1-2.43,1.06c-.08,1-.17,2-.25,3.07Z"/><rect class="cls-10" x="117.89" y="110.3" width="17.73" height="27.65" rx="1.15"/><rect class="cls-7" x="120.55" y="112.73" width="12.51" height="6.37"/><rect class="cls-9" x="121.43" y="113.45" width="10.74" height="4.93"/><path class="cls-14" d="M133.64,124.64a3.43,3.43,0,1,1-3.43-3.43A3.42,3.42,0,0,1,133.64,124.64Z"/><circle class="cls-7" cx="127.69" cy="132.09" r="1.56"/><circle class="cls-7" cx="132.02" cy="132.09" r="1.56"/><path class="cls-14" d="M122.92,123a.55.55,0,0,1-.12.77l-1.36,1a.56.56,0,0,1-.77-.12h0a.56.56,0,0,1,.12-.77l1.36-1a.55.55,0,0,1,.77.12Z"/><path class="cls-14" d="M122.92,125.91a.55.55,0,0,1-.12.77l-1.36,1a.55.55,0,0,1-.77-.13h0a.56.56,0,0,1,.12-.77l1.36-1a.56.56,0,0,1,.77.13Z"/><path class="cls-14" d="M122.92,128.84a.55.55,0,0,1-.12.77l-1.36,1a.56.56,0,0,1-.77-.13h0a.56.56,0,0,1,.12-.77l1.36-1a.55.55,0,0,1,.77.13Z"/><path class="cls-14" d="M122.92,131.76a.55.55,0,0,1-.12.77l-1.36,1a.56.56,0,0,1-.77-.12h0a.56.56,0,0,1,.12-.77l1.36-1a.54.54,0,0,1,.77.12Z"/><path class="cls-7" d="M41.83,103.34a7.08,7.08,0,0,1,.17-2.81,8.72,8.72,0,0,0,.14-2.3c1.14,0,3,0,4.16,0a1.81,1.81,0,0,0,1,1.9,7.59,7.59,0,0,0,2.17.72,3.44,3.44,0,0,1,2,1.08,1.25,1.25,0,0,1,.28.73,3.84,3.84,0,0,1-.07.69Z"/><path class="cls-8" d="M41.48,49.83c1.31,3.06,3.35,5.74,5.12,8.55s4.89,10.18,5.1,13.51c.18,3-.75,5.89-1.5,8.78-1.37,5.3-3,12.62-3.25,18.09l-4.88.62c-.51-6.9-.12-15.84,1.68-22.52a3,3,0,0,0,.16-1.45,2.82,2.82,0,0,0-.52-1C39.76,69.26,34.58,59.82,31,54.67A106.51,106.51,0,0,0,40.74,48Z"/><path class="cls-11" d="M31.73,28.35a3.7,3.7,0,0,0-2.61.77,2.79,2.79,0,0,0-.57,2.55,4.64,4.64,0,0,0,2.68,3.24,9.08,9.08,0,0,0,3.44.48c1.1,0,2.24,0,3.39-.08A29.64,29.64,0,0,0,38.71,29,49.61,49.61,0,0,0,31.73,28.35Z"/><path class="cls-7" d="M51.86,18.16a1.09,1.09,0,0,1-.7-.41A2.07,2.07,0,0,1,50.78,16a3.46,3.46,0,0,1,1.57-2.1,2.34,2.34,0,0,1,.48-.22,8.49,8.49,0,0,1,3.2-.51.71.71,0,0,1-.27.72l-.24.14c.32,0,.64,0,.95,0a.26.26,0,0,1,.17.05c.09.08,0,.22,0,.32l-.16.21h0a.74.74,0,0,1-.5.74,3.39,3.39,0,0,1-1,.17,4.27,4.27,0,0,0-1.72.57A.74.74,0,0,0,53,17h0a.57.57,0,0,1,.06.36.66.66,0,0,1-.28.36A1.44,1.44,0,0,1,51.86,18.16Z"/><path class="cls-5" d="M54.81,15.59a1.6,1.6,0,0,0-1.38.65c-.15.21-.25.47-.39.69a1,1,0,0,1-.59.5.8.8,0,0,1-.69-.21c0-.24,0-.47,0-.7a7.72,7.72,0,0,1,.2-1.35c.08-.33.21-.82.54-.93a4.42,4.42,0,0,0,.85-.41c.31-.19.71-.13,1-.33a.75.75,0,0,0,.38-.9,4.42,4.42,0,0,0-2,.44,12.16,12.16,0,0,0-1.56.7,8.31,8.31,0,0,0-1,1.43,4.15,4.15,0,0,0-.56.78,2.6,2.6,0,0,0-.17,1.13,14.56,14.56,0,0,1-.43,3.07h0c-.27.63-.51,1.26-.76,1.88v0h0a18,18,0,0,1-3.49,6.16,3.77,3.77,0,0,1-1.25,1,3.81,3.81,0,0,1-1.84.14c-1-.09-2-.22-3-.35a29.64,29.64,0,0,1-.65,6.33c2.13-.1,4.28-.24,6.33-.22a4.72,4.72,0,0,0,2.71-.51,4.4,4.4,0,0,0,1.42-2,49.22,49.22,0,0,0,1.78-4.75,41.41,41.41,0,0,0,1.31-5.17A11.86,11.86,0,0,0,52,21.19s0,0,0-.06a4.09,4.09,0,0,1,.74-1.19,3.26,3.26,0,0,0,.9-1c.21-.42.19-.93.38-1.36a4.93,4.93,0,0,1,1.13-1.29.53.53,0,0,0,.18-.38C55.28,15.71,55,15.61,54.81,15.59Z"/><path class="cls-5" d="M23.63,23.12l.08,0Z"/><polygon class="cls-7" points="35.53 137.6 34.05 137.4 43.68 66.08 29.8 66.08 20.14 137.6 18.65 137.4 28.49 64.58 45.4 64.58 35.53 137.6"/><rect class="cls-7" x="23.31" y="108.12" width="15.56" height="1.5"/><rect class="cls-7" x="25.79" y="89.2" width="15.56" height="1.5"/><rect class="cls-7" x="28.12" y="71.47" width="15.56" height="1.5"/><rect class="cls-7" x="20.9" y="125.68" width="15.56" height="1.5"/><polygon class="cls-7" points="56.03 134.49 46.38 66.08 32.5 66.08 42.12 134.28 40.64 134.49 30.77 64.58 47.68 64.58 57.52 134.28 56.03 134.49"/><rect class="cls-7" x="36.31" y="103.24" width="15.56" height="1.5"/><rect class="cls-7" x="34.57" y="85.38" width="15.56" height="1.5"/><rect class="cls-7" x="32.5" y="71.18" width="15.56" height="1.5"/><rect class="cls-7" x="39.72" y="123.04" width="15.56" height="1.5"/><path class="cls-7" d="M29.12,102.4a4,4,0,0,0,1.7,3,18.5,18.5,0,0,1,1.86,1.14,1.58,1.58,0,0,1,.47,2l-6.55,0a4.12,4.12,0,0,0-1-1.81c-.53-.52-1.23-1-1.43-1.67a2.82,2.82,0,0,1,.23-1.66l.59-1.68a.82.82,0,0,1,.33-.49.84.84,0,0,1,.52,0A17.79,17.79,0,0,1,29.12,102.4Z"/><path class="cls-9" d="M38.23,55.06a65.88,65.88,0,0,1,4.35,18.56A19.51,19.51,0,0,1,42.12,81c-.82,2.65-2.56,4.9-4.13,7.18a67.44,67.44,0,0,0-7.81,15.14c-1.66-.21-4-1.5-5.67-1.72C26.24,95,28,90.49,30.84,86c1.71-2.68,3.14-3.67,3.22-6.85A13.72,13.72,0,0,0,32.6,73.6Q29.29,65.68,26,57.77c3.55-.72,8.23-3.33,11.24-5.35Z"/><path class="cls-7" d="M28.18,67.38A3.08,3.08,0,0,1,29.51,66a13,13,0,0,1,6.58-2,27,27,0,0,1,2.63,9.48,24.86,24.86,0,0,1-7.41,3.65,50.94,50.94,0,0,1-3-7.54A3.36,3.36,0,0,1,28.18,67.38Z"/><path class="cls-7" d="M35.32,65a2.81,2.81,0,0,1,1.45.64,21.9,21.9,0,0,0,1.49-10.28l-.76.05A25.18,25.18,0,0,1,35.32,65Z"/><path class="cls-10" d="M34.7,67.2a.68.68,0,0,1-.68.68.68.68,0,1,1,.68-.68Z"/><path class="cls-10" d="M30.56,68.5a.68.68,0,0,1-.68.67.67.67,0,1,1,0-1.34A.68.68,0,0,1,30.56,68.5Z"/><path class="cls-10" d="M40.6,55.44c.67-.75,2.06-2.37,2.16-3.37a3.8,3.8,0,0,0-.34-1.62C41.24,47.29,40.22,46,39,42.81,38,40,36.79,35.32,35.33,32.7A8.44,8.44,0,0,0,31.85,29a6.17,6.17,0,0,0-4.11-.25A12.74,12.74,0,0,0,24,30.49a25,25,0,0,0-7.92,8c5.25,7,8.83,17.06,11.75,25.31C31.29,65,36.91,59.56,40.6,55.44Z"/><path class="cls-11" d="M22,39.06a8.25,8.25,0,0,1,1.71,5.4,24.61,24.61,0,0,1-.94,5.69l-2.63-5.21A8.84,8.84,0,0,0,22,39.06Z"/><path class="cls-11" d="M29.56,29.31a2.75,2.75,0,0,0-2-.63A8.47,8.47,0,0,0,23.48,30,9.92,9.92,0,0,0,20,33.22a3.61,3.61,0,0,0-.53,1.3,1.69,1.69,0,0,0,.29,1.33,2.45,2.45,0,0,0,1.35.72,8.37,8.37,0,0,0,6-.54,5.67,5.67,0,0,0,3-5A2.52,2.52,0,0,0,29.56,29.31Z"/><path class="cls-5" d="M20.21,35a1.67,1.67,0,0,0,1.34.86,7.06,7.06,0,0,0,4.59-.58A5.65,5.65,0,0,0,29,31.69a2.78,2.78,0,0,0,0-1.59A1.54,1.54,0,0,0,27.93,29a2.3,2.3,0,0,0-1.28.25,14.81,14.81,0,0,0-5.93,4.1A1.72,1.72,0,0,0,20.21,35Z"/><path class="cls-5" d="M18.89,26.82a.76.76,0,0,0,.05.53c.75,2.11,1.49,4.22,2.24,6.34a7.23,7.23,0,0,0,6-3.89,16,16,0,0,1-4.25-5L19.27,26.5A.71.71,0,0,0,18.89,26.82Z"/><path class="cls-7" d="M25.35,28.08A16,16,0,0,1,23,24.77L19.27,26.5a1.17,1.17,0,0,0-.25.16A4.84,4.84,0,0,0,25.35,28.08Z"/><path class="cls-5" d="M24.25,21.69c.4,1.22.81,2.43,1.22,3.65a1.46,1.46,0,0,1,.1.82,1.34,1.34,0,0,1-.37.55,5.42,5.42,0,0,1-3.57,1.52A5.55,5.55,0,0,1,17.91,27a7,7,0,0,1-1.83-2.66,5.14,5.14,0,0,1-.5-2.84,4.14,4.14,0,0,1,2-2.7,7.42,7.42,0,0,1,3.48-1c.75.57,1.55,1.22,1.65,2.09a1.2,1.2,0,0,0,.15.63c.22.29.7.28,1,.5A1.21,1.21,0,0,1,24.25,21.69Z"/><path class="cls-7" d="M22.7,16.55a1.14,1.14,0,0,1-.53.33,2.68,2.68,0,0,0,.08-1.46,5.11,5.11,0,0,1-2.51,1,10.89,10.89,0,0,0-2.67.67,2.66,2.66,0,0,0-1.62,2.07.49.49,0,0,0-.57.09,1.18,1.18,0,0,0-.31.53A5.6,5.6,0,0,0,18.2,27.1l-.36-1.93a5.65,5.65,0,0,1-1.05-.43,1.77,1.77,0,0,1-.77-.81,1.09,1.09,0,0,1,.09-1.08.81.81,0,0,1,1-.22,1.89,1.89,0,0,0,.44.57.63.63,0,0,0,.69.08A5.35,5.35,0,0,1,17,20.92a.94.94,0,0,1,.09-.81,1.05,1.05,0,0,1,.56-.27,11.91,11.91,0,0,0,3-1A4,4,0,0,0,22.7,16.55Z"/><path class="cls-5" d="M26.84,70.73a2.14,2.14,0,0,1,.32.28,8.23,8.23,0,0,0,.57.75.71.71,0,0,0,.86.13,4.65,4.65,0,0,1-.51-1.19Z"/><path class="cls-10" d="M30.26,72c-.09-.51-.3-1-.39-1.47a30.58,30.58,0,0,0,5.4-.6c0,.2.08.21.13.42C33.76,70.7,32.18,71.3,30.26,72Z"/><circle class="cls-7" cx="30.73" cy="71.02" r="0.31"/><path class="cls-9" d="M29.91,71.49a9.23,9.23,0,0,0-4.45.46,2.27,2.27,0,0,1-1.05.21c-.36,0-.71-.37-.63-.73A9.76,9.76,0,0,1,27,70.72c1.1,0,2.38.17,3-.77.26.41,0,.77.12,1s.13.5-.08.57A.41.41,0,0,1,29.91,71.49Z"/><path class="cls-9" d="M29.79,71.17a10.63,10.63,0,0,1-4.35,1.06,2.34,2.34,0,0,0-1.05.16c-.33.15-.56.54-.39.81a10.38,10.38,0,0,0,3.27-.45c1.06-.32,2.21-.91,3.1-.33.13-.43-.18-.67-.16-.86s0-.46-.24-.45A.43.43,0,0,0,29.79,71.17Z"/><path class="cls-10" d="M20.61,48.42a1.29,1.29,0,0,0,0-.19,44,44,0,0,1,1.57-4.43,9.34,9.34,0,0,0,0-5A3.34,3.34,0,0,0,19,36.36a3.43,3.43,0,0,0-2.5,1.58,9.39,9.39,0,0,0-1.14,2.82,42.83,42.83,0,0,0-1.22,6.56A13.46,13.46,0,0,0,20.61,48.42Z"/><path class="cls-5" d="M28,70.23a.37.37,0,0,0-.07-.2.47.47,0,0,0-.13-.11,5.39,5.39,0,0,1-1.38-1.27.8.8,0,0,0-.2-.21.92.92,0,0,0-.44-.15,9.77,9.77,0,0,1-1.59-.41,2.82,2.82,0,0,1-.74-.36,3.19,3.19,0,0,1-.69-.73l-.2-.27c-.74-2.33-1.11-4.16-1.69-6.63a22.5,22.5,0,0,1-.2-11.47,13.48,13.48,0,0,1-6.45-1.1,30.47,30.47,0,0,0,.27,8.79,38.73,38.73,0,0,0,5.87,13.53,20.66,20.66,0,0,0,1.92,3.78,1.08,1.08,0,0,0,.29.31,2,2,0,0,0,.54.19c.26.08.48.25.74.34a.66.66,0,0,0,.75-.14.43.43,0,0,1,.09-.13.25.25,0,0,1,.17,0,3,3,0,0,0,.5.1.37.37,0,0,0,.41-.23,1.33,1.33,0,0,1,.05-.19c.09-.18.37-.07.57-.09.41,0,.55-.57.9-.78.13-.07.3-.1.44-.16a.41.41,0,0,0,.29-.34c0-.19-.19-.32-.37-.41a5.25,5.25,0,0,1-1-.57,1.44,1.44,0,0,1-.55-1,2,2,0,0,1,.76.38l1.24,0A3.62,3.62,0,0,1,28,70.23Z"/><path class="cls-7" d="M93,130.31c-3.17,0-6.34-.13-9.5-.38a14.77,14.77,0,0,1,.22-4.25,9.5,9.5,0,0,0,3.16-1.05,2.15,2.15,0,0,0,1,2,6.44,6.44,0,0,0,2.15.82,5.85,5.85,0,0,1,2.12.88A2.05,2.05,0,0,1,93,130.31Z"/><path class="cls-8" d="M78.44,74.1a9.41,9.41,0,0,1,3.24.29c.84.5.57,3.72.75,4.68,3.08,16.1,6,29.8,5.1,46.64-1.39.75-3.56.73-5.13.67-1.09-12.22-4.7-23.79-8.82-35.34-1.92-5.38-4-8.49-2.61-16.67Z"/><path class="cls-7" d="M69.75,130.16a5.33,5.33,0,0,1,1.72.9,1.62,1.62,0,0,1,.51,1.76A107.47,107.47,0,0,1,61.22,132a5.44,5.44,0,0,1,.05-2.83,16,16,0,0,1,1.06-2.66,17.8,17.8,0,0,0,4.06.22,3.11,3.11,0,0,0,1.15,2.17A7.47,7.47,0,0,0,69.75,130.16Z"/><path class="cls-9" d="M65.91,73.56l-.6,4.81c-2.19,6-.88,11.06-1,17.49-.12,10.86-.65,20.8-2.8,31.44a5,5,0,0,0,5.77.13c2.78-9.1,5-18.33,7-27.63a155.5,155.5,0,0,0,3.49-25.4C74.14,74.27,69.53,73.69,65.91,73.56Z"/><path class="cls-11" d="M84.75,47.7A6.34,6.34,0,0,0,82.58,51a9.1,9.1,0,0,0,.12,4.77,22.3,22.3,0,0,0,1.48,4.42,16.46,16.46,0,0,0,5-3.43C88.12,53.9,87.26,50.92,84.75,47.7Z"/><path class="cls-7" d="M101.93,52.37a.93.93,0,0,1-.48-.51,1.82,1.82,0,0,1,.12-1.56,3,3,0,0,1,1.83-1.36,2.32,2.32,0,0,1,.46-.06,7.25,7.25,0,0,1,2.81.38.64.64,0,0,1-.41.53,1,1,0,0,1-.24.05l.79.28a.29.29,0,0,1,.13.08c0,.09,0,.2-.1.27l-.19.13h0a.64.64,0,0,1-.6.5,3,3,0,0,1-.84-.1,3.83,3.83,0,0,0-1.58,0,.66.66,0,0,0-.5.67h0a.58.58,0,0,1,0,.32.57.57,0,0,1-.33.23A1.23,1.23,0,0,1,101.93,52.37Z"/><path class="cls-5" d="M102.77,50.25c.15-.27.4-.67.72-.68a4.28,4.28,0,0,0,.86-.14c.33-.08.66.07,1,0s.63-.36.58-.69a4,4,0,0,0-1.85-.13,10.06,10.06,0,0,0-1.57.2,7.76,7.76,0,0,0-1.23,1,3.73,3.73,0,0,0-.7.54,2.45,2.45,0,0,0-.45,1,13.18,13.18,0,0,1-1.19,2.59,36.22,36.22,0,0,1-6.7,4.78,15,15,0,0,0-1.69,1.18v0a26.64,26.64,0,0,1-1.36-3.11,16.46,16.46,0,0,1-5,3.43,15,15,0,0,0,4.67,6,1.23,1.23,0,0,0,.66.29l.09,0a.76.76,0,0,0,.37.18,1.54,1.54,0,0,0,1.13-.35c3.92-2.53,6.83-6.29,9.56-10.08a6,6,0,0,1,1.52-1.48,3.22,3.22,0,0,0,1-.64c.3-.32.41-.77.7-1.11a4.58,4.58,0,0,1,1.34-.83.53.53,0,0,0,.26-.29c0-.19-.16-.35-.34-.42a1.49,1.49,0,0,0-1.4.21c-.19.14-.34.34-.53.5a.88.88,0,0,1-.65.28.7.7,0,0,1-.55-.36c.06-.21.1-.42.17-.63A6.48,6.48,0,0,1,102.77,50.25Z"/><path class="cls-10" d="M74.05,46a5.37,5.37,0,0,0-3.56.77,5.59,5.59,0,0,0-1.58,2.85,85.44,85.44,0,0,0-4.22,27.18c6.26-.59,12.13-.7,18.43-.72-.53-5.23-1.1-9.43.22-14.51.54-2.07,1.38-3.87,2-5.92a10.2,10.2,0,0,0-.63-8A35.72,35.72,0,0,0,74.05,46Z"/><path class="cls-11" d="M82.32,51.16a3.2,3.2,0,0,0,1.09-1.59,2.1,2.1,0,0,0-.35-1.85,3,3,0,0,0-1.39-.83A18.36,18.36,0,0,0,78,46.05a5,5,0,0,0-2.7.17,1,1,0,0,0-.57.52,1.16,1.16,0,0,0,0,.64,6.9,6.9,0,0,0,1.91,3.68,4.35,4.35,0,0,0,5.67.1Z"/><path class="cls-11" d="M72.53,50c1.8,2,2.25,4.85,2,7.5s-1,5.23-1.43,7.87a25.74,25.74,0,0,0,.54,10.3l-3.2.07H65.39c-.54-6.43.71-12.88,2.4-19.11A12.88,12.88,0,0,1,72.53,50Z"/><path class="cls-5" d="M81.78,47.38c-.1-1.29.39-4.59.29-5.88l-4.82,1.79a25.68,25.68,0,0,0-1,3.09c-.49,0-.47.2-1,.28a5.24,5.24,0,0,0,2.2,4A3.93,3.93,0,0,0,82,50.63a2.07,2.07,0,0,0,.86-2.11A2,2,0,0,0,81.78,47.38Z"/><path class="cls-7" d="M81.42,41.74l-4.17,1.55c-.28.76-.54,1.56-.76,2.35A4.51,4.51,0,0,0,81.42,41.74Z"/><path class="cls-5" d="M78.65,34.4c-.74,0-1.63,0-2,.62s-.08,1.14-.25,1.69a4.07,4.07,0,0,1-.66,1.09,4.52,4.52,0,0,0-.67,2.84,13.24,13.24,0,0,0,.64,2.89,2,2,0,0,0,.54,1,1.92,1.92,0,0,0,1.34.34,7,7,0,0,0,3.88-1.37c1-.82,1.23-2,1.87-3a4.55,4.55,0,0,0,.91-3.24A3.52,3.52,0,0,0,82,35,10.37,10.37,0,0,0,78.65,34.4Z"/><path class="cls-7" d="M77.07,33.14l.57.33a1.62,1.62,0,0,0-1.19.73,1.6,1.6,0,0,0-.16,1.38,1,1,0,0,1,.62-.47,2.89,2.89,0,0,0,2.36,1.73.38.38,0,0,1,.13-.44.77.77,0,0,0,.56.47,5.77,5.77,0,0,1,.74.22,1.41,1.41,0,0,1,.66,1,10.22,10.22,0,0,1-.11,1.82c.64-.13.71-.92,1-.84s.29.16.37.46a2.72,2.72,0,0,1,0,.9,2.07,2.07,0,0,1-.25,1,.74.74,0,0,1-.84.36,2.06,2.06,0,0,0,0,1.7,13.81,13.81,0,0,0,2.7-1.77L84,41.55a4.88,4.88,0,0,0,1.28-5.15A2.36,2.36,0,0,0,84,34.33,17.69,17.69,0,0,1,81.84,33l-.08.51A8.91,8.91,0,0,0,77.07,33.14Z"/><path class="cls-7" d="M72.46,118.61a8.18,8.18,0,0,1-6.66-3.16,7.74,7.74,0,0,1-.76-1.3,15.11,15.11,0,0,1-4.2-6.88,21.92,21.92,0,0,1,2.28-17.65A9.88,9.88,0,0,1,66,86.4a10.07,10.07,0,0,1,.8-1.08,8.57,8.57,0,0,1,1.27-1.22,4.49,4.49,0,0,1,2.53-2.56l.31.95a3.66,3.66,0,0,1,1-.16,2.58,2.58,0,0,1,2.89-.16,6.31,6.31,0,0,1,1.29,1.25l.56-.32a7.54,7.54,0,0,1,.78,2.09A15,15,0,0,1,79,86.82,22.48,22.48,0,0,1,83.62,97.1c0,.15.09.3.14.46,1.16,3.9,1.29,7.35.38,10.24A10.86,10.86,0,0,1,81.69,112a11.53,11.53,0,0,1-5.2,5.68A9,9,0,0,1,72.46,118.61Zm-3-2.14a7.68,7.68,0,0,0,6.39-.15,8.85,8.85,0,0,0,2.76-2.19l-.26.11A10.89,10.89,0,0,1,69.43,116.47Zm-3.15-3.23a8.33,8.33,0,0,0,2.88,1.61,8.54,8.54,0,0,0,5.39-.22,7.63,7.63,0,0,1-1.22-.27,4.46,4.46,0,0,1-1.5.4,5.88,5.88,0,0,1-4.56-1.83,9.46,9.46,0,0,1-1.58-2.17A8.74,8.74,0,0,0,66.28,113.24Zm-.52-6.16q.22.65.48,1.29a10.23,10.23,0,0,0,2.09,3.5,4.72,4.72,0,0,0,2.59,1.38,11,11,0,0,1-3.49-3.65,14.25,14.25,0,0,1-1.53-3.7C65.85,106.29,65.8,106.69,65.76,107.08Zm9.29,6.11a6.48,6.48,0,0,0,1.32,0,6.13,6.13,0,0,0,1.2-.27c.23-.18.44-.38.65-.58a13.19,13.19,0,0,0,3.13-5A21.82,21.82,0,0,0,79.9,98c-.34-1-.7-2.29-1.08-3.67s-.75-2.77-1.21-4.2c0,.3,0,.61-.07.91a17.39,17.39,0,0,0,.12,5.71c.88,3.34,1.53,8.32-.42,13.12A9.51,9.51,0,0,1,75.05,113.19ZM66.69,99.78c0,3.88.66,6.76,2,9.06a9.38,9.38,0,0,0,4.49,3.91,7.66,7.66,0,0,0,2.64-3.45c1.79-4.41,1.18-9,.36-12.16A18.7,18.7,0,0,1,76,90.92a27,27,0,0,0,.13-4.17c-.29-.34-.59-.68-.9-1a11.76,11.76,0,0,0-1-.93,5.11,5.11,0,0,0-2.5-.58c-.42.32-.84.68-1.23,1s-.78.67-1.16,1A87.05,87.05,0,0,0,66.69,99.78Zm-2.61-8.84a20.43,20.43,0,0,0-1.8,15.89,15.22,15.22,0,0,0,1.93,4.1,19.6,19.6,0,0,1,0-3.67A27.68,27.68,0,0,1,64.08,90.94Zm2.63-2.66A14.83,14.83,0,0,0,66,90a25.92,25.92,0,0,0-1.22,13c.13-1.08.28-2.18.43-3.3V99.4A43,43,0,0,1,66.71,88.28Zm12.94,3.43c.22.76.42,1.5.62,2.22.37,1.36.72,2.64,1,3.57a33.06,33.06,0,0,1,1.12,3.94,21.21,21.21,0,0,0-.28-4A30.63,30.63,0,0,0,79.65,91.71Z"/><path class="cls-10" d="M71.82,58.38c.24-.94.52-1.87.85-2.79a26.68,26.68,0,0,0,1.5-4.72A6.48,6.48,0,0,0,72.88,46l-1.5.2A5.17,5.17,0,0,0,68,48.53a12.1,12.1,0,0,0-1.56,3.91,38.43,38.43,0,0,0-.9,4.74A12.62,12.62,0,0,0,71.82,58.38Z"/><path class="cls-5" d="M76.58,84.5a6,6,0,0,0,.46.82.69.69,0,0,0,.83.26,4.46,4.46,0,0,1-.39-1.73.52.52,0,0,0,0-.21.45.45,0,0,0-.11-.13,5.19,5.19,0,0,1-1.18-1.46,1.31,1.31,0,0,0-.17-.24,1,1,0,0,0-.41-.2A9.65,9.65,0,0,1,74.05,81a3.53,3.53,0,0,1-.57-.38,34.47,34.47,0,0,1-1.66-22.2,12.62,12.62,0,0,1-6.27-1.2,39.19,39.19,0,0,0,3.51,22.93c.13.25.46.88.79,1.44a23.79,23.79,0,0,0,1.51,4.62,1.32,1.32,0,0,0,.23.35,3.06,3.06,0,0,0,.51.26c.25.12.44.32.68.45a.64.64,0,0,0,.76,0,.38.38,0,0,1,.12-.1.2.2,0,0,1,.17,0,3.9,3.9,0,0,0,.48.17.38.38,0,0,0,.44-.17.83.83,0,0,1,.07-.18c.12-.16.15-.14.34,0a1.41,1.41,0,0,0,1,.08c.15-.06-.56-1.41-.81-1.69s-1.53-.84.28-1.56A1.93,1.93,0,0,1,76.58,84.5Z"/><circle class="cls-10" cx="57.55" cy="16.89" r="3.88"/><rect class="cls-10" x="55.98" y="11.41" width="3.14" height="3.39"/><rect class="cls-7" x="55.49" y="8.52" width="4.13" height="3.39"/><rect class="cls-9" x="20.65" y="7.95" width="102.02" height="1"/><path class="cls-2" d="M138.75,243.72c-1.74-7.42-1-14.94-2.3-22.38a24.83,24.83,0,0,0-8.66-14.9c-7.25-6.09-15.48-6.59-24.24-8.14-9.67-1.71-14.89-8.52-22.14-14.65-13.73-11.59-35.92-11.43-45.84,5.53-4.94,8.46-5.31,18.87-6.07,28.48q-.67,8.4-1.34,16.79c-.33,4.18-.11,9.7-3.65,12.51-3.21,2.53-7.8,2.24-11.31,4.25a21.92,21.92,0,0,0-8,8.43c-4.71,8.44-4.47,18.42-2.54,27.7l144.59-.13C149.92,272.06,142.09,258,138.75,243.72Z"/><path class="cls-3" d="M1.7,283.48c.18,8.12,2.32,19.21,9,24.95,5.12,4.4,14.17,6.52,21.4,6.85s14.51-.43,21.73.06a146.72,146.72,0,0,1,29.54,4.49c10.65,2.74,22.21,4.56,32.79,1.61a33.19,33.19,0,0,0,16.64-10.54c2.31-2.8,4-6,6.44-8.7s5.55-5,7.59-8,2.74-7,.19-9.67Z"/><path class="cls-7" d="M93.78,289.47c0,.84-1.75,1.53-3.91,1.53S86,290.31,86,289.47s1.75-1.53,3.91-1.53S93.78,288.62,93.78,289.47Z"/><path class="cls-9" d="M91.49,289.14a3.68,3.68,0,0,1-3.22,0V270.81h3.22Z"/><path class="cls-7" d="M80,228.65H78v-5.73a.63.63,0,0,1,.63-.63h.8a.63.63,0,0,1,.63.63Z"/><rect class="cls-7" x="73.4" y="223.53" width="11.23" height="2.06" rx="1.02"/><rect class="cls-9" x="68.23" y="230.27" width="22.08" height="6.36"/><rect class="cls-9" x="28.53" y="231.95" width="95.19" height="2.99"/><rect class="cls-7" x="90.09" y="229.17" width="2.25" height="8.67"/><rect class="cls-9" x="76.97" y="236.44" width="3.09" height="28.2"/><rect class="cls-9" x="75.76" y="235.13" width="5.52" height="8.33"/><rect class="cls-7" x="73.84" y="242.98" width="9.35" height="1.68"/><rect class="cls-7" x="74.87" y="245.98" width="7.3" height="3.09"/><path class="cls-7" d="M91.72,276.16H86.3v-3.91a.15.15,0,0,0-.15-.15H81.51a5.58,5.58,0,0,1-5.57-5.57v-3.9h5.41v3.9a.16.16,0,0,0,.16.16h4.64a5.57,5.57,0,0,1,5.57,5.56Z"/><circle class="cls-9" cx="79.06" cy="233.45" r="5.82"/><path class="cls-7" d="M82,233.45a2.93,2.93,0,1,1-2.93-2.93A2.93,2.93,0,0,1,82,233.45Z"/><path class="cls-7" d="M81.28,247.24a2.93,2.93,0,1,1-2.93-2.93A2.93,2.93,0,0,1,81.28,247.24Z"/><rect class="cls-7" x="66.68" y="229.17" width="2.25" height="8.67"/><rect class="cls-7" x="56.18" y="230.59" width="2.25" height="6.08"/><rect class="cls-7" x="99.76" y="230.59" width="2.25" height="6.08"/><path class="cls-11" d="M43.89,233.88a7.77,7.77,0,0,0-3-1.23,2.84,2.84,0,0,0-3.07,4.2,7.46,7.46,0,0,0,2.06,2.45,59.65,59.65,0,0,0,6.51,4.19c.68.43,1.4.8,2.13,1.17a34,34,0,0,0,3.35-5.77C49,237.13,46.75,235.63,43.89,233.88Z"/><path class="cls-5" d="M79.33,241a1.16,1.16,0,0,0,.3-.54.71.71,0,0,0-.12-.6.5.5,0,0,0-.27-.16,1.73,1.73,0,0,0,.19-.28.79.79,0,0,0,.07-.52.5.5,0,0,0-.33-.3,1.48,1.48,0,0,0-.29-.12.2.2,0,0,0,0-.21.3.3,0,0,0-.14-.1l-1.65-.82c-.72.5-1.79.19-2.51.69-.28.19-.47.47-.73.68s-.81.61-1.19.92a3.11,3.11,0,0,0-.55.81v0a73.48,73.48,0,0,1-11.89,1.83,7.45,7.45,0,0,1-2.94-.16,19.68,19.68,0,0,1-3.1-1.8c-.83-.48-1.59-.94-2.31-1.38a34,34,0,0,1-3.35,5.77c1.7.85,3.49,1.6,5,2.59a8.15,8.15,0,0,0,2.92.81,19.63,19.63,0,0,0,2.86-.19c5.85-.52,14.18-4.43,15.61-4.42.52,0,1,.13,1.56.17a4,4,0,0,0,1.6-.25,1.22,1.22,0,0,0,.35-.2,1.08,1.08,0,0,0,.19,0,.71.71,0,0,0,.3-.18.41.41,0,0,0,.1-.33.49.49,0,0,0-.27-.28h0a.82.82,0,0,0,.49-.16.58.58,0,0,0,.21-.47.5.5,0,0,0-.26-.43l-.09,0s0,0,0-.08Z"/><path class="cls-7" d="M31.27,278.4c.89.14,1.85,1.22,2.51,1.82a9.3,9.3,0,0,0,2.59,1.16c-.76,1.33-.73,3.55-1.49,4.87-.54-.66-2.71-.17-3.55.34a12.22,12.22,0,0,0-2.52,1.8,6.64,6.64,0,0,1-2.92,1.73A1.25,1.25,0,0,1,25,290a4,4,0,0,1-.61-.47Z"/><path class="cls-8" d="M48.29,263.39c1.53,5.12,4.47,7.7,7.35,11.8,3.25,4.61,5.64,8.2,2.74,12.56-4.73,1.33-4.53,1.79-9.43,1.43A127.83,127.83,0,0,1,34.39,287a42.17,42.17,0,0,1,.21-6.65,89.06,89.06,0,0,0,15.23.28A22.86,22.86,0,0,1,35.9,263.71,111.31,111.31,0,0,0,48.29,263.39Z"/><path class="cls-7" d="M26.78,281.86c.89.14,1.86,1.22,2.52,1.82a9.18,9.18,0,0,0,2.59,1.16c-.76,1.33-.74,3.55-1.5,4.87-.54-.65-2.71-.17-3.54.34a11.7,11.7,0,0,0-2.52,1.8,6.74,6.74,0,0,1-2.93,1.74,1.25,1.25,0,0,1-.88-.11,3.46,3.46,0,0,1-.6-.47Z"/><path class="cls-9" d="M47,263.56a142,142,0,0,1-14.73.91,20,20,0,0,0,7,13.93c3.68,3.12,6.58,4.63,10.1,7.94a50.24,50.24,0,0,1-19.19-2.56,31,31,0,0,0,0,8.5c9.92-.09,13.94,3.76,25.71,1.31,1.26-1.18,3.89-3.68,3.39-5.19-1.47-4.46-3.07-7.34-6.21-12.15C50.37,272.14,47.63,268.43,47,263.56Z"/><path class="cls-11" d="M43.49,234.83a2.24,2.24,0,0,0-1-1.66,2.68,2.68,0,0,0-1.38-.16,11.71,11.71,0,0,0-5,1.06,1.07,1.07,0,0,0-.63.69c-.05.4.31.72.64.94A17,17,0,0,0,42,237.77a1.38,1.38,0,0,0,1.3-.13,1.24,1.24,0,0,0,.29-.82A7.39,7.39,0,0,0,43.49,234.83Z"/><path class="cls-10" d="M43.06,233.32a20,20,0,0,1,4,10.51c.46,3.77.31,7.59.52,11.38a26,26,0,0,0,2.59,11,57.27,57.27,0,0,1-17.38.65,1.84,1.84,0,0,1-1.1-.37,2,2,0,0,1-.39-1.65c.16-4.13-.84-8.22-1.44-12.31s-.58-9.11,1.14-12.88c1.85-4.06,6.92-8.08,10.15-6.88Z"/><path class="cls-11" d="M33,242.18a3.17,3.17,0,0,0-1,2.58,45.2,45.2,0,0,0,1.63,15.45,1.91,1.91,0,0,0,.63,1.1,1.33,1.33,0,0,0,1.44-.11,3.3,3.3,0,0,0,.92-1.2,22,22,0,0,0,2.28-8.46,14,14,0,0,0-.35-5.21,6.62,6.62,0,0,0-3.13-4A2.49,2.49,0,0,0,33,242.18Z"/><path class="cls-9" d="M50.18,266.22c-1.8-3.35-2.24-7.19-2.44-11-.12-2.13-.24-5.68-.3-7.82-2.7,1.74-6.72,3.27-8.29,6.41-1.16,1.74-.85,5.21-1.47,6.92-1,2.73-2.7,3.68-4.14,6.2A57,57,0,0,0,50.18,266.22Z"/><path class="cls-9" d="M38.3,239.47a8,8,0,0,0-4.45-2.18c-.85-.09-1.83-.13-2.29,1.06a4.8,4.8,0,0,1,4.3.49,9.21,9.21,0,0,1,3,3.29,18,18,0,0,1,2.5,9.76c.58-.06.83.32,1.08-.2a4.4,4.4,0,0,0,0-1.88A18.89,18.89,0,0,0,41,243.48,11.29,11.29,0,0,0,38.3,239.47Z"/><path class="cls-5" d="M42.54,236.38a.72.72,0,0,0,.21-.52c.27-2.16.53-4.33.8-6.5-1.56,0-3.11-.93-4.57-1.47-1,3.37-2.09,4.09-3.1,6.45,2.15.69,4,2.08,6.23,2.12A.77.77,0,0,0,42.54,236.38Z"/><path class="cls-7" d="M40.14,228.36c-.61,2.77.64,5,2.81,5.86l.6-4.86A9.38,9.38,0,0,1,40.14,228.36Z"/><path class="cls-5" d="M43.08,219a5.25,5.25,0,0,0-2.85.92,5.36,5.36,0,0,0-1.8,2.64,7.8,7.8,0,0,0,7.73,10.26A19.18,19.18,0,0,0,49,226.5c.41-2.29-.15-4.91-2-6.34A5.9,5.9,0,0,0,43.08,219Z"/><path class="cls-7" d="M48,220.09a7.2,7.2,0,0,0-4.17-1.6,4.9,4.9,0,0,0-5.18,3.06,7.76,7.76,0,0,0,.28,6.93,3.52,3.52,0,0,1,.53-1,1.57,1.57,0,0,1-.2-.46,3,3,0,0,1,.07-1.56,1.27,1.27,0,0,1,.53-.85A1,1,0,0,1,41,225a2,2,0,0,1,.33.77,9.55,9.55,0,0,0,2.42-2.18,11.46,11.46,0,0,0,5.31.59C49,222.66,49.15,221.07,48,220.09Z"/><path class="cls-11" d="M49.66,220.44A3.59,3.59,0,0,0,48,218.8a15.53,15.53,0,0,0-6-1.43,7.21,7.21,0,0,0-3.6,4.07,11,11,0,0,0,5.25,2.87,19.32,19.32,0,0,0,6,.39C49.52,223.27,50.23,221.75,49.66,220.44Z"/><path class="cls-10" d="M51.77,226.71c.17,0,.32.11.49.14a.39.39,0,0,0,.44-.18c.09-.22-.12-.43-.31-.56a12,12,0,0,0-4.62-2.35c-1.88-.33-3.84.26-5.7-.13a2.3,2.3,0,0,0,1,.87l3,1.75a9.7,9.7,0,0,0,2,1,3.29,3.29,0,0,0,2.21-.05C50.81,227,51.27,226.61,51.77,226.71Z"/><path class="cls-10" d="M74.25,243.77l3-2.77a.91.91,0,0,1,1.16-.06l1.51,1.16A.66.66,0,0,1,80,243l-.69.87-1-.56.36-.65-.86-.69-2.72,3Z"/><path class="cls-7" d="M77.53,244.8l-2.06-2a.66.66,0,0,0-.88,0l-3,2.7h0a1.38,1.38,0,0,1-.08,2.08l-9.11,7.46a5.92,5.92,0,0,0-2.19,2.68,2,2,0,0,0,0,1.2,1.19,1.19,0,0,0,.86.77,2,2,0,0,0,1.59-.83l10-10.35a1.53,1.53,0,0,1,2.13-.08h0l2.74-2.72A.67.67,0,0,0,77.53,244.8Z"/><rect class="cls-10" x="72.84" y="244.11" width="2.64" height="1.02" transform="translate(-144.56 112.33) rotate(-41.97)"/><path class="cls-10" d="M39,244.39a12.29,12.29,0,0,0-1.66-4,3.78,3.78,0,0,0-3.73-1.65,3.6,3.6,0,0,0-2.47,2.79,8.21,8.21,0,0,0,.26,3.87A33.88,33.88,0,0,0,35,253.88c1.91-1.07,4-2.4,6.16-3.48Q39.91,247.45,39,244.39Z"/><path class="cls-5" d="M67.62,252.79,66.31,252a1.63,1.63,0,0,0-1.44-.34c-.12.05-.23.13-.36.18-.47.15-.92-.3-1.41-.31a1.58,1.58,0,0,0-1,.48,3.15,3.15,0,0,1-1.14.61,30,30,0,0,1-3.26.55l-3.07.54c-2.27.41-4.54.79-6.84,1-.79.09-1.59.15-2.4.2a8.84,8.84,0,0,1-2.23,0c-.74-1.49-1.41-3-2-4.56-2.17,1.08-4.25,2.41-6.16,3.48a82.67,82.67,0,0,0,4.58,7,4.57,4.57,0,0,0,1.38,1.42,4.48,4.48,0,0,0,3.35-.1q7.59-2.3,15-5.18c.48-.13.9-.25.93-.24a2.08,2.08,0,0,1,.48.16c.33.15.58.44.91.6a2.62,2.62,0,0,0,1.18.18h2.32a.74.74,0,0,0,.36-.06c.27-.17.18-.63.43-.84s.67,0,.9-.23.08-.66.26-.94.65-.32.74-.64-.19-.58-.06-.83a.71.71,0,0,1,.15-.15.87.87,0,0,0,.33-.43C68.25,253.24,67.92,253,67.62,252.79Z"/><rect class="cls-10" x="74.78" y="244.19" width="0.48" height="1.5" transform="translate(-157.37 137.16) rotate(-48.09)"/><polygon class="cls-10" points="77.55 248.58 76.72 247.15 77.55 245.72 79.19 245.72 80.02 247.15 79.19 248.58 77.55 248.58"/><path class="cls-10" d="M128.41,215.24a29.71,29.71,0,0,0-2.74-7.19c-1.34-2.25-1.91-3.36-4.56-4.26s-8.18-.86-10.09,1a6.75,6.75,0,0,0-1.83,5.09,21.91,21.91,0,0,0,1.14,5.37,127.58,127.58,0,0,1,4.69,25,16.05,16.05,0,0,0,15.65-2.66,5.48,5.48,0,0,0,1.91-2.78,6.32,6.32,0,0,0-.35-3C130.71,226.49,129.94,220.6,128.41,215.24Z"/><path class="cls-7" d="M135.39,303c.31-.85-.31-2.48-.46-3.37s-1.16-1.75-1.07-2.65c-1.41,0-2.57.32-4,.27a2,2,0,0,1-1.16,2.14,9.84,9.84,0,0,1-2.67.8,4.38,4.38,0,0,0-2.42,1.22,1.36,1.36,0,0,0-.34.82,3.87,3.87,0,0,0,.08.77Z"/><path class="cls-8" d="M131.18,235.64c2.16,5.37,1.66,11.42.61,17.11s-2.6,11.36-2.45,17.14c.25,9.62,5.18,18.71,5.07,28.33-1.82.48-3.21,1.56-5.76.93-2.11-5.43-3.9-10.36-6-15.79-1.76-4.53-3.53-9.13-4.06-14-1.16-10.66,3.81-21.63,1-32l10.92-4.05Z"/><path class="cls-7" d="M119.27,307.13c.35-.85-.07-2.26-.23-3.15a8,8,0,0,1-.2-2.58c-1.55,0-4.11,0-5.67,0,.28.82-.4,1.69-1.28,2.13a12,12,0,0,1-3,.81,5.06,5.06,0,0,0-2.69,1.21,1.28,1.28,0,0,0-.38.83,3.37,3.37,0,0,0,.09.77Z"/><path class="cls-9" d="M112.51,302.58l8.52-.8a85.82,85.82,0,0,1,4.37-41.32c1.48-4,3.29-8.06,3.65-12.36.33-3.85-.53-7.7-1.39-11.48a57.49,57.49,0,0,1-11.34,1.08q-1.23,8.84-2.47,17.68A150.8,150.8,0,0,0,112,275.14C111.93,284.3,113.57,293.48,112.51,302.58Z"/><path class="cls-5" d="M121.68,204.68a23,23,0,0,0-7.94,2.31,12.6,12.6,0,0,0-2.19-6.3c1.73.16,3-.84,4.6-1.59A21.11,21.11,0,0,0,121.68,204.68Z"/><path class="cls-10" d="M111.3,197a2.62,2.62,0,0,0-1.9-1,5.35,5.35,0,0,0-2.17.35,1.75,1.75,0,0,0-1.08.76,2.49,2.49,0,0,0-.16.87c-.14,1.58-1.09,3-1.21,4.58,0,.44.06,1,.46,1.16s.8-.06,1.16-.25a7.34,7.34,0,0,1,2.19-.73,3.73,3.73,0,0,0,1.93-.57,3.06,3.06,0,0,0,.8-1.48,8.05,8.05,0,0,0,.43-1.87A2.76,2.76,0,0,0,111.3,197Z"/><path class="cls-5" d="M112,191.51a5.09,5.09,0,0,0-3.74,1.19,7,7,0,0,0-2,6.08,11,11,0,0,0,2.92,6.33,2,2,0,0,0,1.39.76,1.88,1.88,0,0,0,.76-.24,10.75,10.75,0,0,0,4.67-4.18,7.44,7.44,0,0,0,.68-6.13A5.77,5.77,0,0,0,112,191.51Z"/><path class="cls-7" d="M106.52,197.31a2.26,2.26,0,0,0,1.48,1.85,2.56,2.56,0,0,1,0-.78.85.85,0,0,1,.42-.63,1,1,0,0,1,1.09.36A2.16,2.16,0,0,1,110,200a9.87,9.87,0,0,0,3.43.06,5.47,5.47,0,0,1,3.35.56,7.75,7.75,0,0,0-1.11-7.22,2.64,2.64,0,0,0-1.13-.94,3.15,3.15,0,0,0-1.06-.12,9.07,9.07,0,0,0-4.21.89,4.23,4.23,0,0,0-2.36,3.41Z"/><path class="cls-11" d="M112.83,190.29a3.7,3.7,0,0,0-2,0,9.44,9.44,0,0,0-2.84,1,5.44,5.44,0,0,0-2.13,2.1,5.51,5.51,0,0,0-.6,3.12,9.2,9.2,0,0,0,.91,3.08,29.94,29.94,0,0,1,2.49-3.32,9.5,9.5,0,0,1,3.31-2.45,5.75,5.75,0,0,1,4.06-.24,9.94,9.94,0,0,0-1.71-2.13A4.25,4.25,0,0,0,112.83,190.29Z"/><path class="cls-10" d="M123.7,210.45a7.75,7.75,0,0,0-1.39-5,2.88,2.88,0,0,0-2.37-1.36c-1.23.1-2,1.34-2.47,2.45-1.31,3-2.24,6.12-3.49,9.14,2,2.45,4.35,3,6.93,2.86a31.1,31.1,0,0,0,1.44-2.89A14.77,14.77,0,0,0,123.7,210.45Z"/><path class="cls-5" d="M114,215.63c-.11.27-.21.55-.33.82a39.17,39.17,0,0,1-11.31,15.22,6.74,6.74,0,0,0-1.6.42,2,2,0,0,0-.95,1,5.87,5.87,0,0,1-1.44,2,6.38,6.38,0,0,1-.92.61c-.16.09-.87.33-.93.46a.43.43,0,0,0,.18.48,1.18,1.18,0,0,0,.52.17c.58.09,1.16.14,1.74.19a16.22,16.22,0,0,0,2.29-.26,4.67,4.67,0,0,0,1.39-.2,4,4,0,0,0,2-1.65c.46-.7,1.25-1.1,1.54-1.88,5.49-4.32,11.39-8.6,14.75-14.5C118.33,218.59,116,218.08,114,215.63Z"/><path class="cls-10" d="M128.32,215.11a29.71,29.71,0,0,0-2.74-7.19c-1.34-2.25-1.9-3.36-4.56-4.26s-8.18-.86-10.09,1a6.74,6.74,0,0,0-1.82,5.09,21.43,21.43,0,0,0,1.13,5.37,127.58,127.58,0,0,1,4.69,25,16.08,16.08,0,0,0,15.65-2.66,5.46,5.46,0,0,0,1.91-2.78,6.2,6.2,0,0,0-.35-3C130.62,226.36,129.85,220.47,128.32,215.11Z"/><path class="cls-11" d="M118.15,215a14.43,14.43,0,0,0-1-5.17,7.68,7.68,0,0,0-3.46-3.88,2.19,2.19,0,0,0-1.84-.23,2.24,2.24,0,0,0-1,1.07,8.87,8.87,0,0,0-.87,4.65,26,26,0,0,0,.82,4.71q1.18,5,2.36,9.89a8.76,8.76,0,0,0,4.12-4.73A15.5,15.5,0,0,0,118.15,215Z"/><path class="cls-9" d="M115.43,229.39a1.39,1.39,0,0,0-.85.67c-1.07-5.43-2.15-10.87-2.85-16.37a37.93,37.93,0,0,1-.39-6.47,6.61,6.61,0,0,1,.35-2.07,2.79,2.79,0,0,1,1.35-1.57C112.36,212.22,113.86,220.87,115.43,229.39Z"/><path class="cls-9" d="M123.65,236.73c-5.22,0-7.79-6.26-8.83-11.47-.7,0-1.13-.37-1.93.35,1,4.86,1,10,1.46,14.93a17.41,17.41,0,0,0,16.32-2.91,5.92,5.92,0,0,0,1.8-2.45A13.77,13.77,0,0,1,123.65,236.73Z"/><path class="cls-9" d="M132.42,235.37c0-.09.23-.85.2-.93q-1.85-4.89-3.67-9.77c-2-5.22-4-10.51-7.21-15-1.62-2.24-4-3.8-5.67-6a1.15,1.15,0,0,0-1.58-.32,54.51,54.51,0,0,1,10.86,15.38c2.59,5.39,4.5,11.57,6.45,17.22Z"/><path class="cls-9" d="M125.37,208.88a9.44,9.44,0,0,0-.7-2.69c-.41-.84-.52-1.21-1.42-1.46,2.09,4.4,1.38,8.41,1.66,13.26a69,69,0,0,1-2.26,20.92l3.4-.54C126.43,228.53,126.8,218.62,125.37,208.88Z"/><path class="cls-5" d="M112.13,219.92c-2.76-.22-5.23-1.08-7-4-.16.29-.31.58-.47.86A43.7,43.7,0,0,1,90.16,231.8l-1.47-.07a5.6,5.6,0,0,0-1.53.06c-.56.13-1.07.42-1.62.58l-1.17.37a1.12,1.12,0,0,0-.5.28.44.44,0,0,0-.06.53.66.66,0,0,0,.55.18c.51,0,.39.22.87.05a3.12,3.12,0,0,1,2.53,0,10.14,10.14,0,0,1-4.05,2.38.46.46,0,0,0,.13.54,1.36,1.36,0,0,0,.54.26c.6.17,1.22.3,1.83.43a17.09,17.09,0,0,0,2.48,0,5.45,5.45,0,0,0,1.51,0,4.34,4.34,0,0,0,2.36-1.56c.58-.71,1.48-1,1.89-1.86C100.9,229.91,107.77,226,112.13,219.92Z"/><path class="cls-10" d="M116.33,211.3a9.12,9.12,0,0,0-.84-5.93,3.19,3.19,0,0,0-2.44-1.85c-1.38-.05-2.38,1.25-3.06,2.45-1.86,3.22-3.33,6.65-5.12,9.91,1.85,3.06,4.41,4,7.26,4.17a33.28,33.28,0,0,0,2-3.09A17.32,17.32,0,0,0,116.33,211.3Z"/><path class="cls-7" d="M82.69,285.32H61.86v-9.07H82.69Zm-19.83-1H81.69v-7.07H62.86Z"/><polygon class="cls-10" points="81.29 280.54 63.51 280.54 61.06 285.67 61.06 292.38 83.74 292.38 83.74 285.67 81.29 280.54"/><rect class="cls-10" x="66.1" y="275.54" width="12.86" height="2.42"/><rect class="cls-7" x="62.03" y="285.5" width="21.06" height="0.56"/><path class="cls-7" d="M73.32,290.27H71.86a1.21,1.21,0,0,1-1.21-1.21v-4.54a1.21,1.21,0,0,1,1.21-1.21h1.46a1.21,1.21,0,0,1,1.21,1.21v4.54A1.21,1.21,0,0,1,73.32,290.27Zm-1.46-6a.21.21,0,0,0-.21.21v4.54a.21.21,0,0,0,.21.21h1.46a.21.21,0,0,0,.21-.21v-4.54a.21.21,0,0,0-.21-.21Z"/><path class="cls-2" d="M328.17,243.17c-1.74-7.42-1-14.93-2.3-22.37a24.81,24.81,0,0,0-8.65-14.9c-7.26-6.09-15.48-6.59-24.25-8.14-9.66-1.72-14.88-8.53-22.14-14.65-13.73-11.59-35.92-11.43-45.83,5.53-4.95,8.46-5.31,18.86-6.08,28.48q-.66,8.38-1.33,16.79c-.33,4.18-.11,9.7-3.66,12.51-3.2,2.53-7.79,2.23-11.31,4.25a21.92,21.92,0,0,0-8,8.43c-4.7,8.44-4.47,18.42-2.53,27.7l144.58-.13C339.34,271.51,331.51,257.43,328.17,243.17Z"/><path class="cls-3" d="M191.62,283.59c.18,8.12,2.31,19.21,9,25,5.12,4.39,14.17,6.51,21.4,6.85s14.51-.44,21.73.05a147.44,147.44,0,0,1,29.54,4.49c10.65,2.75,22.21,4.57,32.78,1.61A33.16,33.16,0,0,0,322.73,311c2.31-2.81,4-6,6.43-8.7s5.55-5,7.59-8,2.75-7,.2-9.67Z"/><rect class="cls-15" x="236.27" y="180.27" width="4.93" height="106.92"/><rect class="cls-7" x="236.27" y="186.92" width="4.93" height="6.53"/><rect class="cls-15" x="259.78" y="180.27" width="4.93" height="106.92"/><rect class="cls-7" x="259.78" y="186.92" width="4.93" height="6.53"/><rect class="cls-7" x="259.78" y="202.69" width="4.93" height="6.53"/><rect class="cls-15" x="206.02" y="181.43" width="81.33" height="6.2"/><rect class="cls-15" x="320.04" y="201.13" width="4.93" height="86.06"/><rect class="cls-15" x="259.92" y="200.47" width="65.05" height="4.93"/><path class="cls-10" d="M231.51,215.42a8.06,8.06,0,0,0-1.33-4.67c-2-2.79-5.91-3.35-8.59-5.5-1.79-1.44-2.91-2-4-4.07,0,0-5.65,4.86-6.11,8.28s.08,6.9.48,10.34a144.57,144.57,0,0,1,.87,15c5.57,2.21,11.8,1.7,17.65.36a45.67,45.67,0,0,1,.45-14.84A30,30,0,0,0,231.51,215.42Z"/><path class="cls-16" d="M233.92,206.17a41.37,41.37,0,0,1-6.92,4.9,3.17,3.17,0,0,0-1.29,1.08c-1.5,2.67,1.62,7.61,4.81,6,1.64-.84,3.15-3.93,4.5-5.19.91-.84,1.76-1.73,2.59-2.65A5.45,5.45,0,0,1,233.92,206.17Z"/><path class="cls-5" d="M250.78,190.3a.34.34,0,0,0-.15.07,4.24,4.24,0,0,1-2,1.14,8.69,8.69,0,0,0,1.29-2.8c.08-.37.13-.68-.15-.93-.26-.09-.44.83-.67,1.27a5.17,5.17,0,0,1-1.28,1.44,12.16,12.16,0,0,0,.86-4,.29.29,0,0,0-.12-.26c-.14-.07-.3,0-.38.18a3.46,3.46,0,0,0-.35,1,8.27,8.27,0,0,1-.58,1.6c-.11.26-.3.65-.58.7a12,12,0,0,0,.59-3.3.5.5,0,0,0-.39-.49c-.4.32-.37.87-.48,1.34a6.91,6.91,0,0,1-1.28,2.76.41.41,0,0,1-.24.17.29.29,0,0,1-.2-.05c-.34-.21-.32-.7-.26-1.09s.08-.88-.24-1.1a.91.91,0,0,0-.31-.12c-.09,0-.2,0-.25,0a.25.25,0,0,0,0,.17,2.66,2.66,0,0,1-.1,1.25,10.07,10.07,0,0,0-.37,1c-.19,1.07.67,2.1.56,3.16a41.54,41.54,0,0,1-9.79,12.62,5.45,5.45,0,0,0,3.69,4.11,46.82,46.82,0,0,0,8.82-15.4c.22-.24.52-.39.76-.62a8.21,8.21,0,0,0,.63-.8c.85-1.05,2.31-1.51,3.06-2.64a.49.49,0,0,0,.11-.31C251,190.4,250.9,190.28,250.78,190.3Z"/><path class="cls-7" d="M227.3,292.14c-.32-.76.06-2,.2-2.81a7.11,7.11,0,0,0,.18-2.3c1.38,0,3.66,0,5,0-.25.73.35,1.51,1.14,1.91a10.81,10.81,0,0,0,2.64.71,4.55,4.55,0,0,1,2.39,1.08,1.13,1.13,0,0,1,.34.74,4,4,0,0,1-.07.69Z"/><path class="cls-8" d="M220.42,234.49h-.07c-.65,10.09,2,20,3.69,30a171.07,171.07,0,0,1,2.41,24.14,22.53,22.53,0,0,0,6.71-1,262.46,262.46,0,0,0-2.66-53.15Z"/><path class="cls-7" d="M216.07,294.32c.85,0,1.7,0,2.54-.08a1.66,1.66,0,0,0,1.27-.47,1.91,1.91,0,0,0,.18-1.19,14.8,14.8,0,0,0-.52-5.3,10.22,10.22,0,0,1-3.52-.47,1.89,1.89,0,0,1-.17,1.78c-.31.54-.75,1-1.09,1.51a4.64,4.64,0,0,0-.75,2.27,1.9,1.9,0,0,0,.47,1.52A2.37,2.37,0,0,0,216.07,294.32Z"/><path class="cls-9" d="M213.11,234.49a367.38,367.38,0,0,1,1.2,54.71,24,24,0,0,0,7.94-.12c.37-18.23,3.86-36.43,2.35-54.59Z"/><path class="cls-16" d="M225.52,194.74a4.19,4.19,0,0,0-4.17-.84,5.16,5.16,0,0,0-3,3.08,6.74,6.74,0,0,0,0,4.39,4.28,4.28,0,0,0,1.64,2.32,3.7,3.7,0,0,0,4.19-.5,7,7,0,0,0,2.14-3.88,6.19,6.19,0,0,0,0-3.28,3.06,3.06,0,0,0-2.3-2.16Z"/><path class="cls-7" d="M225.9,195.66a3.62,3.62,0,0,0-3.62-.73,4.45,4.45,0,0,0-2.65,2.68,5.73,5.73,0,0,0,0,3.81,3.68,3.68,0,0,0,1.42,2,3.23,3.23,0,0,0,3.64-.43,6.11,6.11,0,0,0,1.86-3.37,5.25,5.25,0,0,0,0-2.86,2.66,2.66,0,0,0-2-1.88Z"/><path class="cls-5" d="M229.09,199.88a5.23,5.23,0,0,0-1-2.4l.05-.4a.85.85,0,0,0-.08-.59c-.19-.26-.57-.22-.89-.17s-.51,0-.76.05l-.17-.08c-.53-.31-.59-.66-1.17-.85a4.13,4.13,0,0,0-2.66-.12c-1.48.58-2.52,3.12-2.35,4.7a2.8,2.8,0,0,0,1.06,1.87,27.2,27.2,0,0,1-.59,5.09l6.61,2.67A19.84,19.84,0,0,1,226.1,205a10.69,10.69,0,0,0,1.91-1.34c.31-.31,1.73-.92,1.74-1.36C229.77,201.33,229.18,200.81,229.09,199.88Z"/><path class="cls-7" d="M222,200.37a7.22,7.22,0,0,1-1.29-1.94,2.48,2.48,0,0,1-.25-.91,1,1,0,0,1,.36-.84,9.31,9.31,0,0,0,3.58,4.36,9,9,0,0,0,5.35,1.35,1.08,1.08,0,0,1-.6.67,2.79,2.79,0,0,1-.91.05A9.39,9.39,0,0,1,222,200.37Z"/><path class="cls-7" d="M222,200.22a14.46,14.46,0,0,1-1,2.85,6.18,6.18,0,0,1-1.22-3.47,5.49,5.49,0,0,1,1.17-3.25,1.75,1.75,0,0,0,.49,1.69c-.64,0-1.23,1-1.09,1.59S221.44,200.5,222,200.22Z"/><path class="cls-10" d="M231.51,215.42a8.06,8.06,0,0,0-1.33-4.67c-2-2.79-5.91-3.35-8.59-5.5-1.79-1.44-2.91-2-4-4.07,0,0-5.65,4.86-6.11,8.28s.08,6.9.48,10.34a144.57,144.57,0,0,1,.87,15c5.57,2.21,11.8,1.7,17.65.36a45.67,45.67,0,0,1,.45-14.84A30,30,0,0,0,231.51,215.42Z"/><path class="cls-16" d="M216.78,220.07a2.35,2.35,0,0,1-1.71.58c-.91-.17-1.36-1.17-1.62-2.05a22.72,22.72,0,0,1-.88-7.33c.13-2.9,1-6,3.3-7.75a2.05,2.05,0,0,1,2.11-.44,2.38,2.38,0,0,1,.89,1.17,17.54,17.54,0,0,1,1.73,8.37A10.23,10.23,0,0,1,216.78,220.07Z"/><path class="cls-9" d="M231,220.51c-5.77-1.48-11.48-1.51-15.23,4.93a3.85,3.85,0,0,1-3.2.79c.19,2.93.29,5.91.31,8.57,5.57,2.21,11.8,1.7,17.65.36-.81-4.91-.18-6.68.23-12.06C230.75,222.86,230.93,220.75,231,220.51Z"/><path class="cls-9" d="M221.87,206.83a5.92,5.92,0,0,0-.47-1.55,5.71,5.71,0,0,0-2.08-1.91,29.21,29.21,0,0,1,2,9.75,74,74,0,0,1-.38,10L223,223A67.53,67.53,0,0,0,221.87,206.83Z"/><path class="cls-9" d="M230.54,214.74a11.66,11.66,0,0,0-.25-3.23,4,4,0,0,0-1.88-2.55,26.1,26.1,0,0,1,.76,12.35,3.51,3.51,0,0,1,1.27.37Q230.5,218.22,230.54,214.74Z"/><path class="cls-10" d="M212.4,200.53a50.23,50.23,0,0,0-.89,6.91,10.71,10.71,0,0,0,.36,4.26,4.16,4.16,0,0,0,3,2.84,4,4,0,0,0,4-2.18,8.18,8.18,0,0,0,.73-4.74c-.15-1.62-.53-3.21-.62-4.83a16.26,16.26,0,0,1,0-1.71A5.53,5.53,0,0,1,212.4,200.53Z"/><path class="cls-5" d="M228.67,180.29a.77.77,0,0,0-.5-.08.5.5,0,0,1-.21,0c-.25-.08-.26-.47-.48-.61s-.63.11-.93,0-.47-.5-.78-.5-.48.4-.78.42-.54-.37-.84-.31a.57.57,0,0,0-.28.18c-.55.49-1.09,1-1.63,1.49a2.48,2.48,0,0,0-.71.87c-.13.32-.12.69-.25,1a2.52,2.52,0,0,1-.24.42l-1,1.62a30,30,0,0,0-6.11,10.32,39,39,0,0,0-1.48,5.41,5.53,5.53,0,0,0,6.58.55,31.71,31.71,0,0,1,1.31-6.51,36.69,36.69,0,0,1,2.88-7.54c.31-.48.63-1,1-1.42a.56.56,0,0,1,.16-.15c.07,0,.35-.43.43-.44l.95-.1a1.58,1.58,0,0,0,.93-.32c.34-.32,1.32-3,1.79-3.11s.32.12.46-.35A.74.74,0,0,0,228.67,180.29Z"/><path class="cls-7" d="M297.52,295.08a1.17,1.17,0,0,0,.33-.87,22.9,22.9,0,0,0,0-4.14,17.29,17.29,0,0,1-5.22-.51,3.65,3.65,0,0,1-2.31,2.14c-1,.4-2.11.57-3.1,1a3.32,3.32,0,0,0-2.1,2.32.72.72,0,0,0,.09.56.84.84,0,0,0,.61.24,48.7,48.7,0,0,0,11.11-.58A1.19,1.19,0,0,0,297.52,295.08Z"/><path class="cls-8" d="M298.93,232.21a13.54,13.54,0,0,0-.4,1.48c-5.18,18.6-7,33.26-6.95,56.26,1.68.86,4.92,1,6.82.9,1.29-14.09,3.14-27.73,8.09-41.06,2.13-5.74,4.62-11.53,4.94-17.58Z"/><path class="cls-7" d="M317.82,297.85c.85,0,1.69,0,2.54-.08a1.65,1.65,0,0,0,1.26-.47,1.84,1.84,0,0,0,.18-1.19,14.78,14.78,0,0,0-.51-5.3,10.22,10.22,0,0,1-3.52-.47,1.92,1.92,0,0,1-.17,1.78c-.31.54-.76,1-1.1,1.51a4.6,4.6,0,0,0-.74,2.27,1.9,1.9,0,0,0,.47,1.52A2.36,2.36,0,0,0,317.82,297.85Z"/><path class="cls-9" d="M317.31,234.74l-.13-2.77-13.82.24A173.63,173.63,0,0,0,307.54,260c2.44,10.72,5.18,21.6,8.55,32.08a4.45,4.45,0,0,0,6.25-1.72,163.21,163.21,0,0,1-4-34.58C318.22,248.41,320,241.71,317.31,234.74Z"/><path class="cls-10" d="M298.14,203.74c-.58-1.77-2.11-3.56-4.05-3.6-1.93,3.31-2.76,7.24-4.16,10.85a15.63,15.63,0,0,1,6.08,3.75,25.31,25.31,0,0,0,2-5.5A10.19,10.19,0,0,0,298.14,203.74Z"/><path class="cls-5" d="M290.51,210.52a34.62,34.62,0,0,1-2,3.49,16.76,16.76,0,0,0-2-1.35c-3.14-1.85-6.42-3.64-8.88-6.28l-2.33,2c3.62,4.81,7.37,9.74,12.59,12.94,1.83,1.12,3.66-.7,4.86-1.93a18.67,18.67,0,0,0,3.28-4.69C294.2,213,292.76,211.22,290.51,210.52Z"/><path class="cls-7" d="M278.09,210a6,6,0,0,0-3.64-6.37,2,2,0,0,0-1.35-.17,5.25,5.25,0,0,1-.09,3,2.94,2.94,0,0,0-.31,1.37,1.87,1.87,0,0,0,.49.93A4.58,4.58,0,0,0,278.09,210Z"/><path class="cls-10" d="M271.88,210.93c-.5-.43-1-1-.94-1.62a2,2,0,0,1,.47-.86l2.9-3.66c.79-1,1.63-2.18,1.39-3.43l3.14,2.06C277,205.64,277,209,275,211a2.14,2.14,0,0,1-1.45.76A2.64,2.64,0,0,1,271.88,210.93Z"/><rect class="cls-7" x="268.85" y="193.65" width="3.61" height="3.76" transform="translate(-50.28 287.66) rotate(-51.86)"/><path class="cls-7" d="M276.22,202.88a.33.33,0,0,0-.11-.21,11.41,11.41,0,0,0-1.89-1.65,1.43,1.43,0,0,1-.22,1.59c-.21.21-.49.38-.56.67a.88.88,0,0,0,.46.87,4.21,4.21,0,0,1,.85.6l1.35-1.61A.37.37,0,0,0,276.22,202.88Z"/><rect class="cls-7" x="267.82" y="193.43" width="2.11" height="1.68" transform="translate(-49.97 285.77) rotate(-51.86)"/><rect class="cls-7" x="269.43" y="190.37" width="0.74" height="9.26" transform="translate(-50.19 286.78) rotate(-51.86)"/><path class="cls-10" d="M270.27,198.22l8,6.25a.48.48,0,0,0,.67-.09l1.52-1.93a1.6,1.6,0,0,0-.27-2.24l-7.09-5.56Z"/><path class="cls-7" d="M272.39,198.12a.52.52,0,1,1-.52-.52A.52.52,0,0,1,272.39,198.12Z"/><rect class="cls-7" x="277.97" y="199.02" width="0.38" height="3.22" transform="translate(-47.17 309.2) rotate(-54.26)"/><rect class="cls-7" x="277.4" y="199.71" width="0.38" height="3.22" transform="translate(-47.96 309.03) rotate(-54.26)"/><rect class="cls-7" x="276.94" y="200.36" width="0.37" height="3.22" transform="translate(-48.69 308.93) rotate(-54.26)"/><path class="cls-5" d="M278.53,205.82c-.15-.45-.08-.94-.26-1.37a2.15,2.15,0,0,0-1.85-1.07,4.78,4.78,0,0,1-2.17-.51.76.76,0,0,0,.08.91,2.08,2.08,0,0,0,.83.53,2.51,2.51,0,0,1,.86.48c.5.49.48,1.28.64,2a2.31,2.31,0,0,0,.56,1.1c.29.29.74.29,1.13.42,1.23.41.79-.38.85-.8C279.28,206.88,278.72,206.39,278.53,205.82Z"/><path class="cls-5" d="M274.08,203.38a.65.65,0,0,0-.39-.37,1.81,1.81,0,0,0-.51-.08.48.48,0,0,0-.29,0,.35.35,0,0,0-.16.27.72.72,0,0,0,.14.51,1.18,1.18,0,0,0,.43.34.58.58,0,0,0,.48.06.53.53,0,0,0,.28-.34A.64.64,0,0,0,274.08,203.38Z"/><path class="cls-5" d="M274.59,205a1.27,1.27,0,0,0-.81-.58.43.43,0,0,0-.35,0,.39.39,0,0,0-.15.27.86.86,0,0,0,.16.6,1.46,1.46,0,0,0,.48.41.65.65,0,0,0,.52.1.44.44,0,0,0,.27-.37A.79.79,0,0,0,274.59,205Z"/><path class="cls-5" d="M273.41,205.27a.4.4,0,0,0-.34,0,.46.46,0,0,0-.18.37,1.25,1.25,0,0,0,.34,1,.63.63,0,0,0,.39.21.51.51,0,0,0,.48-.42.88.88,0,0,0-.16-.66A1,1,0,0,0,273.41,205.27Z"/><path class="cls-5" d="M272.91,206.12a.36.36,0,0,0-.27,0,.42.42,0,0,0-.23.35,1.16,1.16,0,0,0,.21.87.52.52,0,0,0,.49.26.45.45,0,0,0,.32-.38,1.11,1.11,0,0,0-.1-.51A1,1,0,0,0,272.91,206.12Z"/><path class="cls-10" d="M307.68,198a6.73,6.73,0,0,1,4.31.89,6.36,6.36,0,0,1,1.91,3.27c3.4,10.22,4.31,20.39,4.17,31.11-7.57-.67-12.38-.45-20-.47a50.12,50.12,0,0,0-1.67-18.18c-.65-2.38-1.67-4.66-2.42-7s-1.06-5.17,0-7.43A51.2,51.2,0,0,1,307.68,198Z"/><path class="cls-16" d="M313.9,202.13a8.59,8.59,0,0,0-1.16-2.49c-2.36.18-4.36,2.32-4.36,3.13.54,10.35.47,20.39-1.18,30.14,4.13.17,6.75,0,10.87.33C318.21,222.52,317.3,212.35,313.9,202.13Z"/><path class="cls-9" d="M296.48,214.85a49.78,49.78,0,0,1,1.61,17.92c6.77,3.63,12.38-.17,20,.47a110.68,110.68,0,0,0-1.13-18.39Z"/><path class="cls-8" d="M308.66,215.26a125.35,125.35,0,0,1-1.33,18.56c4.13.17,6.62-.94,10.74-.58a112.39,112.39,0,0,0-1.06-18Z"/><path class="cls-9" d="M306.41,202.85a51.76,51.76,0,0,0,.28,13.45.87.87,0,0,0,.27.63c.48.36,1.16-.38,1.72-.16a51.43,51.43,0,0,1,.13-18.88,1.2,1.2,0,0,0-1.48.41,3.44,3.44,0,0,0-.52,1.58C306.65,200.86,306.52,201.85,306.41,202.85Z"/><path class="cls-9" d="M297.56,216.31l1.45.11a48.94,48.94,0,0,1-2.68-8.24,25.26,25.26,0,0,1-.47-8.62,1.32,1.32,0,0,0-1,.41,1.29,1.29,0,0,0-.16.68A36,36,0,0,0,297.56,216.31Z"/><path class="cls-10" d="M317.65,212.52a44.2,44.2,0,0,0-1.29-7.11,14,14,0,0,0-1.89-4.5,6.34,6.34,0,0,0-4.09-2.69l-2.17,0a6.64,6.64,0,0,0-1.18,5.44,29.72,29.72,0,0,0,1.82,5.44,36.35,36.35,0,0,1,1.29,4.2A12.46,12.46,0,0,1,317.65,212.52Z"/><path class="cls-5" d="M314,235.87a46.27,46.27,0,0,0,3.7-23.35,12.46,12.46,0,0,0-7.51.74c1.85,7.48,1.75,14.42-.94,21.43a5.5,5.5,0,0,0-2,1.63,9.63,9.63,0,0,0-.46,1.27,3.24,3.24,0,0,1-.88,1.25c-.05,0-.11.09-.11.16s.1.19.2.24a1.27,1.27,0,0,0,.38.11c.48.05.82-.43,1.07-.84s.6-.88,1.07-.82a.36.36,0,0,1,.24.11.5.5,0,0,1,.09.34,8.4,8.4,0,0,1-.92,3.56c-.25.52-.7,1-.58,1.63a.61.61,0,0,0,.74-.17,14,14,0,0,0,2-3.54c.23.26.1.77,0,1.1a10.56,10.56,0,0,1-.7,1.95,3.81,3.81,0,0,0-.43,1.21c0,.18,0,.42.21.45a.37.37,0,0,0,.32-.14,15.24,15.24,0,0,0,2.22-4.37,6.53,6.53,0,0,1,.1,2.33c-.13.58-.66,1.59-.36,1.7.46,0,.66-.35.87-.76a10.8,10.8,0,0,0,.93-3.61,5.25,5.25,0,0,1,1,2.59.33.33,0,0,0,.08.18.26.26,0,0,0,.36,0,.62.62,0,0,0,.13-.38c.16-1.63-.85-3.17-.85-4.81A8.8,8.8,0,0,0,314,235.87Z"/><path class="cls-10" d="M295.33,182.81a6,6,0,0,0-2.68,4.56,7.56,7.56,0,0,0,.53,4.18,3.26,3.26,0,0,0,2.68,2.09,3.85,3.85,0,0,0,1.44-.35,16.52,16.52,0,0,0,6.4-4.58,4.52,4.52,0,0,0,1.31-2.79,3.29,3.29,0,0,0-1-2.2,6.2,6.2,0,0,0-2.05-1.33A7.37,7.37,0,0,0,295.33,182.81Z"/><path class="cls-7" d="M302.78,184a6.61,6.61,0,0,0-5.66,1.15,7.37,7.37,0,0,0-2.83,5.09,3.75,3.75,0,0,0,.15,1.76,1.93,1.93,0,0,0,1.21,1.22,2.85,2.85,0,0,0,2-.38,17.18,17.18,0,0,0,6-4.85,4.78,4.78,0,0,0,.83-1.43,2,2,0,0,0-.12-1.61A2.43,2.43,0,0,0,302.78,184Z"/><path class="cls-7" d="M294.61,186.68c0,.23-.07.42-.16.42s-.15-.19-.15-.42.07-.43.15-.43S294.61,186.44,294.61,186.68Z"/><path class="cls-7" d="M293.8,189.22c0,.24-.07.43-.16.43s-.16-.19-.16-.43.07-.42.16-.42S293.8,189,293.8,189.22Z"/><path class="cls-16" d="M301.19,182.09A8.37,8.37,0,0,0,295,185.7a9.07,9.07,0,0,1,6.61-2.3,4.53,4.53,0,0,1,2.25.65,2.34,2.34,0,0,1,1.13,2,2.35,2.35,0,0,0-.53-3.08A4.42,4.42,0,0,0,301.19,182.09Z"/><path class="cls-5" d="M303.71,198.69a27.77,27.77,0,0,0-1.69-5l-3,.42a1.16,1.16,0,0,0-.69.25,1,1,0,0,0-.2.65l-.39,4.68a2.38,2.38,0,0,0-1.32,1.32,2.35,2.35,0,0,0,1.05,2.43,4.94,4.94,0,0,0,5.39.07,6,6,0,0,0,2.66-4.65A17.11,17.11,0,0,0,303.71,198.69Z"/><path class="cls-5" d="M301.92,185.21c.85,0,1.87,0,2.29.7s.1,1.27.28,1.89a5.1,5.1,0,0,0,.77,1.22,5,5,0,0,1,.77,3.18,15.32,15.32,0,0,1-.73,3.24c-.13.41-.25.39-.6.68a2.91,2.91,0,0,1-1.77.35c-1.49-.08-3.11.19-4.21-.73a11.05,11.05,0,0,1-2.3-3,6.82,6.82,0,0,1-1-4.32,4,4,0,0,1,2.58-2.57A11.91,11.91,0,0,1,301.92,185.21Z"/><path class="cls-7" d="M297.75,195.27c-.43-1.07-1.7-1.52-2.41-2.43a3.36,3.36,0,0,1-.69-1.94,7.18,7.18,0,0,1,1.43-4.34,3.55,3.55,0,0,1,2.14-1.3,2.59,2.59,0,0,0-.83,1.94,7.78,7.78,0,0,0,.34,2.14.76.76,0,0,0-1.05,0,1.31,1.31,0,0,0-.33,1.08,3.1,3.1,0,0,0,1.26,2A5.24,5.24,0,0,1,297.75,195.27Z"/><path class="cls-7" d="M294.85,188.64a9.38,9.38,0,0,0,3.5,5.88,8.15,8.15,0,0,0,6.91,1.21,1.37,1.37,0,0,1-.46.74c-2.77.38-4.52.22-6.4-1.14a10.73,10.73,0,0,1-3.76-5.6Z"/><rect class="cls-7" x="246.34" y="272.29" width="32.28" height="17.36"/><path class="cls-7" d="M274,249.35h-3.07v13.11h0a1.06,1.06,0,0,1,1.06,1.05V275h.93v-11.5a1.06,1.06,0,0,1,1.06-1.05h0Z"/><path class="cls-10" d="M274.12,266.74a.47.47,0,0,1-.47.47h-2.51a.48.48,0,0,1-.48-.47h0a.48.48,0,0,1,.48-.48h2.51a.47.47,0,0,1,.47.48Z"/><path class="cls-10" d="M273.77,267.13h-2.69a24.19,24.19,0,0,1-.15,6.63,11.69,11.69,0,0,0,.8,6.53h1.38a11.69,11.69,0,0,0,.81-6.53A23.43,23.43,0,0,1,273.77,267.13Z"/><path class="cls-7" d="M263.58,253.29l-1.25.62,2.88,12.52h0a1.06,1.06,0,0,1,1.32.71l3.34,11,.89-.27-3.34-11a1.06,1.06,0,0,1,.71-1.32h0Z"/><path class="cls-10" d="M269.55,269.59a.48.48,0,0,1-.32.59l-2.4.73a.48.48,0,0,1-.6-.32h0a.48.48,0,0,1,.32-.59l2.4-.73a.48.48,0,0,1,.6.32Z"/><path class="cls-10" d="M269.32,270.07l-2.58.78a23.87,23.87,0,0,1,1.79,6.39,11.72,11.72,0,0,0,2.66,6l1.33-.4a11.72,11.72,0,0,0-1.13-6.48A23.64,23.64,0,0,1,269.32,270.07Z"/><path class="cls-10" d="M247.08,248.41,244,249l.5,28.07,9.32,3ZM244.6,250a.33.33,0,1,1,.33-.33A.34.34,0,0,1,244.6,250Z"/><polygon class="cls-7" points="253.83 280.04 247.08 248.41 246.71 248.48 252.91 279.74 253.83 280.04"/><path class="cls-7" d="M253.18,281.65l-2.35-1.27a1,1,0,0,1-.51-.66l-.48-1.89-4.75-.87-.41,1.08.26,7.72a.74.74,0,0,0,.73.7l7.38,0a.73.73,0,0,0,.73-.75l-.09-3.27A1,1,0,0,0,253.18,281.65ZM251.37,285h-4.72a.86.86,0,1,1,0-1.72h4.72a.86.86,0,0,1,0,1.72Z"/><rect class="cls-10" x="252.03" y="260.52" width="2.28" height="23.81"/><path class="cls-7" d="M247.62,261.63l1.78.24a1.24,1.24,0,0,1,1.7-1c.47.23.74.74,1.19,1a2.71,2.71,0,0,0,2.6-.38,3.28,3.28,0,0,1,2.59-.63,4.81,4.81,0,0,0,.71.29.55.55,0,0,0,.64-.28.69.69,0,0,0-.18-.59,5.82,5.82,0,0,0-3-2.06,10.19,10.19,0,0,0-3.69-.33,2.82,2.82,0,0,0-1,.2c-.25.12-.46.3-.7.44a1,1,0,0,1-.79.16c-.26-.07-.21-.31-.35-.63l-1.71.23C247.48,259.43,247.55,260.53,247.62,261.63Z"/><path class="cls-10" d="M254.25,259.85a.92.92,0,1,1-.92-.92A.92.92,0,0,1,254.25,259.85Z"/><rect class="cls-8" x="242.71" y="272.29" width="32.28" height="17.36"/></g></g></svg>